<svg data-name="그룹 141" xmlns="http://www.w3.org/2000/svg" xmlns:xlink="http://www.w3.org/1999/xlink" width="176.579" height="55.961"><defs><clipPath id="b"><path data-name="패스 349" d="M118.48 38.8v11.245h10.39V35.106z" transform="translate(-118.48 -35.106)" fill="none"/></clipPath><clipPath id="d"><path data-name="패스 350" d="M104.531 44.559v11.132a4.774 4.774 0 004.186 4.576l13.849 1.444v-8.623h-10.389V41.843z" transform="translate(-104.531 -41.843)" fill="none"/></clipPath><clipPath id="e"><path data-name="패스 351" d="M137.978 0l-14.259 7.029c-3.365 1.664-5.239 4.151-5.239 7.312v8.594l10.389-3.693V34.18h9.108z" transform="translate(-118.48)" fill="none"/></clipPath><clipPath id="g"><path data-name="패스 352" d="M82.779 24.074c0 2.559.69 5.7 4.109 6.022l5.961.546V19.5l-10.07-4.816z" transform="translate(-82.779 -14.684)" fill="none"/></clipPath><clipPath id="i"><path data-name="사각형 144" fill="none" d="M0 0h176.579v55.961H0z"/></clipPath><linearGradient id="c" x1="-3.354" y1="2.214" x2="-3.324" y2="2.214" gradientUnits="objectBoundingBox"><stop offset="0" stop-color="#f38200"/><stop offset="1" stop-color="#e85400"/></linearGradient><linearGradient id="a" x1="-1.973" y1="1.36" x2="-1.953" y2="1.36" gradientUnits="objectBoundingBox"><stop offset="0" stop-color="#ffc400"/><stop offset=".481" stop-color="#f8a200"/><stop offset="1" stop-color="#f38200"/></linearGradient><linearGradient id="f" x1="-1.408" y1="1.587" x2="-1.394" y2="1.587" gradientUnits="objectBoundingBox"><stop offset="0" stop-color="#ffc400"/><stop offset=".168" stop-color="#faaf00"/><stop offset=".734" stop-color="#ed6d00"/><stop offset="1" stop-color="#e85400"/></linearGradient><linearGradient id="h" x1="-2.374" y1="2.622" x2="-2.342" y2="2.622" xlink:href="#a"/></defs><g data-name="그룹 132"><g data-name="그룹 131" clip-path="url(#b)" transform="translate(64.94 19.242)"><path data-name="사각형 140" transform="rotate(-54.985 6.117 11.755)" fill="url(#c)" d="M0 0h18.196v17.081H0z"/></g></g><g data-name="그룹 134"><g data-name="그룹 133" clip-path="url(#d)" transform="translate(57.294 22.934)"><path data-name="사각형 141" transform="rotate(-45.437 7.078 16.905)" fill="url(#a)" d="M0 0h26.81v26.791H0z"/></g></g><g data-name="그룹 136"><g data-name="그룹 135" clip-path="url(#e)" transform="translate(64.94)"><path data-name="사각형 142" transform="rotate(-54.574 13.927 26.996)" fill="url(#f)" d="M0 0h39.154v35.7H0z"/></g></g><g data-name="그룹 138"><g data-name="그룹 137" clip-path="url(#g)" transform="translate(45.372 8.048)"><path data-name="사각형 143" transform="rotate(-36.121 4.703 14.424)" fill="url(#h)" d="M0 0h17.541v18.826H0z"/></g></g><g data-name="그룹 140"><g data-name="그룹 139" clip-path="url(#i)" fill="#5f5e5e"><path data-name="패스 353" d="M4.948 44.977c0-5.465 2.642-8.2 5.5-8.4a6.669 6.669 0 013.562.563v-2.371H14a8.509 8.509 0 00-4.406-.77C4.391 34.142 0 37.491 0 44.977c0 10.059 7.089 10.984 10.788 10.984a11.846 11.846 0 003.23-.4v-2.3a9.524 9.524 0 01-2.4.316c-2.174 0-6.673-.925-6.673-8.6m16.855-10.8l-5.938 21.645h4.348l1.33-5.34h4.982l1.346 5.34h4.578l-5.935-21.645zm.373 13.776l1.847-7.411 1.869 7.411zm23-4.522l6.2-9.254h-4.63l-5.507 8.133v-8.133h-4.9v21.645h4.9v-9.81l5.276 9.81H51.6z"/><path data-name="패스 354" d="M142.909 47.881h2.356v-8.074h-2.356v2.155h-3.189v1.631h3.189z"/><path data-name="패스 355" d="M136.109 44.5a9.8 9.8 0 004.24 3.1l1.053-1.34c-2.486-1.015-4.116-2.792-4.116-5.546v-.905h-2.356v.905c0 2.754-1.631 4.531-4.114 5.545l1.051 1.341a9.8 9.8 0 004.241-3.1"/><path data-name="패스 356" d="M136.843 54.149v-1.232h8.418V48.53h-10.742v1.632h8.382v1.233h-8.418v3.118a1.454 1.454 0 001.451 1.448h9.5v-1.632h-8.418a.2.2 0 01-.182-.18"/><path data-name="패스 357" d="M113.586 44.582h2.356v-1.633h-2.356v-3.145h-2.354v11.42h2.354z"/><path data-name="패스 358" d="M105.243 54.149v-4.168h-2.357v4.532a1.454 1.454 0 001.451 1.448h9.323V54.33h-8.235a.194.194 0 01-.181-.18"/><path data-name="패스 359" d="M108.727 44.679a3.848 3.848 0 00-.96-2.516h1.559V40.53h-3.534v-1.246h-2.358v1.246h-3.533v1.633h1.522a3.843 3.843 0 00-.961 2.516 4.136 4.136 0 008.264 0m-5.871 0c0-1.32.778-2.372 1.739-2.372.943 0 1.74 1.051 1.74 2.372s-.778 2.361-1.74 2.361-1.739-1.033-1.739-2.361"/><path data-name="패스 360" d="M158.51 43.12h-3.461a3.838 3.838 0 00-.984-.957h2.228v-1.634h-3.427v-1.245h-2.355v1.245h-3.426v1.633h2.192a3.554 3.554 0 00-1.623 2.932 3.851 3.851 0 004.017 3.659 4.177 4.177 0 003.016-1.248h3.823v1.439h2.357v-9.133h-2.357zm-6.839 4.058a2.119 2.119 0 111.733-2.083 1.932 1.932 0 01-1.733 2.083m6.839-1.213h-2.941a3.346 3.346 0 00.119-.87 3.289 3.289 0 00-.031-.437h2.853z"/><path data-name="패스 361" d="M158.51 51.133h-6.057v-1.58h-2.355v4.96a1.453 1.453 0 001.449 1.448h9.323v-6.408h-2.357zm0 3.017a.2.2 0 01-.18.18h-5.7a.2.2 0 01-.177-.184v-1.455h6.06z"/><path data-name="패스 362" d="M123.175 45.423h4.111v5.8h2.358V39.807h-2.358v3.987h-3.127a7.247 7.247 0 00.59-2.118.968.968 0 00-1.08-1.177h-7.106v1.631h5.524c-.287 2.16-2.035 4.6-6.456 5.544l.909 1.459a10.828 10.828 0 006.636-3.709"/><path data-name="패스 363" d="M121.299 54.149v-4.168h-2.357v4.532a1.454 1.454 0 001.451 1.448h9.324V54.33h-8.235a.2.2 0 01-.182-.18"/><path data-name="패스 364" d="M95.978 45.647h-1.177v-5.842h-2.175v9.777c-2.08.744-5.89.442-5.89.442v-7.853h4.167v-1.628h-6.524v9.839a1.449 1.449 0 001.4 1.444h.067a18.4 18.4 0 006.78-.837v4.968H94.8v-8.675h1.177v8.68h2.175V39.805h-2.175z"/><path data-name="패스 365" d="M174.223 39.812v9.849a15.693 15.693 0 01-5.164.677V48.67a4.06 4.06 0 003.029-3.807 3.843 3.843 0 00-.964-2.518h1.56v-1.633h-3.534v-1.428h-2.357v1.428h-3.535v1.632h1.523a3.846 3.846 0 00-.96 2.518 4.028 4.028 0 002.882 3.75v1.728h-3.9v1.631h4.79q.58.01 1.11 0h.017a16.528 16.528 0 005.5-.915v4.9h2.357V39.812zm-6.268 7.413c-.962 0-1.741-1.034-1.741-2.357s.778-2.373 1.741-2.373c.941 0 1.738 1.05 1.738 2.373s-.778 2.357-1.738 2.357"/></g></g></svg>