<svg data-name="그룹 107" xmlns="http://www.w3.org/2000/svg" width="120" height="63.153"><defs><clipPath id="a"><path data-name="사각형 88" fill="none" d="M0 0h120v63.153H0z"/></clipPath></defs><g data-name="그룹 106" clip-path="url(#a)"><path data-name="패스 61" d="M9.16 35.069c-4.045 0-6.869-3.228-6.869-7.3a7.063 7.063 0 016.869-7.3 5.592 5.592 0 014.5 2.136l1.859-1.314a7.884 7.884 0 00-6.359-2.765A8.984 8.984 0 000 27.769a8.99 8.99 0 009.16 9.242 8.077 8.077 0 006.819-3.081l-1.6-1.316a6.407 6.407 0 01-5.219 2.455" fill="#171213"/><path data-name="사각형 86" fill="#171213" d="M33.154 17.384h1.99v18.927h-1.99z"/><path data-name="패스 62" d="M50.572 30.207a6 6 0 00-6.365-6.109 6.112 6.112 0 100 12.213 6 6 0 006.365-6.1m-6.364 4.31a4.322 4.322 0 114.222-4.318 4.1 4.1 0 01-4.222 4.318" fill="#171213"/><path data-name="패스 63" d="M53.682 36.311h1.983v-5.66c0-2.658 1.071-4.321 3.486-4.321a3.754 3.754 0 011.071.154l.128-1.968a2.519 2.519 0 00-.817-.122 4.351 4.351 0 00-3.968 2.207h-.052c0-.642-.053-1.291-.053-1.908h-1.882c0 .772.1 1.689.1 2.755z" fill="#171213"/><path data-name="패스 64" d="M64.735 36.31h1.985v-9.981h2.9v-1.637h-2.9v-2.067c0-2.01.077-3.476 2.141-3.476a4.2 4.2 0 011.345.247l.282-1.735a3.708 3.708 0 00-1.524-.3c-3.211 0-4.228 2.01-4.228 4.842v2.489h-2.6v1.637h2.6z" fill="#171213"/><path data-name="패스 65" d="M80.424 34.402h.052c0 .641.049 1.292.049 1.91h1.889c0-.77-.1-1.686-.1-2.755v-8.863h-1.985v5.659c0 2.657-1.121 4.472-3.691 4.472-1.858 0-2.724-1.216-2.724-3.153v-6.978h-1.985v7.177c0 2.8 1.4 4.739 4.531 4.739a4.346 4.346 0 003.968-2.208" fill="#171213"/><path data-name="사각형 87" fill="#171213" d="M84.853 17.362h1.986V36.31h-1.986z"/><path data-name="패스 66" d="M52.004 42.623h-6.3c.087 3.343.061 6.672.061 9.924l.022 4.29a.03.03 0 01.008.011c.213 0 5.426-.06 5.426-.06 1.49 0 4.98 0 6.967-2.545a8.654 8.654 0 001.455-4.933c0-6.627-5.157-6.666-7.64-6.687m1.511 10.76a3.622 3.622 0 01-2.273.654l-.435-.013-.514-.014v-8.645l.314-.019.869-.035a3.845 3.845 0 012.068.447c1.387.863 1.387 3.058 1.387 3.782 0 1.843-.481 3.134-1.416 3.844" fill="#171213"/><path data-name="패스 67" d="M81.829 54.07v-3.347h6.322a.023.023 0 01.012-.013c.018-.194.157-2.279.169-2.487-.206.006-6.551.085-6.551.085v-3.126h6.846c.013-.222.125-2.268.144-2.564H77.303c.107 2 .057 2.842.057 7.72v6.5l1.144-.019 4.734-.058h.71l4.787.021.045-.029c.017-.226.189-2.552.212-2.8-2.481.085-5.279.117-6.932.117z" fill="#171213"/><path data-name="패스 68" d="M99.926 49.888a23.909 23.909 0 01.091 2.846v1.045l-.006.191-.236.074a3.25 3.25 0 01-.949.1 3.413 3.413 0 01-2.642-1 4.526 4.526 0 01-1.088-3.268c0-1.778.5-3.021 1.668-3.7a5.877 5.877 0 013-.653 6.633 6.633 0 013.679 1.005c.027-.352.229-3.214.239-3.346a12.474 12.474 0 00-4.692-.864c-7.944 0-8.558 5.786-8.558 7.557a6.777 6.777 0 002.722 5.792 9.909 9.909 0 005.814 1.434 17.067 17.067 0 005.2-.82l.007-.019.021-3.215s.019-2.927.024-3.213c-1.917.077-2.351.077-4.285.056" fill="#171213"/><path data-name="패스 69" d="M116.049 50.6c0 1.547 0 2.665-.8 3.381a2.27 2.27 0 01-1.655.6 2.183 2.183 0 01-2.238-1.438 7.023 7.023 0 01-.27-2.419c0-2.748.076-5.579.139-8.1-.24 0-4.437.054-4.708.06l.094 8.871a5.693 5.693 0 001.116 3.879c1.334 1.5 4.042 1.723 5.541 1.723a9.176 9.176 0 004.628-1.023c1.773-1.105 1.875-2.807 1.968-4.338l.135-9.168c-.191 0-3.879.054-4.107.06.089 2.247.156 4.308.156 7.912" fill="#171213"/><path data-name="패스 70" d="M70.709 42.609c-.13 0-5.589.059-5.734.064-.006 0-.006.01-.021.014l-4.957 14.15h4.29l.98-3.572h4.583s.89 3.44.935 3.619c.01.006-.023.006-.012.012l4.592-.059c-.1-.3-4.57-14.046-4.625-14.2a.09.09 0 00-.03-.024m-4.781 8.157l1.672-5.6 1.587 5.6z" fill="#171213"/><path data-name="패스 71" d="M28.104 51.793a6.686 6.686 0 00-8.34 0 6.343 6.343 0 00-2.4 4.953 6.569 6.569 0 0013.134 0 6.343 6.343 0 00-2.4-4.953" fill="#efa900"/><path data-name="패스 72" d="M23.933 37.186c-.194 0-.385-.009-.575-.025a6.791 6.791 0 01-1.63-.35q-.2-.073-.392-.156a6.456 6.456 0 00-1.573.93 6.332 6.332 0 00-2.4 4.949 6.568 6.568 0 0013.133 0 6.331 6.331 0 00-2.4-4.949 6.709 6.709 0 00-1.57-.933c-.066.028-.13.06-.2.086a6.693 6.693 0 01-2.4.448" fill="#ce6ca4"/><path data-name="패스 73" d="M28.633 26.67a6.617 6.617 0 01-3.356 1.8 6.7 6.7 0 01-1.344.135 6.628 6.628 0 01-4.7-1.936c-.057-.06-.109-.121-.165-.181a6.277 6.277 0 00-1.703 4.295 6.4 6.4 0 003.968 5.872c.021-.007.04-.016.059-.024.047-.021.094-.041.143-.06a6.707 6.707 0 01.8-.247 6.568 6.568 0 011.59-.2 6.661 6.661 0 011.1.092 6.765 6.765 0 011.113.282c.131.048.26.1.387.155a6.392 6.392 0 003.967-5.87 6.278 6.278 0 00-1.7-4.293l-.084.089c-.028.029-.054.061-.083.091" fill="#171213"/><path data-name="패스 74" d="M22.342 36.324a6.862 6.862 0 00-.8.247c-.047.018-.095.039-.143.059-.019.008-.039.017-.059.024q.193.083.392.156a6.821 6.821 0 001.63.35c.19.016.381.025.575.025a6.694 6.694 0 002.4-.448c.069-.026.132-.058.2-.086-.127-.053-.255-.107-.387-.154a6.758 6.758 0 00-1.112-.283 6.669 6.669 0 00-1.1-.092 6.571 6.571 0 00-1.59.2" fill="#990f76"/><path data-name="패스 75" d="M23.358 37.162a6.79 6.79 0 01-1.63-.35q-.2-.073-.392-.156.193.083.392.156a6.79 6.79 0 001.63.35" fill="#990f76"/><path data-name="패스 76" d="M21.394 36.631l-.059.024.059-.024" fill="#990f76"/><path data-name="패스 77" d="M22.342 36.324a6.571 6.571 0 011.59-.2 6.668 6.668 0 011.1.092 6.668 6.668 0 00-1.1-.092 6.571 6.571 0 00-1.59.2" fill="#990f76"/><path data-name="패스 78" d="M28.104 17.246a6.682 6.682 0 00-8.342 0 6.292 6.292 0 00-.691 9.244c.056-.062.107-.127.165-.185.169-.17.344-.326.526-.478a6.685 6.685 0 017.639-.486 6.426 6.426 0 01.7.486 6.538 6.538 0 01.529.478c.029.028.056.061.083.092l.083.092a6.291 6.291 0 00-.7-9.244" fill="#5da71e"/><path data-name="패스 79" d="M23.933 28.605a6.644 6.644 0 004.7-1.936c.029-.03.056-.059.083-.091s.056-.061.083-.09c-.027-.032-.055-.062-.083-.092s-.054-.064-.083-.092a6.409 6.409 0 00-.528-.478 6.74 6.74 0 00-.7-.487 6.678 6.678 0 00-7.639.487 7.41 7.41 0 00-.526.478c-.057.057-.109.123-.165.185.056.059.107.121.165.181a6.626 6.626 0 004.7 1.936" fill="#006f32"/><path data-name="패스 80" d="M25.277 28.47a6.618 6.618 0 003.356-1.8 6.618 6.618 0 01-3.356 1.8" fill="#006f32"/><path data-name="패스 81" d="M21.193 24.953a6.642 6.642 0 00-1.432.873 7.9 7.9 0 00.001 0 6.688 6.688 0 011.432-.873" fill="#006f32"/><path data-name="패스 82" d="M28.637 26.304c.029.028.056.061.083.092a1.167 1.167 0 00-.083-.092 6.538 6.538 0 00-.529-.478 6.425 6.425 0 00-.7-.486 6.513 6.513 0 01.7.486 6.645 6.645 0 01.529.478" fill="#006f32"/><path data-name="패스 83" d="M23.933 12.82A6.49 6.49 0 0030.5 6.407a6.345 6.345 0 00-2.4-4.95 6.707 6.707 0 00-8.344 0 6.352 6.352 0 00-2.391 4.95 6.491 6.491 0 006.566 6.413" fill="#2c6eb6"/></g></svg>