<svg xmlns="http://www.w3.org/2000/svg" width="177.45" height="30.496"><defs><clipPath id="a"><path data-name="사각형 169" fill="none" d="M0 0h177.45v30.496H0z"/></clipPath></defs><g data-name="그룹 165"><g data-name="그룹 164" transform="translate(0 .001)" clip-path="url(#a)"><path data-name="사각형 165" d="M4.421.039H30.07a4.382 4.382 0 014.382 4.382v21.655a4.381 4.381 0 01-4.381 4.381H4.42a4.381 4.381 0 01-4.381-4.381V4.421A4.382 4.382 0 014.421.039z" fill="#fff"/><path data-name="사각형 166" d="M4.421.039H30.07a4.382 4.382 0 014.382 4.382v21.655a4.381 4.381 0 01-4.381 4.381H4.42a4.381 4.381 0 01-4.381-4.381V4.421A4.382 4.382 0 014.421.039z" fill="none" stroke="#1a1311" stroke-width=".148"/><path data-name="패스 522" d="M14.563 8.727c-5.411 1.773-8.776 5.151-7.975 8.061.413 1.5 1.929 2.547 4.062 3.035a10.927 10.927 0 001.585.312l2.375-5.976.5 5.914a11.943 11.943 0 003.351-.653L16.438 4.473zm-3.251 7.636c-1.253-.486-1.88-1.138-2.019-1.906-.33-1.853 2.485-3.915 4.97-4.939z" fill="#00531d"/><path data-name="패스 523" d="M28.15 10.834c-.628-2.281-3.476-3.364-7.424-3.3l-.542-3.31-2.619 6.635.43 3.257.772-1.944 1.062 6.949c5.451-1.765 9.124-5.364 8.319-8.288m-5.943 3.406l-.119.059-1.192-6.132c2.385-.041 3.926.555 4.258 2 .311 1.358-.885 2.949-2.946 4.071" fill="#0091bf"/><path data-name="사각형 167" fill="#1a1311" d="M23.393 22.272h.73v3.882h-.73z"/><path data-name="패스 524" d="M13.327 22.27v1.335h-.917v.386h.917v2.166h.729V22.27z" fill="#1a1311"/><path data-name="패스 525" d="M19.476 23.604h-.523v-1.332h-.73v3.883h.73v-2.163h.523z" fill="#1a1311"/><path data-name="패스 526" d="M21.993 23.654v-.789h.959v-.374h-.959v-.311h-.774v.311h-.981v.374h.981v.958c0 .763-.382 1.658-1.123 1.77l.242.536a1.642 1.642 0 001.259-1.055s.6 1.044 1.35 1.055l.222-.485s-1.187-.262-1.176-1.991" fill="#1a1311"/><path data-name="패스 527" d="M28.626 24.144a.532.532 0 00.225-.505v-.851a.449.449 0 00-.507-.446h-3.1v.373h2.823v1.093c0 .237-.062.327-.219.338h-2.913v.472h1.681v1.536h.78v-1.535h1.714v-.472z" fill="#1a1311"/><path data-name="패스 528" d="M8.097 22.357H5.523v1.468s.008.322.419.322h2.161v-.423H6.19v-.983h1.909z" fill="#1a1311"/><path data-name="패스 529" d="M9.784 22.962h-.6v-.686H8.45v1.968h.734v-.9h.6z" fill="#1a1311"/><path data-name="패스 530" d="M5.668 25.755a.451.451 0 00.509.447h3.007v-.427H6.453v-.289h2.73v-1.128H5.67v.428h2.857v.273H5.668z" fill="#1a1311"/><path data-name="패스 531" d="M16.109 22.865v.959c0 .763-.382 1.658-1.123 1.77l.242.536a1.645 1.645 0 001.26-1.055s.6 1.044 1.349 1.055l.222-.485s-1.187-.262-1.176-1.991v-.871h.957v-.381h-2.649v.381h.917z" fill="#1a1311"/><path data-name="패스 532" d="M10.951 22.312v1.477c0 .764-.274 1.694-1.015 1.806l.242.535a1.676 1.676 0 001.188-1.085 1.772 1.772 0 001.421 1.085l.222-.485a1.793 1.793 0 01-1.285-2.025v-1.308z" fill="#1a1311"/><path data-name="패스 533" d="M155.846 7.539l.008 5.062h-3.478v1.462h3.478v8.209h2.762V7.539z" fill="#1a1311"/><path data-name="패스 534" d="M175.604 14.646a2.02 2.02 0 00.854-1.914V9.503c.024-1.034-.779-1.689-1.924-1.692h-11.758v1.415h10.705v4.14c.016.9-.236 1.24-.832 1.28l-.429.011h-10.6v1.793h6.377v5.833h2.955V16.45h6.5v-1.793z" fill="#1a1311"/><path data-name="패스 535" d="M137.053 7.87h-9.76v5.568s.032 1.219 1.589 1.219h8.187v-1.6l-7.254.005V9.338l7.239-.005z" fill="#1a1311"/><path data-name="패스 536" d="M143.448 10.167h-2.261v-2.6h-2.783v7.463h2.784v-3.4h2.261z" fill="#1a1311"/><path data-name="패스 537" d="M127.843 20.754a1.71 1.71 0 001.929 1.7h11.4v-1.623H130.82v-1.1h10.352v-4.272H127.85v1.619h10.833v1.038h-10.84z" fill="#1a1311"/><path data-name="패스 538" d="M146.834 7.699v5.6c0 2.894-1.035 6.423-3.846 6.847l.917 2.028s2.862-.366 4.5-4.113a6.715 6.715 0 005.393 4.113l.84-1.838s-5.177-1.04-4.87-7.684V7.699z" fill="#1a1311"/><path data-name="패스 539" d="M101.797 7.545v2.588h-1.86v1.426h1.86v.81h-1.865v1.394l1.87.012v2.2h2.711v-8.43z" fill="#1a1311"/><path data-name="패스 540" d="M104.51 22.347V16.73H91.296v1.769h10.312v3.848z" fill="#1a1311"/><path data-name="패스 541" d="M94.827 7.757a4.418 4.418 0 00-4.611 4.194 4.633 4.633 0 009.224 0 4.419 4.419 0 00-4.613-4.194m-.012 6.889c-1.106 0-2-1.2-2-2.675s.9-2.675 2-2.675 2 1.2 2 2.675-.9 2.675-2 2.675" fill="#1a1311"/><path data-name="패스 542" d="M117.844 7.514v14.987h2.685V7.514z" fill="#1a1311"/><path data-name="패스 543" d="M109.258 7.712v6.068c0 2.815-1.006 6.244-3.739 6.658l.892 1.975s2.784-.356 4.378-4a6.53 6.53 0 005.24 4l.817-1.788s-5.033-1.009-4.735-7.471V7.712z" fill="#1a1311"/><path data-name="패스 544" d="M87.378 10.633V7.415h-2.86v5.892h-2.593a1.938 1.938 0 00.735-1.766V9.305c.024-.988-.745-1.613-1.838-1.616h-7.943v1.462h6.935v2.49l-.05.5c.013.688 0 .891-.446 1.17h-1.493v-2.075H75v2.071h-2.945v1.714h12.463v.88h2.855v-3.857h1.9v-1.411z" fill="#1a1311"/><path data-name="패스 545" d="M80.141 15.466c-4.483 0-7.107 1.6-7.107 3.569s3.064 3.57 6.843 3.57 6.844-1.6 6.844-3.57-2.8-3.569-6.58-3.569m-.255 5.319c-2.174 0-3.937-.784-3.937-1.75s1.762-1.746 3.937-1.746 3.936.783 3.936 1.75-1.763 1.75-3.936 1.75" fill="#1a1311"/><path data-name="패스 546" d="M69.253 14.135a1.935 1.935 0 00.82-1.836V9.408c.024-.99-.746-1.618-1.843-1.621H56.801v1.356h10.417v3.766c.015.861-.226 1.188-.8 1.227l-.413.011H55.691v1.72h6.266v6.371h2.834v-6.372h6.355l-.022-1.742z" fill="#1a1311"/><path data-name="패스 547" d="M51.945 7.508v5.92h-1.027v-5.92h-2.457v14.81h2.457v-7.475h1.027v7.48h2.458V7.508z" fill="#1a1311"/><path data-name="패스 548" d="M39.568 8.294v11.61a1.63 1.63 0 001.839 1.617h5.777v-1.75h-4.842l.03-11.477z" fill="#1a1311"/><path data-name="사각형 168" fill="#1a1311" d="M40.238 8.283h6.955v1.753h-6.955z"/></g></g></svg>