<svg data-name="그룹 121" xmlns="http://www.w3.org/2000/svg" xmlns:xlink="http://www.w3.org/1999/xlink" width="176.932" height="25.07"><defs><clipPath id="b"><path data-name="사각형 119" fill="none" d="M0 0h176.932v25.069H0z"/></clipPath><clipPath id="c"><path data-name="패스 197" d="M25.729 3.546a12.962 12.962 0 00-3.135 8.985q0 5.866 3.241 9.187a11.24 11.24 0 008.418 3.322 11.882 11.882 0 005.612-1.281v1.271h5.016v-8.814h-.007l.008-.046h-6.008c-.616 2.81-2.126 4.23-4.554 4.23a4.394 4.394 0 01-3.638-1.625q-1.3-1.624-1.3-6.191 0-7.906 4.791-7.9c2.625 0 4.034 1.541 4.264 4.579h6.413c-.008-.06-.019-.12-.028-.18V.067H39.81v1.105A12.3 12.3 0 0034.293.045a10.9 10.9 0 00-8.564 3.5" transform="translate(-22.594 -.045)" fill="none"/></clipPath><clipPath id="d"><path data-name="패스 198" d="M59.881.038V5.05H61.1v10.671a8.561 8.561 0 01-.343 2.823 2.709 2.709 0 01-1.37 1.439 4.506 4.506 0 01-1.022.369 9.374 9.374 0 01-1.013.055 5.506 5.506 0 01-2.539-.532 2.706 2.706 0 01-1.38-1.439 8.538 8.538 0 01-.344-2.823V5.066h1.276V.05h-9.147v5.016h1.412v10.548a11.063 11.063 0 001.08 5.456 7.09 7.09 0 003.249 2.877 11.1 11.1 0 003.4.878 18.43 18.43 0 003.061.24 13.874 13.874 0 005.8-1.013 7.04 7.04 0 003.23-2.874 11.123 11.123 0 001.075-5.458V5.05h1.353V.038z" transform="translate(-45.218 -.038)" fill="none"/></clipPath><clipPath id="f"><path data-name="패스 199" d="M6.843 4.654h4.1a4.221 4.221 0 013.427 1.623q1.275 1.629 1.273 6.208 0 7.928-4.68 7.927c-.056 0-.108-.006-.161-.007H6.843zM10.88 0c-.208 0-.412.007-.617.014H.022v5.15h1.795v14.779H0v5.124h10.96a10.49 10.49 0 008.249-3.511 13.194 13.194 0 003.064-9.008q0-5.884-3.165-9.212A10.842 10.842 0 0010.88 0z" fill="none"/></clipPath><radialGradient id="a" cx=".347" cy="-1.218" r="1.872" gradientUnits="objectBoundingBox"><stop offset="0" stop-color="#00adec"/><stop offset="1" stop-color="#001976"/></radialGradient><radialGradient id="e" cx="-.04" cy="-1.823" r="1.804" xlink:href="#a"/><radialGradient id="g" cx=".734" cy="-.545" r="1.87" xlink:href="#a"/></defs><g data-name="그룹 114"><g data-name="그룹 113" clip-path="url(#b)" fill="#302d2c" transform="translate(0 .001)"><path data-name="패스 160" d="M87.368 5.227v.1h-.883V.29h-2.411v.259a.791.791 0 01.729.787v6.807a2.077 2.077 0 01-.65.255l-.912.19-1.729.2a1.165 1.165 0 01-.362-.022c-.09-.027-.133-.168-.164-.427V2.202h2.7V1.15h-5.282v.261a.791.791 0 01.727.788v6.637c0 .775.242 1.186.72 1.238a5.185 5.185 0 001.382-.033l2.055-.43a7.95 7.95 0 00.819-.3 2.577 2.577 0 00.7-.418v5.168h1.682v-7.68h.883v7.684H89.1V.29h-1.732z"/><path data-name="패스 161" d="M149.236 5.227v.1h-.884V.29h-2.409v.259a.794.794 0 01.726.787v6.807a2.081 2.081 0 01-.649.255l-.912.19-1.732.2a1.167 1.167 0 01-.362-.022c-.087-.027-.13-.168-.16-.427V2.202h2.7V1.15h-5.285v.261a.793.793 0 01.729.788v6.637c0 .775.241 1.186.718 1.238a5.2 5.2 0 001.385-.033l2.055-.43a7.912 7.912 0 00.817-.3 2.636 2.636 0 00.7-.418v5.168h1.683v-7.68h.884v7.684h1.729V.29h-1.729z"/><path data-name="패스 162" d="M102.586 8.309V7.261h-2.594a10.183 10.183 0 00.756-2.046 21.319 21.319 0 00.552-3.324 1.138 1.138 0 00-.075-.493.391.391 0 00-.373-.248h-9.287l.638 1.052h7.083c.01.794-.019 2.141-.085 2.976s-.14 1.631-.215 2.083h-8.631l.642 1.048h4.4v5.753h1.854V8.309z"/><path data-name="패스 163" d="M112.707.29h-2.583v.257a.8.8 0 01.729.788v12.73h1.854v-7.6h1.845V5.413h-1.845z"/><path data-name="패스 164" d="M108.892 1.15h-5.827l.7 1.051h3.485a14.686 14.686 0 01-4.774 8.443l.443.536a12.266 12.266 0 003.929-3.527 12.164 12.164 0 002.508-5.714 1 1 0 00-.011-.507q-.071-.265-.453-.282"/><path data-name="패스 165" d="M122.225 5.987h3.726V4.935h-6.548a.988.988 0 01-.534-.1c-.1-.062-.144-.17-.144-.512v-.434h7.047V2.866h-7.047V1.848h7.219V.796h-9.8v.26a.793.793 0 01.728.787v2.739a1.191 1.191 0 00.452 1.106 1.566 1.566 0 00.891.3h2.183v1.081h-5.285l.639 1.048h11.886V7.069h-5.415z"/><path data-name="패스 166" d="M118.996 12.784a.356.356 0 01-.055-.217v-.7h6.283a.523.523 0 00.4-.2.723.723 0 00.167-.48V9.28a.372.372 0 00-.06-.238.277.277 0 00-.218-.07h-9.106l.633 1.052h6.9v.828h-7.583v.259c.49.052.73.3.73.641v.68a2.072 2.072 0 00.261 1.075c.176.294.61.438 1.3.438h7.276v-1.05h-6.736a.278.278 0 01-.192-.106"/><path data-name="패스 167" d="M133.285 7.822a11.975 11.975 0 002.044-.148 2.562 2.562 0 001.417-.7v1.815h1.855V.29h-2.585v.257a.794.794 0 01.729.788v4.692a2.418 2.418 0 01-1.576.672c-.635.046-1.382.072-2.227.072h-1.778a.5.5 0 01-.4-.158.638.638 0 01-.14-.445V4.952h3.463a.526.526 0 00.408-.2.663.663 0 00.181-.463V1.458a.376.376 0 00-.063-.24.285.285 0 00-.22-.069h-6.075l.638 1.051h3.818v1.827h-4.761v.261a.789.789 0 01.727.787v1.3a1.433 1.433 0 00.371 1.127 1.386 1.386 0 00.944.323z"/><path data-name="패스 168" d="M138.353 9.523h-8.592l.642 1.049h6.357v3.492h1.856V9.829a.374.374 0 00-.063-.239.265.265 0 00-.2-.067"/><path data-name="패스 169" d="M165.32 4.404V3.353h-1.843V.289h-2.579v.259a.794.794 0 01.725.788v7.122h1.854V4.404z"/><path data-name="패스 170" d="M163.217 9.226h-8.574l.638 1.049h6.343v3.79h1.854V9.537a.363.363 0 00-.062-.24.242.242 0 00-.2-.071"/><path data-name="패스 171" d="M159.818 4.857a2.868 2.868 0 00-.846-2.023h1.781V1.782h-3.171V.161h-2.588v.261a.79.79 0 01.731.782v.578h-3.559l.64 1.052h1.485a2.868 2.868 0 00-.846 2.023 3.193 3.193 0 006.374 0m-4.35 0c0-1.061.519-1.923 1.162-1.923s1.16.862 1.16 1.923-.518 1.924-1.16 1.924-1.162-.86-1.162-1.924"/><path data-name="패스 172" d="M172.623 11.316v-5.1h-1.684v5.1h-1.189v-5.1h-2.414v.26a.794.794 0 01.73.787v4.053h-3.031l.64 1.051h11.256v-1.051z"/><path data-name="패스 173" d="M173.81 2.201c0 1.157 0 2.613-.056 3.686s-.219 2.757-.375 3.632h.914a18.61 18.61 0 00.985-3.354 28.518 28.518 0 00.548-4.275 1.133 1.133 0 00-.075-.5.424.424 0 00-.387-.243h-9.048l.7 1.051z"/><path data-name="패스 174" d="M105.337 23.763a4.2 4.2 0 01-1.471.266c-1.469 0-2.037-.941-2.037-2.544 0-1.332.394-2.442 1.995-2.442 1.122 0 1.559.488 1.635 1.064h-.857a.794.794 0 00-.843-.724c-.982 0-1.143 1.181-1.143 1.919 0 .807.09 2.392 1.472 2.392a2.13 2.13 0 001.249-.389z"/><path data-name="패스 175" d="M107.562 20.028l.818 2.094h-1.585zm-1.873 3.926h.446l.537-1.492h1.829l.542 1.492h.746l-1.751-4.828h-1.349v.156c.287.044.549.052.549.339a2.988 2.988 0 01-.118.422z"/><path data-name="패스 176" d="M110.927 19.462h-.494c-.567 0-.733.178-.778.7h-.2l.027-1.041h3.674l.029 1.062h-.2c0-.552-.225-.725-.776-.725h-.494v4.491h-.786z"/><path data-name="패스 177" d="M114.112 20.073c0-.571-.045-.633-.718-.7v-.164l1.509-.165v2.224h1.95v-2.142h.788v4.828h-.788v-2.345h-1.95v2.347h-.791z"/><path data-name="패스 178" d="M119.399 21.557c0-.97.087-2.172 1.2-2.172 1.1 0 1.157 1.233 1.157 2.172 0 .919-.044 2.139-1.157 2.139-1.087 0-1.2-1.25-1.2-2.139m1.2 2.473c1.492 0 1.945-.954 1.945-2.473 0-1.545-.453-2.513-1.945-2.513-1.553 0-1.983.968-1.983 2.513s.475 2.473 1.983 2.473"/><path data-name="패스 179" d="M123.574 20.073c0-.6-.02-.611-.719-.7v-.164l1.507-.165v4.032c0 .54 0 .54.482.54h.615c.451 0 .846-.03.846-.7h.2l-.02 1.042h-2.911z"/><path data-name="패스 180" d="M127.465 20.073c0-.6-.024-.611-.717-.7v-.164l1.5-.165v4.91h-.786z"/><path data-name="패스 181" d="M132.754 23.763a4.243 4.243 0 01-1.475.266c-1.469 0-2.035-.941-2.035-2.544 0-1.332.4-2.442 1.995-2.442 1.12 0 1.556.488 1.635 1.064h-.862a.786.786 0 00-.836-.724c-.983 0-1.143 1.181-1.143 1.919 0 .807.087 2.392 1.47 2.392a2.152 2.152 0 001.252-.389z"/><path data-name="패스 182" d="M139.347 22.092c0 .962-.084 1.938-1.7 1.938-1.266 0-1.727-.592-1.727-1.662v-2.3c0-.6-.02-.611-.715-.7v-.159l1.508-.165v2.965c0 .815 0 1.688 1.025 1.688 1.094 0 1.094-.8 1.094-1.522v-3.05h.517z"/><path data-name="패스 183" d="M140.672 20.043c0-.669-.1-.64-.716-.761v-.156h1.511l2.264 3.9h.012v-3.9h.452v4.828h-.69l-2.368-4.082h-.013v4.082h-.452z"/><path data-name="패스 184" d="M145.583 20.073c0-.6-.023-.611-.717-.7v-.164l1.5-.165v4.91h-.787z"/><path data-name="패스 185" d="M147.694 20.043c-.23-.653-.3-.653-.867-.761v-.156h1.392l1.4 3.929h.015l1.37-3.929h.465l-1.75 4.828h-.625z"/><path data-name="패스 186" d="M152.498 20.101c0-.712-.025-.712-.683-.819v-.157h3.437l.024 1.062h-.2c0-.575-.3-.725-.775-.725h-.561c-.358 0-.454.028-.454.373v1.425h.872c.492 0 .547-.314.59-.549h.2v1.506h-.2c0-.389-.159-.621-.59-.621h-.872v1.6c0 .4.1.417.454.417h.8c.41 0 .6-.144.649-.7h.2l-.019 1.041h-2.863z"/><path data-name="패스 187" d="M157.314 20.109c0-.515 0-.646.481-.646.6 0 1.046.214 1.046.988 0 .806-.652.936-1.12.936h-.407zm-.79 3.844h.79v-2.23h.444l1.272 2.23h.824l-1.319-2.36a1.124 1.124 0 001.1-1.186c0-1.282-1.485-1.282-2.022-1.282h-1.768v.156c.67.108.683.108.683.82z"/><path data-name="패스 188" d="M163.166 19.709a3.172 3.172 0 00-1.284-.322.641.641 0 00-.691.692c0 1.106 2.334 1 2.334 2.544 0 1.024-.811 1.41-1.8 1.41a5.328 5.328 0 01-1.253-.187v-.577a3.008 3.008 0 001.369.43.787.787 0 00.9-.842c0-1.161-2.33-1.053-2.33-2.568 0-.789.6-1.242 1.61-1.242a6.026 6.026 0 011.151.133z"/><path data-name="패스 189" d="M164.57 20.073c0-.6-.02-.611-.719-.7v-.164l1.507-.165v4.91h-.788z"/><path data-name="패스 190" d="M167.474 19.462h-.49c-.569 0-.732.178-.777.7h-.2l.024-1.041h3.673l.032 1.062h-.2c0-.552-.228-.725-.78-.725h-.491v4.491h-.791z"/><path data-name="패스 191" d="M171.715 21.702l-1.156-1.938a.838.838 0 00-.79-.481v-.157h1.339l1.215 2.115 1.255-2.115h.462l-1.535 2.576v2.252h-.791z"/><path data-name="패스 192" d="M79.915 19.9c0-.333.168-.385.585-.385 1.351 0 1.5.814 1.5 2.08 0 1.451-.288 2.074-1.593 2.074-.492 0-.492-.2-.492-.475zm-.8 4.105h1.07c1.4 0 2.6-.158 2.6-2.427 0-2.027-1-2.4-2.36-2.4h-1.984v.158c.662.106.678.106.678.818z"/><path data-name="패스 193" d="M84.97 20.083l.819 2.092h-1.593zm-1.874 3.923h.446l.538-1.491h1.83l.54 1.491h.746l-1.755-4.826h-1.345v.158c.29.042.551.05.551.335a2.711 2.711 0 01-.122.423z"/><path data-name="패스 194" d="M87.898 20.155c0-.712-.023-.712-.686-.817v-.159h3.441l.02 1.061h-.2c0-.576-.3-.725-.775-.725h-.558c-.361 0-.454.028-.454.373v1.428h.869c.5 0 .546-.316.589-.551h.2v1.506h-.2c0-.387-.155-.619-.589-.619h-.868v1.6c0 .4.093.418.454.418h.793c.41 0 .6-.143.648-.7h.2l-.02 1.039h-2.864z"/><path data-name="패스 195" d="M95.149 23.789a5.486 5.486 0 01-1.616.3c-1.554 0-2.048-1-2.048-2.569 0-1.42.436-2.414 2.016-2.414 1.066 0 1.535.491 1.592 1.061h-.862a.787.787 0 00-.832-.724c-1.027 0-1.128 1.2-1.128 2.134 0 1.187.3 2.179 1.423 2.179a1.868 1.868 0 00.669-.124v-1.463c0-.646-.1-.631-.72-.751v-.161h1.506z"/><path data-name="패스 196" d="M99.481 22.146c0 .966-.085 1.937-1.706 1.937-1.269 0-1.723-.592-1.723-1.662v-2.3c0-.6-.022-.612-.716-.706v-.158l1.5-.162v2.96c0 .818 0 1.69 1.027 1.69 1.1 0 1.1-.8 1.1-1.524v-3.043h.515z"/></g></g><g data-name="그룹 116"><g data-name="그룹 115" clip-path="url(#c)" transform="translate(24.966 .05)"><path data-name="사각형 120" transform="rotate(-59.264 10.742 18.885)" fill="url(#a)" d="M0 0h32.874v31.931H0z"/></g></g><g data-name="그룹 118"><g data-name="그룹 117" clip-path="url(#d)" transform="translate(49.966 .042)"><path data-name="사각형 121" transform="rotate(-59.264 10.756 18.91)" fill="url(#e)" d="M0 0h33.605v33.129H0z"/></g></g><g data-name="그룹 120"><g data-name="그룹 119" clip-path="url(#f)"><path data-name="사각형 122" transform="rotate(-59.264 10.773 18.938)" fill="url(#g)" d="M0 0h32.928v31.955H0z"/></g></g></svg>