<svg xmlns="http://www.w3.org/2000/svg" width="160" height="37.656"><defs><clipPath id="a"><path data-name="사각형 127" fill="none" d="M0 0h160v37.656H0z"/></clipPath></defs><g data-name="그룹 126"><path data-name="패스 220" d="M106.588 25.79l.278 5.766 18.026-.75-.23-5.525z" fill="#1a1210"/><g data-name="그룹 125"><g data-name="그룹 124" clip-path="url(#a)"><path data-name="패스 221" d="M115.428 11.936a2.654 2.654 0 012.858 2.856 2.858 2.858 0 01-5.716 0 2.669 2.669 0 012.858-2.856m0 11.327c5.538 0 8.477-3.863 8.477-8.471s-2.678-8.47-8.477-8.47c-5.714 0-8.476 3.862-8.476 8.47s2.887 8.471 8.476 8.471" fill="#1a1210"/><path data-name="패스 222" d="M86.038 24.222H80.02v9.54h23.781v-5.343l-17.763.141z" fill="#1a1210"/><path data-name="패스 223" d="M84.073 17.503v-5.155H88.8v4.642a24.01 24.01 0 01-4.727.513m4.727 4.962h5.566V7.005H78.475v15.516a84.362 84.362 0 0010.325-.825z" fill="#1a1210"/><path data-name="사각형 124" fill="#1a1210" d="M96.998 5.927h6.017v20.276h-6.017z"/><path data-name="사각형 125" fill="#1a1210" d="M125.753 5.928h6.017v27.835h-6.017z"/><path data-name="패스 224" d="M153.044 11.698v-4.25h-5.784V5.482h-6.017v1.966h-5.784v4.25s4.892-.3 8.59-.3 9 .3 9 .3" fill="#1a1210"/><path data-name="패스 225" d="M153.983 29.36h-10.959v-1.2h10.958zm-16.976-5.558v10.365h6.017v-.4h10.958v.4h6.017V23.802z" fill="#1a1210"/><path data-name="패스 226" d="M144.186 15.807c1.6 0 2.686.606 2.686 1.449s-1.085 1.45-2.685 1.45-2.684-.606-2.684-1.45 1.084-1.449 2.683-1.449m.066 6.867c5.632 0 8.294-2.471 8.294-5.419s-2.4-5.418-8.294-5.418c-5.812 0-8.294 2.471-8.294 5.418s2.609 5.419 8.294 5.419" fill="#1a1210"/><path data-name="사각형 126" fill="#1a1210" d="M153.982 5.927H160v16.979h-6.018z"/><path data-name="패스 227" d="M49.261 22.3h9.941v1.922h-7.786v5.369l15.839-.3v4.485h6.018v-9.554H65.22V22.3h10.259v-5.189H49.261z" fill="#1a1210"/><path data-name="패스 228" d="M66.594 16.31l5.763-.023a47.2 47.2 0 001.385-9.635H51.52v5.323l16.117-.181a18.674 18.674 0 01-1.043 4.515" fill="#1a1210"/><path data-name="패스 229" d="M12.538 0L0 12.552v25.1h25.119L37.657 25.1V0z" fill="#dc0019"/></g></g></g></svg>