<svg xmlns="http://www.w3.org/2000/svg" width="143.708" height="52.718"><defs><clipPath id="a"><path data-name="사각형 171" fill="none" d="M0 0h143.709v52.718H0z"/></clipPath></defs><g data-name="그룹 167"><g data-name="그룹 166" clip-path="url(#a)"><path data-name="패스 549" d="M78.106 24.143a1.74 1.74 0 10-3.48 0v4.733H70.55v-4.733a1.741 1.741 0 10-3.481 0v16.6a6.885 6.885 0 1011.038 0zm-3.48 8.215v5.91a6.892 6.892 0 00-4.076 0v-5.91zm-2.039 15.89a3.4 3.4 0 113.4-3.4 3.407 3.407 0 01-3.4 3.4" fill="#2f2c2c"/><path data-name="패스 550" d="M95.636 37.244h-.022l-5.2.061-.023-1.437a1.741 1.741 0 10-3.481.055l.023 1.423-5.188.062a1.741 1.741 0 00.02 3.481h.021l13.87-.164a1.74 1.74 0 00-.02-3.48" fill="#2f2c2c"/><path data-name="패스 551" d="M92.405 42.465h-.054l-10.077.119a1.74 1.74 0 10.04 3.48l10.077-.119h.013a1.12 1.12 0 011.118 1.105l.046 3.947a1.741 1.741 0 001.74 1.72h.021a1.741 1.741 0 001.721-1.761l-.046-3.947a4.6 4.6 0 00-4.6-4.545" fill="#2f2c2c"/><path data-name="패스 552" d="M58.564 28.076h-9.485a1.741 1.741 0 100 3.481h9.485a3.057 3.057 0 11-3.057 3.056 1.741 1.741 0 00-3.481 0 6.538 6.538 0 106.538-6.537" fill="#2f2c2c"/><path data-name="패스 553" d="M53.956 26.139a1.869 1.869 0 10-1.868-1.868 1.869 1.869 0 001.868 1.868" fill="#2f2c2c"/><path data-name="패스 554" d="M88.558 27.803a1.873 1.873 0 10-1.895-1.851 1.873 1.873 0 001.895 1.851" fill="#2f2c2c"/><path data-name="패스 555" d="M88.545 33.539h.083a6.942 6.942 0 006.861-7.024l-.062-5.236a1.741 1.741 0 00-3.481.041l.062 5.237a3.462 3.462 0 11-6.923.08l-.062-5.236a1.741 1.741 0 00-3.481.042l.062 5.236a6.95 6.95 0 006.941 6.86" fill="#2f2c2c"/><path data-name="패스 556" d="M143.554 26.01a1.917 1.917 0 00-1.917-1.917h-4.622a1.917 1.917 0 000 3.834h2.706v8.7a7.6 7.6 0 00-3.746-.982h-.19a7.583 7.583 0 00.185 15.164h.19a7.588 7.588 0 007.307-6.483 1.889 1.889 0 00.088-.543zm-7.49 20.963h-.1a3.75 3.75 0 01-.089-7.5h.095a3.75 3.75 0 01.09 7.5" fill="#2f2c2c"/><path data-name="패스 557" d="M115.591 37.027h-14.844a1.917 1.917 0 100 3.834h5.5v6.083a1.917 1.917 0 003.834 0v-6.083h5.505a1.917 1.917 0 100-3.834" fill="#2f2c2c"/><path data-name="패스 558" d="M100.21 33.56a1.916 1.916 0 002.67-.466l4.471-6.36a1 1 0 011.634 0l4.47 6.362a1.917 1.917 0 003.138-2.2l-4.471-6.362a4.833 4.833 0 00-7.908 0l-4.47 6.362a1.916 1.916 0 00.466 2.671" fill="#2f2c2c"/><path data-name="패스 559" d="M134.107 33.909a1.918 1.918 0 001.567-3.02l-4.471-6.361a4.833 4.833 0 00-7.908 0l-4.472 6.361a1.92 1.92 0 003.142 2.205l4.472-6.361a1 1 0 011.633 0l4.471 6.361a1.916 1.916 0 001.571.815" fill="#2f2c2c"/><path data-name="패스 560" d="M14.527 38.946h-.168c-3.837 0-8.319-2.047-8.319-7.816a2.279 2.279 0 014.558 0c0 .876 0 3.176 3.568 3.256a3.706 3.706 0 003.1-3.75 3.765 3.765 0 00-3.4-3.675H2.279a2.279 2.279 0 010-4.558l12.055.018c2.591.324 7.494 2.458 7.494 8.215a8.275 8.275 0 01-7.135 8.286z" fill="#128dc8"/><path data-name="패스 561" d="M10.576 18.599A2.276 2.276 0 118.3 16.323a2.276 2.276 0 012.276 2.276" fill="#128dc8"/><path data-name="패스 562" d="M35.841 29.379a2.276 2.276 0 11-2.276-2.276 2.275 2.275 0 012.276 2.276" fill="#1d8a80"/><path data-name="패스 563" d="M33.565 39.257a9.028 9.028 0 01-9.017-9.017v-6.346a2.279 2.279 0 114.558 0v6.345a4.459 4.459 0 108.917 0v-6.345a2.279 2.279 0 114.558 0v6.345a9.026 9.026 0 01-9.016 9.017" fill="#1d8a80"/><path data-name="패스 564" d="M19.666 52.639a2.3 2.3 0 01-1.8-.872l-4.21-5.317a1.451 1.451 0 00-2.32 0l-4.21 5.317a2.3 2.3 0 11-3.6-2.853l4.21-5.318a6.017 6.017 0 019.527 0l4.203 5.318a2.3 2.3 0 01-1.8 3.725" fill="#85ac16"/><path data-name="패스 565" d="M40.977 52.639a2.3 2.3 0 01-1.808-.872l-4.218-5.317a1.456 1.456 0 00-2.325 0l-4.22 5.317a2.3 2.3 0 01-3.61-2.853l4.22-5.318a6.036 6.036 0 019.546 0l4.218 5.318a2.3 2.3 0 01-1.8 3.725" fill="#d3cd06"/><path data-name="패스 566" d="M38.581 5.655h-7.618a.708.708 0 00-.561.207.8.8 0 00-.181.552.856.856 0 00.173.528.626.626 0 00.536.231h3.033v.676a.516.516 0 00.265.511 1.232 1.232 0 00.561.133 1.144 1.144 0 00.577-.141.6.6 0 00.247-.569v-.61h3a.627.627 0 00.536-.231.856.856 0 00.173-.528.805.805 0 00-.182-.552.707.707 0 00-.56-.207" fill="#128dc8"/><path data-name="패스 567" d="M36.704 8.969h-3.795a.917.917 0 00-.593.213.841.841 0 00-.264.693v3.064a.851.851 0 00.272.709.927.927 0 00.585.213h3.795a.9.9 0 00.594-.222.868.868 0 00.265-.7V9.876a.843.843 0 00-.265-.693.918.918 0 00-.594-.214m-.725 3.132a.212.212 0 01-.115.207.626.626 0 01-.28.057h-1.55a.62.62 0 01-.28-.057.211.211 0 01-.116-.207v-1.253q0-.247.116-.322a.515.515 0 01.28-.074h1.55a.52.52 0 01.28.074.363.363 0 01.115.322z" fill="#128dc8"/><path data-name="패스 568" d="M32.563 3.445h-.231q-.643 0-.642.726a.832.832 0 00.156.518.571.571 0 00.487.206h4.881a.658.658 0 00.535-.206.8.8 0 00.174-.535q0-.709-.677-.709h-.347a.16.16 0 01-.182-.182v-1.6a.285.285 0 01.025-.132c.017-.033.063-.05.14-.05h.33a.689.689 0 00.535-.19.742.742 0 00.174-.52.874.874 0 00-.174-.552.6.6 0 00-.5-.222h-4.916a.552.552 0 00-.487.222.938.938 0 00-.155.555.793.793 0 00.156.52.6.6 0 00.487.19h.247c.077 0 .123.017.141.05a.3.3 0 01.025.132v1.6a.16.16 0 01-.181.182m1.781-1.814a.131.131 0 01.148-.149h.528c.088 0 .132.05.132.149v1.63c0 .121-.044.182-.132.182h-.532c-.1 0-.148-.06-.148-.182z" fill="#128dc8"/><path data-name="패스 569" d="M46.874 2.373a.79.79 0 00-.808.808.67.67 0 00.124.381 1.237 1.237 0 00.3.312v.66l-.619.066a2.42 2.42 0 00-.437.083.53.53 0 00-.288.3 1.089 1.089 0 00-.091.43.95.95 0 00.1.428.485.485 0 00.379.247 2.805 2.805 0 00.957 0v.89c-.22.021-.426.044-.619.066a2.308 2.308 0 00-.437.083.529.529 0 00-.288.3 1.1 1.1 0 00-.091.43.949.949 0 00.1.429.481.481 0 00.379.247 2.772 2.772 0 00.957 0v.857a.522.522 0 00.239.48 1.155 1.155 0 00.553.163.838.838 0 00.569-.163.628.628 0 00.238-.539V3.446a1.776 1.776 0 00-.412-.751 1.046 1.046 0 00-.807-.322" fill="#128dc8"/><path data-name="패스 570" d="M43.684 8.111a4.119 4.119 0 00.771-1.435 5.813 5.813 0 00.247-1.714 1.574 1.574 0 00-.181-.85.8.8 0 00-.709-.271h-3.5a.634.634 0 00-.494.2.774.774 0 00-.182.544.874.874 0 00.182.569.6.6 0 00.494.222h2.49c.132 0 .215.023.248.066a.275.275 0 01.032.2 2.972 2.972 0 01-.857 1.755 3.252 3.252 0 01-2.011.883.567.567 0 00-.487.3.83.83 0 00-.091.536q.115.611.859.544a5.032 5.032 0 001.879-.511 4.207 4.207 0 001.311-1.039" fill="#128dc8"/><path data-name="패스 571" d="M46.331 10.7h-3.825a.794.794 0 00-.561.2.748.748 0 00-.215.577.854.854 0 00.074.379.6.6 0 00.446.338 1.523 1.523 0 00.255.025h3c.186 0 .28.109.28.329v2.011a.845.845 0 00.182.6.816.816 0 00.61.19q.824 0 .825-.792v-2.67a1.2 1.2 0 00-.3-.907 1.085 1.085 0 00-.775-.28" fill="#128dc8"/><path data-name="패스 572" d="M55.893 2.843V8.35a.52.52 0 00.239.479 1.139 1.139 0 00.552.165.839.839 0 00.569-.165.623.623 0 00.239-.528V2.417a1.756 1.756 0 00-.412-.75 1.043 1.043 0 00-.807-.322.787.787 0 00-.807.808.67.67 0 00.123.379 1.257 1.257 0 00.306.313" fill="#128dc8"/><path data-name="패스 573" d="M51.804 8.218a3.937 3.937 0 00.924-.116 2.616 2.616 0 00.874-.386 2.355 2.355 0 00.668-.717 2.194 2.194 0 00.292-1.105 2.688 2.688 0 00-.527-1.781 2.463 2.463 0 00-1.582-.906 1.054 1.054 0 00-.248-.577.535.535 0 00-.363-.149.472.472 0 00-.363.166 1.125 1.125 0 00-.213.56 2.616 2.616 0 00-1.089.388 2.385 2.385 0 00-.676.667 2.51 2.51 0 00-.345.792 3.277 3.277 0 00-.1.758 2.86 2.86 0 00.131.841 2.009 2.009 0 00.454.775 2.422 2.422 0 00.849.569 3.389 3.389 0 001.318.223m-1.1-3.133a1.1 1.1 0 01.355-.354 1.156 1.156 0 01.429-.157 2.646 2.646 0 01.354-.032 1.282 1.282 0 01.866.3 1.023 1.023 0 01.35.819 1.055 1.055 0 01-.354.857 1.382 1.382 0 01-.916.3 1.534 1.534 0 01-.857-.247.963.963 0 01-.38-.874 1.115 1.115 0 01.149-.61" fill="#128dc8"/><path data-name="패스 574" d="M55.877 10.033a.935.935 0 00-.355-.338.819.819 0 00-.354-.091.807.807 0 00-.71.412l-.676 1.055-.56-.89a5.865 5.865 0 00-.306-.379.612.612 0 00-.487-.2.842.842 0 00-.387.107.833.833 0 00-.339.337l-1.78 2.754a.747.747 0 00-.123.6.677.677 0 00.338.438.6.6 0 00.593.041 1.218 1.218 0 00.461-.4l1.122-1.683c.042-.076.093-.115.148-.115s.1.038.148.115l.38.544a.188.188 0 01.024.107.145.145 0 01-.04.074l-.182.28a1.519 1.519 0 00-.141.3 1.442 1.442 0 00-.074.337.7.7 0 00.041.322.434.434 0 00.222.231.78.78 0 00.619.066 1 1 0 00.5-.429l1.055-1.715c.077-.12.135-.172.173-.156a.52.52 0 01.157.156l1.055 1.551a1.289 1.289 0 00.536.462.585.585 0 00.569-.033.618.618 0 00.346-.553 1.11 1.11 0 00-.2-.585z" fill="#128dc8"/><path data-name="패스 575" d="M60.14 7.208h2.63a.736.736 0 00.517-.188.7.7 0 00.209-.539.761.761 0 00-.071-.346.594.594 0 00-.192-.231.63.63 0 00-.255-.108 1.292 1.292 0 00-.208-.019l-2.056.018a.142.142 0 01-.006-.05V4.022a.758.758 0 00-.179-.547.741.741 0 00-.56-.192.682.682 0 00-.761.739v2.177a1.009 1.009 0 00.265.764.937.937 0 00.667.246" fill="#128dc8"/><path data-name="패스 576" d="M63.415 11.344a.623.623 0 00-.253-.107 1.25 1.25 0 00-.211-.019l-2.055.017a.135.135 0 01-.006-.049v-1.043a.771.771 0 00-.178-.548.743.743 0 00-.56-.19.683.683 0 00-.762.739v1.5a1.009 1.009 0 00.265.765.932.932 0 00.666.245h2.63a.738.738 0 00.518-.187.7.7 0 00.209-.539.78.78 0 00-.071-.349.605.605 0 00-.192-.229" fill="#128dc8"/><path data-name="패스 577" d="M63.96 7.749h-5.236a.672.672 0 00-.532.208.74.74 0 00-.173.508.782.782 0 00.158.479.619.619 0 00.524.236h5.282a.617.617 0 00.52-.236.778.778 0 00.158-.479.739.739 0 00-.173-.508.672.672 0 00-.532-.208" fill="#128dc8"/><path data-name="패스 578" d="M69.636 3.254a.612.612 0 00-.28-.322.807.807 0 00-.363-.091.619.619 0 00-.462.141 1.007 1.007 0 00-.2.288l-1.929 4.24a.927.927 0 00-.1.66.685.685 0 00.428.428.821.821 0 00.594.042.714.714 0 00.461-.438l1.006-2.308c.044-.1.1-.148.165-.148s.11.05.165.148l1.006 2.292a.839.839 0 00.387.444.8.8 0 00.652-.016.644.644 0 00.412-.453.972.972 0 00-.05-.635z" fill="#128dc8"/><path data-name="패스 579" d="M76.174 4.987a.5.5 0 00-.371-.247 3.6 3.6 0 00-.619-.016 6.6 6.6 0 00-.7.065v-2.8a1.766 1.766 0 00-.412-.75 1.046 1.046 0 00-.808-.322.787.787 0 00-.807.809.661.661 0 00.123.379 1.283 1.283 0 00.3.314v7.733a.52.52 0 00.239.478 1.158 1.158 0 00.553.165.845.845 0 00.569-.165.624.624 0 00.239-.528V6.306c.286-.021.564-.044.833-.065a1.932 1.932 0 00.585-.116.5.5 0 00.28-.288 1.054 1.054 0 00.1-.421.883.883 0 00-.107-.428" fill="#128dc8"/><path data-name="패스 580" d="M86.067 5.952a.5.5 0 00-.371-.247 3.643 3.643 0 00-.618-.017 6.584 6.584 0 00-.7.067V3.446a1.777 1.777 0 00-.412-.75 1.047 1.047 0 00-.808-.322.789.789 0 00-.807.808.667.667 0 00.123.38 1.3 1.3 0 00.3.312v5.508a.52.52 0 00.239.478 1.146 1.146 0 00.553.165.837.837 0 00.569-.165.624.624 0 00.239-.528V7.271l.833-.066a1.851 1.851 0 00.585-.115.5.5 0 00.281-.288 1.063 1.063 0 00.1-.421.894.894 0 00-.107-.428" fill="#128dc8"/><path data-name="패스 581" d="M83.139 10.535h-3.793a.921.921 0 00-.593.215.842.842 0 00-.264.693v3.067a.848.848 0 00.272.708.927.927 0 00.585.215h3.793a.9.9 0 00.593-.223.866.866 0 00.265-.7v-3.066a.844.844 0 00-.265-.693.92.92 0 00-.593-.215m-.725 3.134a.208.208 0 01-.115.206.615.615 0 01-.28.058H80.47a.609.609 0 01-.28-.058.207.207 0 01-.115-.206v-1.254c0-.165.038-.272.115-.322a.5.5 0 01.28-.074h1.549a.507.507 0 01.28.074q.115.074.115.322z" fill="#128dc8"/><path data-name="패스 582" d="M79.916 9.596c.17-.011.353-.027.552-.049a1.645 1.645 0 00.626-.182.6.6 0 00.28-.593.651.651 0 00-.206-.552.838.838 0 00-.52-.156q-.61 0-1.22.008c-.407.006-.759 0-1.055-.024a2.208 2.208 0 01-.387-.076.265.265 0 01-.206-.288.3.3 0 01.165-.314 1.466 1.466 0 01.445-.082q.231-.017.47-.017c.158 0 .316-.005.469-.017a3.353 3.353 0 00.923-.14 1.508 1.508 0 00.611-.355 1.369 1.369 0 00.337-.567 2.951 2.951 0 00.124-.8 2.192 2.192 0 00-.329-1.418 1.574 1.574 0 00-1.155-.561 10.217 10.217 0 00-1.36-.074q-.685.009-1.311.058a.84.84 0 00-.461.206.7.7 0 00-.214.52.752.752 0 00.181.528.638.638 0 00.495.2c.363 0 .717 0 1.064.009s.678.014 1 .024a.792.792 0 01.4.1.4.4 0 01.173.379.365.365 0 01-.132.322 1.172 1.172 0 01-.51.123 4.069 4.069 0 01-.314.017h-.3a6.148 6.148 0 00-1.047.107 1.842 1.842 0 00-.726.306 1.273 1.273 0 00-.428.586 2.638 2.638 0 00-.141.931 1.549 1.549 0 00.33 1.063 1.87 1.87 0 00.824.536 4.066 4.066 0 001.039.2c.363.023.687.038.972.049a4.029 4.029 0 00.537 0" fill="#128dc8"/><path data-name="패스 583" d="M92.901 3.507a.841.841 0 00-.552.2.707.707 0 00-.239.577v.957a.4.4 0 01-.05.239.235.235 0 01-.182.057h-1.253a.212.212 0 01-.141-.049.289.289 0 01-.058-.215v-.678a.91.91 0 00-.1-.413 1.085 1.085 0 00-.272-.345 1.483 1.483 0 00-.386-.24 1.112 1.112 0 00-.43-.089.783.783 0 00-.577.213.761.761 0 00-.214.561.726.726 0 00.107.388 1.077 1.077 0 00.29.3v3.874a.675.675 0 00.18.487.652.652 0 00.495.19h3.5a.722.722 0 00.478-.164.586.586 0 00.2-.479V4.265a.741.741 0 00-.214-.544.786.786 0 00-.577-.213m-.776 4.369a.159.159 0 01-.18.181h-1.32a.159.159 0 01-.181-.181V7.2a.258.258 0 01.049-.19.293.293 0 01.181-.041h1.22a.3.3 0 01.182.041c.033.028.048.091.048.19z" fill="#399228"/><path data-name="패스 584" d="M96.726 1.479a.7.7 0 00-.552.231.831.831 0 00-.206.577.662.662 0 00.123.379 1.248 1.248 0 00.306.314v2.621c-.089 0-.176 0-.264.009s-.176.014-.265.025V3.293a1.769 1.769 0 00-.412-.75 1.048 1.048 0 00-.809-.322.705.705 0 00-.552.231.832.832 0 00-.206.577.661.661 0 00.123.381 1.272 1.272 0 00.3.312v6.645a.527.527 0 00.231.479 1.1 1.1 0 00.544.164.777.777 0 00.552-.164.643.643 0 00.222-.528v-3.27c.088-.011.176-.019.265-.025s.175-.013.264-.025v3.628a.525.525 0 00.231.478 1.083 1.083 0 00.544.164.777.777 0 00.553-.164.643.643 0 00.222-.528V2.548a1.759 1.759 0 00-.412-.75 1.046 1.046 0 00-.808-.322" fill="#399228"/><path data-name="패스 585" d="M106.143 2.975a.791.791 0 00-.807.809.67.67 0 00.123.379 1.273 1.273 0 00.306.314v1.2h-.792a.715.715 0 00-.611.264.924.924 0 00-.2.561.885.885 0 00.19.56.728.728 0 00.618.248h.792v.66h-.792a.713.713 0 00-.611.264.92.92 0 00-.2.56.889.889 0 00.19.561.727.727 0 00.618.247h.792v2.605a.519.519 0 00.238.478 1.151 1.151 0 00.553.165.846.846 0 00.569-.165.623.623 0 00.239-.528V4.048a1.77 1.77 0 00-.413-.751 1.045 1.045 0 00-.808-.322" fill="#399228"/><path data-name="패스 586" d="M101.03 8.762c.154-.011.307-.016.461-.016s.308-.006.463-.017a1.782 1.782 0 001.368-.585 2.339 2.339 0 00.461-1.41 2.766 2.766 0 00-.288-1.493 1.468 1.468 0 00-1.146-.667 12.334 12.334 0 00-1.327-.091c-.435-.005-.86.009-1.278.041a.938.938 0 00-.479.206.672.672 0 00-.231.52.779.779 0 00.182.536.674.674 0 00.495.223h1.047q.5 0 .98.032c.308.022.463.214.463.577a.848.848 0 01-.108.388c-.072.137-.256.217-.552.239-.265.023-.511.038-.742.049a3.536 3.536 0 00-.807.148 1.6 1.6 0 00-.619.355 1.583 1.583 0 00-.4.619 2.749 2.749 0 00-.14.939 1.723 1.723 0 001.7 1.946 8.333 8.333 0 001.146.083c.368 0 .729-.011 1.08-.033a1.4 1.4 0 00.627-.174.627.627 0 00.28-.6.674.674 0 00-.206-.577.871.871 0 00-.52-.148q-.611 0-1.112-.009c-.336 0-.652-.018-.949-.04a.6.6 0 01-.329-.14.458.458 0 01-.148-.371.44.44 0 01.173-.4.9.9 0 01.453-.132" fill="#399228"/><path data-name="패스 587" d="M117.896 6.735a1.035 1.035 0 00.1-.42.885.885 0 00-.107-.429.5.5 0 00-.371-.247 3.731 3.731 0 00-.619-.017 6.928 6.928 0 00-.7.066v-2.8a1.769 1.769 0 00-.412-.75 1.045 1.045 0 00-.807-.322.79.79 0 00-.808.809.67.67 0 00.123.379 1.291 1.291 0 00.306.313v7.73a.52.52 0 00.239.478 1.149 1.149 0 00.552.166.844.844 0 00.569-.166.622.622 0 00.239-.528V7.205q.429-.033.832-.066a1.886 1.886 0 00.585-.115.5.5 0 00.281-.29" fill="#399228"/><path data-name="패스 588" d="M113.181 4.304h-1.039a1.315 1.315 0 01-.231-.017c-.066-.011-.143-.088-.231-.23l-.5-.859a.782.782 0 00-.486-.4.833.833 0 00-.619.133.8.8 0 00-.354.4.484.484 0 00.025.4l.215.379c.054.088.071.141.049.157a.331.331 0 01-.164.025h-1.138a.637.637 0 00-.469.19.846.846 0 00-.19.618.622.622 0 00.181.47.663.663 0 00.479.174h.907a.35.35 0 01.14.025c.039.017-.008.064-.14.14a1.935 1.935 0 00-.742.776 2.233 2.233 0 00-.264 1.071 1.929 1.929 0 00.634 1.509 2.512 2.512 0 001.74.568 3.1 3.1 0 00.923-.132 2.189 2.189 0 00.75-.394 1.847 1.847 0 00.5-.66 2.221 2.221 0 00.181-.923 2.058 2.058 0 00-.3-1.106 2.432 2.432 0 00-.758-.774c-.088-.054-.115-.085-.083-.091a.885.885 0 01.133-.008h.857a.819.819 0 00.462-.157.6.6 0 00.23-.536.757.757 0 00-.19-.593.757.757 0 00-.518-.166m-1.624 3.941a.826.826 0 01-.569.213 1.088 1.088 0 01-.585-.156.593.593 0 01-.257-.552.842.842 0 01.231-.626.825.825 0 01.611-.231.815.815 0 01.807.808.7.7 0 01-.239.544" fill="#399228"/><path data-name="패스 589" d="M122.983 11.292a.69.69 0 00-.281-.118 1.237 1.237 0 00-.221-.021h-2v-1.01a.83.83 0 00-.2-.593.805.805 0 00-.607-.211.749.749 0 00-.827.8v1.5a1.076 1.076 0 00.286.812 1 1 0 00.711.263h2.63a.8.8 0 00.562-.2.765.765 0 00.23-.587.847.847 0 00-.078-.377.666.666 0 00-.211-.253" fill="#399228"/><path data-name="패스 590" d="M123.491 7.685h-5.237a.735.735 0 00-.58.229.808.808 0 00-.19.552.845.845 0 00.171.518.68.68 0 00.575.262h5.283a.679.679 0 00.575-.262.845.845 0 00.171-.518.811.811 0 00-.189-.552.736.736 0 00-.58-.229" fill="#399228"/><path data-name="패스 591" d="M119.67 7.273h2.63a.791.791 0 00.56-.206.757.757 0 00.231-.587.833.833 0 00-.078-.374.669.669 0 00-.493-.374 1.194 1.194 0 00-.221-.021h-2v-1.69a.828.828 0 00-.2-.593.805.805 0 00-.607-.211.749.749 0 00-.826.8v2.181a1.068 1.068 0 00.286.812 1 1 0 00.711.263" fill="#399228"/><path data-name="패스 592" d="M128.986 7.715h3.627a.574.574 0 00.495-.223.9.9 0 00.165-.552.766.766 0 00-.181-.561.631.631 0 00-.462-.181h-3.15q-.379 0-.379-.479V4.533q0-.462.379-.462h3.051a.747.747 0 00.552-.19.878.878 0 00.19-.634.7.7 0 00-.181-.5.748.748 0 00-.561-.189h-3.445a2.16 2.16 0 00-.8.123 1.262 1.262 0 00-.485.329 1.084 1.084 0 00-.247.471 2.2 2.2 0 00-.067.544v2.388a1.417 1.417 0 00.314.906 1.446 1.446 0 001.187.4" fill="#399228"/><path data-name="패스 593" d="M134.194 9.727h-2.971V8.82a.517.517 0 00-.263-.511 1.245 1.245 0 00-.56-.132 1.141 1.141 0 00-.577.141.6.6 0 00-.248.569v.841h-3a.71.71 0 00-.561.206.8.8 0 00-.18.552.855.855 0 00.172.528.628.628 0 00.536.231h7.681a.626.626 0 00.535-.231.852.852 0 00.174-.528.806.806 0 00-.182-.552.709.709 0 00-.56-.206" fill="#399228"/><path data-name="패스 594" d="M138.531 4.286a.6.6 0 00-.281-.321.8.8 0 00-.362-.091.617.617 0 00-.462.141 1.021 1.021 0 00-.2.288l-1.929 4.238a.926.926 0 00-.1.66.687.687 0 00.428.428.816.816 0 00.595.041.71.71 0 00.461-.437l1.006-2.308c.044-.1.1-.148.165-.148s.109.049.164.148l1.006 2.292a.843.843 0 00.387.445.8.8 0 00.652-.017.645.645 0 00.412-.453.965.965 0 00-.05-.634z" fill="#399228"/><path data-name="패스 595" d="M143.296 2.267a1.044 1.044 0 00-.807-.322.791.791 0 00-.808.808.665.665 0 00.124.379 1.27 1.27 0 00.306.314v7.733a.521.521 0 00.238.479 1.158 1.158 0 00.553.164.842.842 0 00.569-.164.623.623 0 00.239-.528V3.017a1.76 1.76 0 00-.413-.75" fill="#399228"/></g></g></svg>