<svg xmlns="http://www.w3.org/2000/svg" width="191.279" height="32.503"><defs><clipPath id="a"><path data-name="사각형 158" fill="none" d="M0 0h191.279v32.503H0z"/></clipPath></defs><g data-name="그룹 163"><g data-name="그룹 162" clip-path="url(#a)"><path data-name="패스 508" d="M49.775 27.634a11.142 11.142 0 01-2.138-.194 6.717 6.717 0 01-1.771-.584 3.443 3.443 0 01-1.2-.973 2.22 2.22 0 01-.443-1.377v-.558a2.222 2.222 0 01.342-1.223 3.006 3.006 0 01.935-.913 5.231 5.231 0 011.39-.614 9.49 9.49 0 011.722-.322v-1.244h-6.728v-1.911h15.78v1.909h-6.722v1.243a9.573 9.573 0 011.722.322 5.217 5.217 0 011.388.614 3.024 3.024 0 01.937.913 2.23 2.23 0 01.342 1.223v.558a2.214 2.214 0 01-.444 1.377 3.433 3.433 0 01-1.205.973 6.657 6.657 0 01-1.768.584 11.167 11.167 0 01-2.139.194m-5.853-17.168h11.707v1.909h-4.687v.037a1.378 1.378 0 00.268.88 2.285 2.285 0 00.975.621q1.054.427 2.073.779c.678.235 1.383.468 2.109.7l-.723 1.853c-.776-.259-1.486-.509-2.128-.741s-1.271-.468-1.887-.7c-1.075-.408-1.68-.756-1.816-1.036h-.018c-.15.3-.767.651-1.854 1.07q-.926.353-1.889.7t-2.13.741l-.74-1.887c.725-.235 1.433-.468 2.11-.7s1.371-.494 2.075-.779a2.289 2.289 0 00.973-.621 1.385 1.385 0 00.269-.88v-.037h-4.687zm5.853 12.246a7.016 7.016 0 00-1.2.1 5.576 5.576 0 00-1.037.277 2.282 2.282 0 00-.731.434.784.784 0 00-.277.577v.258a.77.77 0 00.277.573 2.414 2.414 0 00.731.449 4.838 4.838 0 001.037.274 7.7 7.7 0 002.389 0 4.8 4.8 0 001.039-.274 2.4 2.4 0 00.73-.449.771.771 0 00.278-.573v-.258a.785.785 0 00-.278-.577 2.265 2.265 0 00-.73-.434 5.515 5.515 0 00-1.039-.277 6.975 6.975 0 00-1.193-.1" fill="#474746"/><path data-name="패스 509" d="M65.462 22.967v-3.428h2.335v3.428h6.721v1.984h-15.78v-1.984zm1.221-6.519a1.987 1.987 0 01-.618.677q-.472.359-1.177.843c-.505.333-1.094.7-1.759 1.1s-1.445.857-2.334 1.362l-1.15-1.853c.68-.382 1.365-.782 2.057-1.193s1.308-.809 1.852-1.179a5.666 5.666 0 00.919-.736 3.288 3.288 0 00.574-.791 3.438 3.438 0 00.3-.9 5.8 5.8 0 00.092-1.093v-1.739h2.379v1.741a5.71 5.71 0 00.093 1.093 3.332 3.332 0 00.306.9 3.183 3.183 0 00.574.791 5.72 5.72 0 00.916.736q.815.556 1.853 1.179c.69.412 1.376.812 2.054 1.193l-1.128 1.816q-1.332-.759-2.334-1.359t-1.76-1.1c-.47-.322-.843-.6-1.121-.827a1.986 1.986 0 01-.564-.655z" fill="#474746"/><path data-name="패스 510" d="M76.354 21.729q1.39-.837 2.372-1.486a17.688 17.688 0 001.638-1.193 6.8 6.8 0 001.036-1.037 3.921 3.921 0 00.575-.993 4.039 4.039 0 00.251-1.055c.036-.371.053-.783.053-1.238v-1.281h-5.612v-2.017h7.967v3.406a14.191 14.191 0 01-.093 1.687 5.554 5.554 0 01-.362 1.415 5.059 5.059 0 01-.76 1.269 9.389 9.389 0 01-1.265 1.269 21.91 21.91 0 01-1.9 1.411q-1.12.746-2.657 1.691zm13.743 5.386h-2.354V9.891h2.353z" fill="#474746"/><path data-name="패스 511" d="M97.208 18.52a5.359 5.359 0 01-1.916-.315 4.107 4.107 0 01-1.382-.842 3.413 3.413 0 01-.831-1.205 3.667 3.667 0 01-.281-1.415v-.523a3.685 3.685 0 01.281-1.418 3.426 3.426 0 01.831-1.2 4.179 4.179 0 011.382-.846 5.426 5.426 0 011.916-.315 5.52 5.52 0 011.7.243 4.222 4.222 0 011.3.658 3.49 3.49 0 01.88.969 3.775 3.775 0 01.462 1.168h2.871V9.891h2.334v8.87h-2.334V15.43h-2.852a3.6 3.6 0 01-.445 1.193 3.343 3.343 0 01-.881.981 4.386 4.386 0 01-1.306.666 5.442 5.442 0 01-1.722.251m0-6.093a2.775 2.775 0 00-.973.157 1.933 1.933 0 00-.684.427 1.739 1.739 0 00-.4.6 1.838 1.838 0 00-.131.666v.408a1.846 1.846 0 00.131.666 1.739 1.739 0 00.4.6 1.961 1.961 0 00.684.427 3.09 3.09 0 001.947 0 1.943 1.943 0 00.684-.427 1.714 1.714 0 00.4-.6 1.864 1.864 0 00.129-.666v-.408a1.856 1.856 0 00-.129-.666 1.714 1.714 0 00-.4-.6 1.915 1.915 0 00-.684-.427 2.781 2.781 0 00-.974-.157m9.539 7.111v7.593H95.787v-7.593h2.31v1.946h6.336v-1.946zm-2.315 3.874h-6.342v1.793h6.336z" fill="#474746"/><path data-name="패스 512" d="M117.193 27.635a11.133 11.133 0 01-2.138-.2 6.868 6.868 0 01-1.771-.572 3.4 3.4 0 01-1.2-.966 2.19 2.19 0 01-.443-1.362v-.554a2.161 2.161 0 01.4-1.295 3.292 3.292 0 011.1-.947v-2.18h-3.834v-1.891h15.779v1.891h-3.834v2.185a3.283 3.283 0 011.1.947 2.162 2.162 0 01.4 1.295v.554a2.185 2.185 0 01-.444 1.362 3.385 3.385 0 01-1.205.966 6.807 6.807 0 01-1.768.572 11.166 11.166 0 01-2.139.2m0-10.761a11.376 11.376 0 01-2.277-.212 6.8 6.8 0 01-1.789-.61 3.292 3.292 0 01-1.165-.992 2.313 2.313 0 01-.418-1.374v-.441a2.313 2.313 0 01.418-1.374 3.243 3.243 0 011.165-.988 6.658 6.658 0 011.789-.614 12.248 12.248 0 014.553 0 6.626 6.626 0 011.788.614 3.234 3.234 0 011.167.988 2.32 2.32 0 01.418 1.374v.441a2.32 2.32 0 01-.418 1.374 3.282 3.282 0 01-1.167.992 6.769 6.769 0 01-1.788.61 11.361 11.361 0 01-2.277.212m0-4.928a8.614 8.614 0 00-1.317.1 4.984 4.984 0 00-1.053.289 2.343 2.343 0 00-.7.434.753.753 0 00-.261.546v.3a.756.756 0 00.261.547 2.266 2.266 0 00.7.434 4.984 4.984 0 001.053.289 8.7 8.7 0 002.633 0 5.063 5.063 0 001.054-.289 2.237 2.237 0 00.7-.434.759.759 0 00.26-.547v-.3a.755.755 0 00-.26-.546 2.312 2.312 0 00-.7-.434 5.063 5.063 0 00-1.054-.289 8.614 8.614 0 00-1.317-.1m0 10.834a7.813 7.813 0 00-1.2.094 5.026 5.026 0 00-1.037.27 2.388 2.388 0 00-.731.427.74.74 0 00-.277.564v.259a.748.748 0 00.277.565 2.493 2.493 0 00.731.427 5.1 5.1 0 001.037.266 7.707 7.707 0 002.39 0 5.057 5.057 0 001.038-.266 2.474 2.474 0 00.73-.427.749.749 0 00.278-.565v-.259a.741.741 0 00-.278-.564 2.37 2.37 0 00-.73-.427 4.986 4.986 0 00-1.038-.27 7.79 7.79 0 00-1.194-.094m0-1.886c.309 0 .608.011.9.037s.577.053.861.09v-1.467h-3.518v1.462c.282-.037.571-.067.861-.09s.59-.037.9-.037" fill="#474746"/><path data-name="패스 513" d="M132.473 11.501h3.721v1.928h-9.852v-1.928h3.8V9.648h2.335zm-1.166 8.372a6.9 6.9 0 01-1.75-.2 4.028 4.028 0 01-1.288-.565 2.465 2.465 0 01-.788-.854 2.173 2.173 0 01-.271-1.063v-.557a2.181 2.181 0 01.271-1.063 2.465 2.465 0 01.788-.854 4.005 4.005 0 011.288-.564 7.662 7.662 0 013.5 0 4.065 4.065 0 011.288.564 2.494 2.494 0 01.788.854 2.188 2.188 0 01.266 1.063v.557a2.179 2.179 0 01-.266 1.063 2.494 2.494 0 01-.788.854 4.088 4.088 0 01-1.288.565 6.9 6.9 0 01-1.75.2m8.519.651v6.628h-10.705V20.52h2.3v1.464h6.114V20.52zm-8.519-4.779a2.665 2.665 0 00-1.419.3.857.857 0 00-.472.7v.333a.857.857 0 00.472.7 3.429 3.429 0 002.835 0 .856.856 0 00.471-.7v-.333a.856.856 0 00-.471-.7 2.646 2.646 0 00-1.416-.3m6.224 8.128h-6.112v1.392h6.112zm2.3-10.056h2.262v2.036h-2.262v3.892h-2.334V9.891h2.334z" fill="#474746"/><path data-name="패스 514" d="M150.902 27.634a11.124 11.124 0 01-2.137-.194 6.712 6.712 0 01-1.772-.584 3.443 3.443 0 01-1.2-.973 2.22 2.22 0 01-.443-1.377v-.558a2.222 2.222 0 01.338-1.227 3.006 3.006 0 01.935-.913 5.231 5.231 0 011.39-.614 9.507 9.507 0 011.722-.322v-1.24h-6.724v-1.911h15.777v1.909h-6.723v1.243a9.573 9.573 0 011.722.322 5.217 5.217 0 011.388.614 3.024 3.024 0 01.937.913 2.23 2.23 0 01.342 1.223v.558a2.214 2.214 0 01-.444 1.377 3.438 3.438 0 01-1.2.973 6.677 6.677 0 01-1.769.584 11.167 11.167 0 01-2.139.194m-5.854-17.168h11.709v1.909h-4.687v.037a1.373 1.373 0 00.269.88 2.274 2.274 0 00.974.621q1.054.427 2.073.779c.678.235 1.383.468 2.109.7l-.723 1.853c-.776-.259-1.486-.509-2.128-.741s-1.271-.468-1.887-.7c-1.075-.408-1.68-.756-1.815-1.036h-.019c-.15.3-.767.651-1.854 1.07q-.926.353-1.889.7t-2.131.741l-.739-1.887c.726-.235 1.434-.468 2.11-.7s1.371-.494 2.075-.779a2.283 2.283 0 00.973-.621 1.385 1.385 0 00.269-.88v-.037h-4.689zm5.854 12.246a7.016 7.016 0 00-1.2.1 5.577 5.577 0 00-1.037.277 2.282 2.282 0 00-.731.434.784.784 0 00-.277.577v.258a.77.77 0 00.277.573 2.414 2.414 0 00.731.449 4.838 4.838 0 001.037.274 7.708 7.708 0 002.39 0 4.8 4.8 0 001.038-.274 2.4 2.4 0 00.73-.449.772.772 0 00.279-.573v-.258a.787.787 0 00-.279-.577 2.265 2.265 0 00-.73-.434 5.525 5.525 0 00-1.038-.277 7 7 0 00-1.194-.1" fill="#474746"/><path data-name="패스 515" d="M164.645 19.131a4.807 4.807 0 01-1.851-.333 4.2 4.2 0 01-1.37-.869 3.71 3.71 0 01-.855-1.238 3.791 3.791 0 01-.3-1.467v-.817a3.788 3.788 0 01.3-1.452 3.714 3.714 0 01.855-1.25 4.253 4.253 0 011.37-.872 5.3 5.3 0 013.7 0 4.265 4.265 0 011.37.872 3.7 3.7 0 01.854 1.25 3.752 3.752 0 01.3 1.452v.813a3.755 3.755 0 01-.3 1.467 3.693 3.693 0 01-.854 1.238 4.208 4.208 0 01-1.37.869 4.821 4.821 0 01-1.853.333m0-6.628a2.2 2.2 0 00-.916.176 2.136 2.136 0 00-.676.453 1.849 1.849 0 00-.416.628 1.932 1.932 0 00-.139.7v.707a1.9 1.9 0 00.139.7 1.864 1.864 0 00.416.632 2.136 2.136 0 00.676.453 2.472 2.472 0 001.834 0 2.121 2.121 0 00.675-.453 1.9 1.9 0 00.554-1.333v-.707a1.928 1.928 0 00-.137-.7 1.867 1.867 0 00-.417-.628 2.121 2.121 0 00-.675-.453 2.207 2.207 0 00-.918-.176m3.668 15.131a9.131 9.131 0 01-2.157-.239 5.476 5.476 0 01-1.667-.688 3.33 3.33 0 01-1.074-1.063 2.542 2.542 0 01-.379-1.362v-.779a2.532 2.532 0 01.379-1.359 3.253 3.253 0 011.074-1.063 5.451 5.451 0 011.667-.688 9.837 9.837 0 014.315 0 5.5 5.5 0 011.668.688 3.269 3.269 0 011.073 1.063 2.542 2.542 0 01.38 1.359v.779a2.552 2.552 0 01-.38 1.362 3.348 3.348 0 01-1.073 1.063 5.526 5.526 0 01-1.668.688 9.144 9.144 0 01-2.157.239m0-5.576a4.969 4.969 0 00-1.26.149 3.676 3.676 0 00-.935.378 2.113 2.113 0 00-.585.509.954.954 0 00-.2.558v.483a.934.934 0 00.2.554 2.02 2.02 0 00.585.509 3.639 3.639 0 00.935.381 5.5 5.5 0 002.52 0 3.7 3.7 0 00.935-.381 1.978 1.978 0 00.582-.509.929.929 0 00.2-.554v-.483a.949.949 0 00-.2-.558 2.068 2.068 0 00-.582-.509 3.737 3.737 0 00-.935-.378 4.983 4.983 0 00-1.261-.149m5.223-8.279h2.262v2.046h-2.262v4.259h-2.334V9.89h2.334z" fill="#474746"/><path data-name="패스 516" d="M177.072 22.133h2.284c.709 0 1.38 0 2.01-.018v-1.277a4.68 4.68 0 01-1.381-.427 3.7 3.7 0 01-.972-.684 2.543 2.543 0 01-.573-.854 2.505 2.505 0 01-.186-.943v-.666a2.49 2.49 0 01.26-1.093 2.854 2.854 0 01.788-.965 4.168 4.168 0 011.324-.685 7.026 7.026 0 013.77 0 4.162 4.162 0 011.334.685 2.812 2.812 0 01.786.965 2.464 2.464 0 01.261 1.093v.666a2.543 2.543 0 01-.184.943 2.592 2.592 0 01-.574.854 3.753 3.753 0 01-.973.684 4.674 4.674 0 01-1.362.427v1.238q1.389-.033 2.455-.1t1.935-.157l.167 1.964q-.8.09-1.844.157t-2.409.1c-.906.026-1.933.045-3.073.056s-2.424.019-3.844.019zm4.3-10.389v-1.89h2.315v1.89h3.721v1.961h-9.983v-1.961zm1.147 4.353a3.305 3.305 0 00-.934.119 1.9 1.9 0 00-.649.326 1.329 1.329 0 00-.371.453 1.115 1.115 0 00-.119.49v.221a1.091 1.091 0 00.119.5 1.42 1.42 0 00.371.446 1.892 1.892 0 00.649.322 3.158 3.158 0 00.934.123 2.339 2.339 0 001.576-.445 1.277 1.277 0 00.5-.947v-.221a1.27 1.27 0 00-.5-.943 2.323 2.323 0 00-1.576-.445m8.762 11.018h-2.315V9.891h2.315z" fill="#474746"/><path data-name="패스 517" d="M26.017 8.22c0 4.539-3.091 8.22-6.9 8.22s-6.9-3.68-6.9-8.22S15.301 0 19.113 0s6.9 3.68 6.9 8.22" fill="#7da631"/><path data-name="패스 518" d="M9.848 11.514a4.924 4.924 0 11-4.924-4.922 4.925 4.925 0 014.924 4.922" fill="#7da631"/><path data-name="패스 519" d="M38.226 11.514a4.924 4.924 0 11-4.923-4.922 4.925 4.925 0 014.923 4.922" fill="#7da631"/><path data-name="패스 520" d="M33.302 29.419c0 1.7-6.353 3.084-14.19 3.084S4.925 31.124 4.925 29.419s6.352-3.086 14.185-3.086 14.19 1.384 14.19 3.086" fill="#004385"/><path data-name="패스 521" d="M19.113 24.524c-10.2 0-14.758-5.422-14.945-5.654a.752.752 0 011.163-.953c.042.053 4.331 5.1 13.782 5.1s13.74-5.05 13.781-5.1a.752.752 0 011.163.953c-.188.232-4.74 5.654-14.944 5.654" fill="#7da631"/></g></g></svg>