<svg data-name="그룹 149" xmlns="http://www.w3.org/2000/svg" width="174.537" height="28.964"><defs><clipPath id="a"><path data-name="사각형 147" fill="none" d="M0 0h174.537v28.964H0z"/></clipPath></defs><path data-name="패스 390" d="M78.502 5.147l1.278.473v1.709l-3.865-.007v-.791h-16.4l1.275.539v7.26h15.13v-1.892l3.865.01v2.392l2.956.014V5.147zm-5.554 7.473h-9.221V8.328l9.221.024zm2.967-1.938V9.073h3.865V10.7z" fill="#003288"/><g data-name="그룹 148"><g data-name="그룹 147" clip-path="url(#a)"><path data-name="패스 391" d="M72.91 15.528c-4.817-.009-8.733 1.928-8.739 4.325s3.894 4.347 8.724 4.359 8.734-1.93 8.741-4.327-3.9-4.35-8.727-4.358m4.793 5.494c-.417 1.331-2.881 1.9-5.514 1.26s-4.417-2.245-3.991-3.581 2.887-1.892 5.509-1.261c2.639.649 4.423 2.25 4 3.582" fill="#003288"/><path data-name="패스 392" d="M144.285 9.557h-3.6V5.07l-4.359.012 1.307.48v11.484h-17.925l-1.465 1.848h19.392v5.254l3.053-.009v-12.8h2.473z" fill="#003288"/><path data-name="패스 393" d="M135.21 6.66h-7.623V5.12l-4.33.011 1.319.468v1.1h-6.172l-1.425 1.806 3.26-.026a3.883 3.883 0 00-1.664 3.016c.015 2.642 3.388 4.764 7.547 4.758s7.522-2.169 7.511-4.813a3.829 3.829 0 00-1.68-2.986l1.881-.007zm-5.25 6.116c-.442 1.322-2.53 1.824-4.65 1.116s-3.487-2.361-3.04-3.7c.441-1.326 2.521-1.826 4.661-1.13 2.108.725 3.479 2.381 3.029 3.719" fill="#003288"/><path data-name="패스 394" d="M46.826 5.379v4.922H42.75l1.669-2.28c0-1.769-1.442-1.5-1.442-1.5h-8.981l-1.522 1.794 8.567-.005-9.326 12.966-2 .656h4.531l3.9-5.327h8.68v7.445l2.893.005V4.911h-4.133zm0 9.507l-7.437.013 2.118-2.891h5.32z" fill="#003288"/><path data-name="패스 395" d="M50.191 4.912l1.249.468-.006 18.677h2.9V4.912z" fill="#003288"/><path data-name="패스 396" d="M107.408 4.936l1.322.479v6.15h-2.365V4.936h-4.4l1.32.479v11.864h-10.98V8.32h7.582l.94-1.816H87.911l1.32.488v12.073h14.057v4.991h3.077V13.373h2.365v10.683h3.067V4.936z" fill="#003288"/><path data-name="패스 397" d="M170.494 20.773l-.011-15.7h-20.265l-1.527 1.859h18.653v13.843h-3.479l-.008-9.628h-4.5l1.367.493v9.139h-3.5v-9.636l-4.5-.011 1.359.511v9.133h-6.64l-1.283 1.856h26.971l1.406-1.854z" fill="#003288"/><path data-name="패스 398" d="M11.532 0l-.106.028L0 2.965v5.817L.7 9a1.439 1.439 0 01.477.257 1.812 1.812 0 01.614.8V22.18a3.392 3.392 0 00.143.979c.455 1.559 2.071 2.68 4.823 3.331-.015 0 1.265.356 1.265.356a9.143 9.143 0 011.706.732 5.386 5.386 0 011.364.958l-.006-.015c.042.049.1.1.19.2l.246.242.432-.421a5.437 5.437 0 011.362-.963 9.574 9.574 0 011.733-.738.191.191 0 01-.032 0c.1-.024.379-.1 1.3-.357 2.742-.653 4.351-1.771 4.811-3.33a3.434 3.434 0 00.138-.979V10.016a1.993 1.993 0 01.615-.759A1.449 1.449 0 0122.359 9l.7-.218V2.965z" fill="#fff"/><path data-name="패스 399" d="M11.346 4.26s-.346.43-.574.717a1.129 1.129 0 00.1 1.468c.44.527 2.752 3.282 2.752 3.282l.07.084.066-.084.557-.592a.453.453 0 00-.038-.554s-2.747-3.249-2.907-3.44a.79.79 0 01-.026-.883" fill="#d51a25"/><path data-name="패스 400" d="M13.282 10.478a.453.453 0 00-.038-.55s-2.749-3.252-2.907-3.445a.783.783 0 01-.029-.88s-.349.428-.576.715a1.14 1.14 0 00.1 1.472c.441.521 2.752 3.278 2.752 3.278l.059.073h.021l.058-.073z" fill="#d51a25"/><path data-name="패스 401" d="M9.27 6.946s-.342.426-.575.712a1.144 1.144 0 00.1 1.475c.236.278 1.017 1.21 1.685 2.009h1.616c-.511-.6-2.662-3.143-2.8-3.316a.782.782 0 01-.031-.879" fill="#d51a25"/><path data-name="패스 402" d="M12.743 11.16l.011-.013h-.019z" fill="#d51a25"/><path data-name="패스 403" d="M10.938 24.264s-.672-7-.762-8.043-1.162-1.329-1.162-1.776v-2.824h5.052v2.828c0 .447-1.062.741-1.163 1.776l-.761 8.043a.589.589 0 01-.568.527.6.6 0 01-.636-.527" fill="#fff"/><path data-name="패스 404" d="M9.743 14.099a.709.709 0 00.282.493c.188.2.612.427.65.855.072.832.638 8.152.66 8.407l.016.133c.027.283.073.413.211.413s.157-.186.174-.413l.013-.133c.022-.256.589-7.588.662-8.407.038-.428.459-.655.65-.855a.711.711 0 00.278-.493v-1.784H9.743z" fill="#d51a25"/><path data-name="패스 405" d="M11.532-.001l-.106.027L0 2.964v5.818l.7.217a1.434 1.434 0 01.477.257 1.816 1.816 0 01.614.8V22.18a3.406 3.406 0 00.143.978c.455 1.559 2.071 2.68 4.824 3.332-.016 0 1.265.356 1.265.356a9.143 9.143 0 011.706.732 5.386 5.386 0 011.364.958l-.006-.015c.042.049.1.1.191.2l.245.242.432-.421a5.426 5.426 0 011.362-.963 9.573 9.573 0 011.733-.739.221.221 0 01-.032 0c.1-.025.379-.1 1.3-.357 2.742-.654 4.351-1.772 4.811-3.331a3.433 3.433 0 00.139-.978V10.016a1.991 1.991 0 01.614-.759 1.442 1.442 0 01.477-.258l.7-.218V2.964zm11.1 8.466l-.4.126a2.18 2.18 0 00-1.39 1.424V22.18c0 1.855-1.562 3.167-4.636 3.895l-1.285.359a9.894 9.894 0 00-1.8.772 5.778 5.778 0 00-1.461 1.033l-.132.127-.124-.127a5.893 5.893 0 00-1.46-1.033 9.772 9.772 0 00-1.8-.772l-1.282-.359c-3.077-.728-4.639-2.039-4.639-3.895V10.016A2.177 2.177 0 00.83 8.591l-.4-.126V3.299L11.494.451l.038-.009 11.103 2.857z" fill="#003288"/><path data-name="패스 406" d="M21.486 4.188c-.2-.053-9.995-2.55-10.059-2.565-.07.019-9.862 2.512-10.065 2.565v3.5a3.147 3.147 0 011.811 2.341v12.185c0 1.254 1.276 2.189 3.8 2.785a11.123 11.123 0 014.458 1.993 11.065 11.065 0 014.452-1.993c2.516-.6 3.8-1.532 3.8-2.785V10.031a3.148 3.148 0 011.812-2.341zm-16 19.21c-.786-.315-1.429-.738-1.555-1.311a.36.36 0 01-.023-.2v-1.676l4.905-5c.376.269.654.474.708.911a.384.384 0 01.006.042s.146 1.1.316 2.794zm8.575-8.949c0 .444-1.062.738-1.161 1.774l-.761 8.043a.586.586 0 01-.569.526.606.606 0 01-.637-.526s-.673-7-.765-8.043-1.158-1.331-1.158-1.774v-2.83h5.051zm-1.333-3.3h.023l-.013.01zm7.668-4.031l-5.823 6.641v-2.617h-1.907l-.011.011-.009-.011h-3.27c-1.087-1.288-1.277-1.525-1.47-1.747a1.372 1.372 0 01-.315-1.046 1.868 1.868 0 01.494-.987l3.365-4.058a1.218 1.218 0 00-.03.238c0 .468.477.967.894 1.462 0 0 2.113 2.517 2.16 2.575a1.244 1.244 0 01.41.964l3.585-4.1c.949.286 1.682.5 1.927.565z" fill="#003288"/><path data-name="패스 407" d="M6.681 10.477v1.142H5.94l.3-.532c0-.41-.26-.347-.26-.347H4.342l-.278.417h1.56l-1.7 3.015-.364.153h.826l.711-1.243h1.58v1.73h.529v-4.445h-.755zm0 2.211H5.327l.386-.671h.968z" fill="#fff"/><path data-name="패스 408" d="M7.43 10.37l.23.106v4.342h.528v-4.452z" fill="#fff"/><path data-name="패스 409" d="M18.118 14.378l.247.119v.422h-.755v-.2h-3.213l.251.133v1.677l2.958.008v-.239h.755v.356h.579v-2.285zm-1.09 1.73h-1.8v-.939h1.807zm.578-.242v-.511h.752v.512z" fill="#fff"/><path data-name="패스 410" d="M17.022 16.776c-.884 0-1.6.51-1.6 1.141s.711 1.147 1.594 1.15 1.6-.511 1.6-1.14-.715-1.147-1.594-1.151m.876 1.45c-.074.349-.528.5-1.008.33s-.806-.591-.731-.943.528-.5 1.009-.333.809.594.731.947" fill="#fff"/></g></g></svg>