<svg xmlns="http://www.w3.org/2000/svg" width="160" height="41.893"><defs><clipPath id="a"><path data-name="사각형 118" fill="none" d="M0 0h160v41.893H0z"/></clipPath></defs><g data-name="그룹 112"><path data-name="패스 89" d="M55.87 36.348l-1.25-2.334-.749 1v1.334h-.667v-4.75h.666v2.416l1.833-2.416h.749l-1.416 1.917 1.584 2.834z" fill="#464849"/><path data-name="패스 90" d="M58.866 34.43v1.917H58.2V34.43l-1.333-2.834h.749l.917 2.083.916-2.083h.75z" fill="#464849"/><g data-name="그룹 111"><g data-name="그룹 110" clip-path="url(#a)"><path data-name="패스 91" d="M62.448 36.43a1.554 1.554 0 01-1.583-1.666v-3.166h.664v3.168a.9.9 0 00.916 1 .946.946 0 00.917-1v-3.168h.667v3.168a1.6 1.6 0 01-1.581 1.664" fill="#464849"/><path data-name="패스 92" d="M67.947 36.348l-2.088-3.334v3.334h-.666v-4.75h.666l2 3.333v-3.333h.666v4.751z" fill="#464849"/><path data-name="패스 93" d="M72.445 35.848a1.457 1.457 0 01-1.167.583 1.685 1.685 0 01-1.167-.5c-.416-.5-.416-1-.416-1.917s0-1.5.416-1.917a1.4 1.4 0 011.167-.5 1.618 1.618 0 011.583 1.417h-.666c-.168-.5-.416-.75-.917-.75a.945.945 0 00-.666.25c-.251.25-.251.5-.251 1.5 0 .917 0 1.167.251 1.416a.756.756 0 00.666.334 1 1 0 00.917-1.083v-.251h-.917v-.667h1.583v.75a1.725 1.725 0 01-.416 1.334" fill="#464849"/><path data-name="패스 94" d="M75.694 34.514h-1.083v1.834h-.666v-4.751h1.749a1.361 1.361 0 011.332 1.5 1.335 1.335 0 01-1.332 1.416m-.083-2.25h-1v1.583h1a.663.663 0 00.75-.749c0-.5-.251-.834-.75-.834" fill="#464849"/><path data-name="패스 95" d="M80.613 35.93a1.611 1.611 0 01-2.332 0c-.417-.5-.417-1-.417-1.917s0-1.5.417-1.917a1.608 1.608 0 012.332 0c.416.416.416 1 .416 1.917s0 1.416-.416 1.917m-.5-3.418a1.014 1.014 0 00-1.333 0c-.25.25-.25.5-.25 1.5 0 .917 0 1.167.25 1.416a.832.832 0 001.333 0c.166-.25.25-.5.25-1.416 0-1-.083-1.251-.25-1.5" fill="#464849"/><path data-name="패스 96" d="M84.773 35.93a2.084 2.084 0 01-1.165.5 1.682 1.682 0 01-1.167-.5c-.5-.5-.5-1-.5-1.917s0-1.5.5-1.917a1.4 1.4 0 011.167-.5 1.64 1.64 0 011.165.5c.417.416.417 1 .417 1.917s0 1.416-.417 1.917m-.583-3.418a.648.648 0 00-.583-.25c-.333 0-.584.083-.667.25-.25.25-.333.5-.333 1.5 0 .917.083 1.167.333 1.416.083.251.334.334.667.334a.557.557 0 00.583-.334c.25-.25.334-.5.334-1.416 0-1-.084-1.251-.334-1.5" fill="#464849"/><path data-name="패스 97" d="M88.939 36.348l-1.25-2.334-.749 1v1.334h-.667v-4.75h.667v2.416l1.833-2.416h.832l-1.5 1.917 1.584 2.834z" fill="#464849"/><path data-name="패스 98" d="M94.854 36.348l-2.082-3.334v3.334h-.666v-4.75h.583l2.082 3.332v-3.332h.667v4.751z" fill="#464849"/><path data-name="패스 99" d="M99.27 36.348l-.333-.917h-1.749l-.334.917h-.666l1.583-4.751h.583l1.583 4.751zm-1.166-3.668l-.666 2.084h1.332z" fill="#464849"/><path data-name="패스 100" d="M102.185 32.265v4.084h-.666v-4.084h-1.166v-.667h3.082v.667z" fill="#464849"/><path data-name="사각형 115" fill="#464849" d="M104.268 31.598h.749v4.834h-.749z"/><path data-name="패스 101" d="M108.849 35.93a1.611 1.611 0 01-2.332 0c-.416-.5-.416-1-.416-1.917s0-1.5.416-1.917a1.608 1.608 0 012.332 0c.417.416.417 1 .417 1.917s0 1.416-.417 1.917m-.5-3.418a1.014 1.014 0 00-1.333 0c-.166.25-.25.5-.25 1.5 0 .917.083 1.167.25 1.416a.832.832 0 001.333 0c.25-.25.25-.5.25-1.416 0-1 0-1.251-.25-1.5" fill="#464849"/><path data-name="패스 102" d="M113.099 36.348l-2-3.334v3.334h-.667v-4.75h.583l2 3.333v-3.333h.749v4.751z" fill="#464849"/><path data-name="패스 103" d="M117.514 36.348l-.251-.917h-1.749l-.333.917h-.666l1.583-4.751h.5l1.666 4.751zm-1.17-3.668l-.666 2.084h1.332z" fill="#464849"/><path data-name="패스 104" d="M119.013 36.348v-4.75h.666v4.085h2.167v.666z" fill="#464849"/><path data-name="패스 105" d="M125.845 36.43a1.554 1.554 0 01-1.583-1.666v-3.166h.666v3.168a.9.9 0 00.917 1 .946.946 0 00.916-1v-3.168h.667v3.168a1.554 1.554 0 01-1.583 1.666" fill="#464849"/><path data-name="패스 106" d="M131.339 36.348l-2.083-3.334v3.334h-.666v-4.75h.666l2 3.333v-3.333h.666v4.751z" fill="#464849"/><path data-name="사각형 116" fill="#464849" d="M133.175 31.598h.75v4.834h-.75z"/><path data-name="패스 107" d="M136.59 36.348h-.5l-1.416-4.751h.667l1 3.5 1-3.5h.749z" fill="#464849"/><path data-name="패스 108" d="M138.84 36.348v-4.75h2.833v.667h-2.167v1.416h1.834v.584h-1.834v1.417h2.167v.666z" fill="#464849"/><path data-name="패스 109" d="M145.087 36.348l-.916-2h-.838v2h-.666v-4.751h1.749a1.292 1.292 0 011.332 1.417 1.314 1.314 0 01-.832 1.25l1 2.083zm-.749-4.084h-1v1.5h1a.75.75 0 000-1.5" fill="#464849"/><path data-name="패스 110" d="M148.004 36.43a1.714 1.714 0 01-1.5-.666l.417-.5a1.278 1.278 0 001.165.5c.583 0 .916-.251.916-.751a.724.724 0 00-.249-.5.493.493 0 00-.417-.166l-.583-.083a1.584 1.584 0 01-.832-.417 1.267 1.267 0 01-.334-.834 1.379 1.379 0 011.5-1.416 2.1 2.1 0 011.416.5l-.416.5a1.321 1.321 0 00-1-.416.769.769 0 00-.834.749.64.64 0 00.168.417.718.718 0 00.5.25l.5.083a1.569 1.569 0 01.834.333 1.383 1.383 0 01.416 1 1.479 1.479 0 01-1.666 1.417" fill="#464849"/><path data-name="사각형 117" fill="#464849" d="M150.586 31.598h.75v4.834h-.75z"/><path data-name="패스 111" d="M154.082 32.265v4.084h-.666v-4.084h-1.164v-.667h3.082v.667z" fill="#464849"/><path data-name="패스 112" d="M157.667 34.43v1.917h-.666V34.43l-1.333-2.834h.753l.916 2.083.917-2.083h.749z" fill="#464849"/><path data-name="패스 113" d="M98.604 21.93h6.831v-2.5h-5.832V7.759h5.5V5.176h-8.5v14.837a1.839 1.839 0 002 1.917" fill="#464849"/><path data-name="패스 114" d="M152.752 19.678v-7.585h-3v7.585h-3.249v-7.585h-3v7.585h-4v2.584H160v-2.584z" fill="#464849"/><path data-name="패스 115" d="M92.856 20.678v7h-3v-5.916H75.528v-2.5h7.08v-2.085h-8.163v-2.415h19.577v2.417h-8.414v2.083h5.915a1.333 1.333 0 011.333 1.417" fill="#464849"/><path data-name="패스 116" d="M76.69 13.096h16.165V5.009h-3v1.666H78.526V5.009h-2.915v6.834a1.145 1.145 0 001.079 1.253m13.163-2.5H78.527V9.01h11.329z" fill="#464849"/><path data-name="패스 117" d="M112.516 11.01h-2.833V4.925h-2.916v17.587h2.916v-8.918h2.833v8.918h2.916V4.925h-2.916z" fill="#464849"/><path data-name="패스 118" d="M158.416 7.009v9.169h-3V7.842h-14.827v-2.5h16.078a1.563 1.563 0 011.749 1.667" fill="#464849"/><path data-name="패스 119" d="M135.008 19.595h-15.495v2.584h13.912v5.585h2.916v-7a1.136 1.136 0 00-1.333-1.168m1.333-9.418V4.926h-3v13.17h3v-5.335h2.666v-2.584zm-13.662-1.334a5.187 5.187 0 00-4 4.667c0 2.75 2.582 4.917 5.581 4.917s5.581-2.167 5.581-4.917c0-2.168-1.833-4.168-4.331-4.752v-.667h4.748v-2.5h-4.665v-1.5h-2.916v1.5h-4.245v2.5h4.415v.667zm1.583 2.25a2.535 2.535 0 012.666 2.417 2.534 2.534 0 01-2.666 2.416 2.588 2.588 0 01-2.666-2.416 2.588 2.588 0 012.666-2.417" fill="#464849"/><path data-name="패스 120" d="M71.942 22.179c0-3-3.332-5.417-7.5-5.417s-7.5 2.416-7.5 5.417 3.333 5.419 7.5 5.419 7.5-2.417 7.5-5.419m-7.5 3.085c-2.415 0-4.5-1.334-4.5-3.085 0-1.666 2.083-3.083 4.5-3.083 2.082 0 4.582 1.167 4.582 3.083 0 2-2.5 3.085-4.582 3.085" fill="#464849"/><path data-name="패스 121" d="M62.615 5.18h-9.163v2.329h6.747a4.67 4.67 0 01-.337 1.834c-1.583 4.667-6.749 5.5-6.749 5.5v2.251c10.749-1.5 10.249-11.085 10.249-11.085a.838.838 0 00-.75-.832m6.165-.334V7.18h-4.663v2.579h4.665v1.752h-4.748v2.5h4.748v3h3.083V4.842z" fill="#464849"/><path data-name="패스 122" d="M20.935 41.179a20.247 20.247 0 1120.222-20.233 20.213 20.213 0 01-20.222 20.233m0-41.179a20.947 20.947 0 1020.934 20.946A20.939 20.939 0 0020.935 0" fill="#bc0015"/><path data-name="패스 123" d="M31.374 16.067a2.559 2.559 0 00-.629-.9 2.065 2.065 0 00-2.22-.44.477.477 0 01-.466-.054 1.589 1.589 0 00-2.028.082 8.07 8.07 0 012.877 6.168 8.779 8.779 0 01-.219 1.919 1.55 1.55 0 001.644-1.123.537.537 0 01.356-.33 2.043 2.043 0 001.562-1.645 3.39 3.39 0 00-.028-1.1 2.085 2.085 0 01.193-1.481 2.207 2.207 0 01-1.042-1.1m2.215 1.045a.142.142 0 00-.054.111c-.438.657-.412.849-.33 1.261a3.958 3.958 0 010 1.425 2.988 2.988 0 01-2.023 2.385 2.52 2.52 0 01-1.507 1.425 2.515 2.515 0 01.384 2.027 3.045 3.045 0 01.248 3.153 4.082 4.082 0 01-.85 1.151c-.3.275-.438.413-.493 1.234v.11l-.028.028-.028.054-.027.054v.028l-.055.028-.027.028-.028.027-.054.03-.028.023a.1.1 0 01-.055.028.472.472 0 01-.191.027.168.168 0 01-.11-.027c-.768-.193-.959-.11-1.315.082a3.671 3.671 0 01-1.342.465 3.024 3.024 0 01-2.906-1.205 2.53 2.53 0 01-1.836-1.016 2.545 2.545 0 01-1.835 1.046 3.024 3.024 0 01-2.9 1.205 3.483 3.483 0 01-1.343-.466 1.49 1.49 0 00-1.342-.082.513.513 0 01-.521-.164l-.028-.055-.027-.028c-.028-.054-.028-.135-.055-.191-.028-.822-.165-.959-.465-1.262a3.427 3.427 0 01-.85-1.122 3.041 3.041 0 01.246-3.153 2.426 2.426 0 01.384-2.03 2.444 2.444 0 01-1.509-1.423 3.012 3.012 0 01-2.056-2.388 3.848 3.848 0 01.028-1.425 1.435 1.435 0 00-.33-1.286.563.563 0 01-.082-.3v-.082c0-.028.028-.054.028-.081a.531.531 0 01.274-.275c.768-.3.849-.465 1.042-.851a3.987 3.987 0 01.821-1.178 3 3 0 013.042-.713 2.657 2.657 0 012.081-.275 2.47 2.47 0 01.877-1.864 2.922 2.922 0 011.645-2.686 3.8 3.8 0 011.369-.438c.385-.055.6-.083 1.1-.713h.028c0-.029.028-.055.054-.083h.028c0-.028.028-.028.054-.054h.028l.055-.026h.054l.054-.03h.082l.028.03a.438.438 0 01.246.08c.028.028.055.083.083.11.493.6.711.63 1.1.686a3.783 3.783 0 011.369.438 3.031 3.031 0 011.646 2.686 2.473 2.473 0 01.876 1.864 2.535 2.535 0 012.082.248 3.011 3.011 0 013.069.74 3.721 3.721 0 01.822 1.178c.164.357.274.549 1.014.824.027.028.081.028.109.055a.393.393 0 01.18.27v.027l.028.055v.054a.462.462 0 01-.028.192M20.934 5.95a14.983 14.983 0 1014.962 14.969A14.991 14.991 0 0020.934 5.95m-.027 6.94a7.905 7.905 0 014.276 1.26 1.584 1.584 0 00-.577-1.945.551.551 0 01-.191-.441 2.03 2.03 0 00-1.069-1.974 3.086 3.086 0 00-1.069-.329 2.1 2.1 0 01-1.37-.63 2.092 2.092 0 01-1.342.63 3.1 3.1 0 00-1.07.329 2.135 2.135 0 00-1.1 1.973.461.461 0 01-.164.441 1.55 1.55 0 00-.576 1.919 8.009 8.009 0 014.252-1.233m4.192 7.648l.63-.163.192-.632.383.548h.632l-.384.494.191.63-.6-.219-.521.384v-.659zm-.986-2.822l.629-.194.219-.63.356.548h.658l-.412.522.221.6-.63-.219-.521.383.028-.629zm-.192 9.156a.212.212 0 01-.192.22h-5.617a.213.213 0 01-.192-.22v-.193a.2.2 0 01.192-.22h5.617a.2.2 0 01.192.22zm-6.659-8.144l-.521-.383-.632.219.22-.6-.411-.522h.657l.356-.548.22.63.629.194-.547.383zm-.987 2.853l-.521-.384-.6.219.192-.63-.384-.494h.627l.384-.548.192.632.63.163-.521.384zm1.863 3.947a.188.188 0 01.192-.191h5.179a.187.187 0 01.192.191v.219a.212.212 0 01-.192.22h-5.178a.213.213 0 01-.192-.22zm.3-1.124a.211.211 0 01.22-.191h4.521a.212.212 0 01.22.191v.22a.236.236 0 01-.22.22h-4.518a.235.235 0 01-.22-.22zm.713-8.774l.384-.546.192.629.629.165-.519.385v.656l-.521-.383-.6.22.191-.633-.382-.494zm3.455 2.96a.212.212 0 01.219.192v.219a.235.235 0 01-.219.219h-3.371a.234.234 0 01-.219-.219v-.219a.211.211 0 01.219-.192zm-3.481 4.5h3.59a.189.189 0 01.192.194v.219a.213.213 0 01-.192.22h-3.59a.214.214 0 01-.192-.22v-.219a.189.189 0 01.192-.194m3.481-2.74h-3.371a.235.235 0 01-.219-.219v-.22a.212.212 0 01.219-.193h3.371a.213.213 0 01.219.193v.22a.236.236 0 01-.219.219m-3.233.9v-.22a.211.211 0 01.216-.192h2.66a.21.21 0 01.22.191v.22a.235.235 0 01-.22.22h-2.66a.236.236 0 01-.219-.22m.027.713h3.041a.188.188 0 01.193.192v.219a.212.212 0 01-.193.219H19.4a.212.212 0 01-.192-.219v-.219a.188.188 0 01.192-.192m2.768-6.251l.192-.629.383.546h.63l-.384.494.192.633-.6-.22-.522.383v-.658l-.519-.385zm5.836 5.209a7.111 7.111 0 10-7.1 7.1 7.1 7.1 0 007.1-7.1m-14.549 2.988a1.52 1.52 0 00-.632 1.865.5.5 0 01-.11.466 2.063 2.063 0 00-.273 2.22 3.223 3.223 0 00.657.877 2.279 2.279 0 01.739 1.344 2.137 2.137 0 011.481.274 2.808 2.808 0 001.041.356 2.08 2.08 0 002.027-.959.511.511 0 01.413-.246 1.55 1.55 0 001.591-1.179 8.065 8.065 0 01-6.932-5.018m15.59 1.836a1.538 1.538 0 00-.686-1.891 8.088 8.088 0 01-6.877 5.074 1.521 1.521 0 001.562 1.15.473.473 0 01.412.248 2.087 2.087 0 002.055.959 2.8 2.8 0 001.042-.357 2.121 2.121 0 011.48-.274 2.1 2.1 0 01.713-1.315 3.361 3.361 0 00.685-.9 2.084 2.084 0 00-.275-2.222.433.433 0 01-.109-.466m-15.92-2.878a7.736 7.736 0 01-.246-1.947 8.013 8.013 0 012.9-6.168 1.5 1.5 0 00-1.973-.055.61.61 0 01-.494.055 2.042 2.042 0 00-2.19.412 3.43 3.43 0 00-.659.9 2.022 2.022 0 01-1.013 1.1 2.184 2.184 0 01.192 1.508 2.76 2.76 0 00-.028 1.1 2.078 2.078 0 001.534 1.645.572.572 0 01.384.33 1.544 1.544 0 001.589 1.123" fill="#bc0015"/><path data-name="패스 124" d="M8.385 30.734l-.711 1.727.711-.028.85-.713.41.521-2.795 2.331-.411-.494 1.205-1.039-1.972.108-.521-.6 1.836-.083.9-2.33z" fill="#bc0015"/><path data-name="패스 125" d="M5.865 29.528l1.288-.74.329.576-1.286.74-1.372 1.948-.356-.63.959-1.26-1.588.19-.357-.629z" fill="#bc0015"/><path data-name="패스 126" d="M6.166 26.539a1.22 1.22 0 01-.767 1.618l-2.248.821-.223-.629 2.22-.8a.6.6 0 10-.412-1.122l-2.22.821-.219-.632 2.247-.794a1.2 1.2 0 011.617.713" fill="#bc0015"/><path data-name="패스 127" d="M5.258 22.865l-2 1.673 2.223-.33.111.63-3.617.576-.083-.6 2-1.645-2.191.33-.11-.659 3.591-.546z" fill="#bc0015"/><path data-name="패스 128" d="M4.852 19.576a1.262 1.262 0 01-.055 1.866 1.9 1.9 0 01-1.452.272c-.63-.027-1.1-.027-1.452-.383a1.24 1.24 0 01-.356-.932 1.282 1.282 0 011.205-1.235l-.029.686a.583.583 0 00-.355 1.014c.135.137.3.164 1.013.192.685.028.877 0 1.014-.109a.541.541 0 00.219-.441.568.568 0 00-.192-.466.692.692 0 00-.466-.163h-.137l-.028.6h-.6l.055-1.289h.516a1.549 1.549 0 011.1.384" fill="#bc0015"/><path data-name="패스 129" d="M2.685 16.889l-.137.6.959.193.137-.6a.46.46 0 00-.383-.577.461.461 0 00-.576.385m1.589.3l-.137.658 1.342.275-.163.658-3.535-.8.274-1.289a1.106 1.106 0 011.369-.85 1.071 1.071 0 01.85 1.344" fill="#bc0015"/><path data-name="패스 130" d="M3.975 13.517a.451.451 0 00-.33.3.468.468 0 000 .467c.082.191.246.273.877.547.658.276.821.3 1.013.245a.442.442 0 00.329-.3.544.544 0 000-.466c-.081-.193-.246-.3-.876-.575-.658-.246-.822-.3-1.013-.22m2.465.493a1.227 1.227 0 01-.711 1.7c-.467.165-.878-.028-1.454-.275-.575-.219-1.013-.411-1.205-.849a1.2 1.2 0 01-.027-1.014 1.227 1.227 0 01.739-.687 1.933 1.933 0 011.453.249c.575.245 1.014.412 1.205.877" fill="#bc0015"/><path data-name="패스 131" d="M5.646 10.557a.478.478 0 00-.41.245.562.562 0 00-.055.467c.055.191.164.3.767.685.576.384.74.467.931.438a.648.648 0 00.412-.246.57.57 0 00.055-.467c-.054-.193-.164-.332-.767-.713-.575-.387-.74-.44-.932-.412m2.33.931a1.16 1.16 0 01-.164.987 1.179 1.179 0 01-.849.548c-.493.084-.85-.163-1.4-.522-.521-.329-.9-.574-1.014-1.068a1.249 1.249 0 011.013-1.533c.493-.081.848.166 1.4.524.521.355.9.6 1.013 1.068" fill="#bc0015"/><path data-name="패스 132" d="M10.139 9.596l-1.78-.494.082.685.794.768-.466.466-2.6-2.492.438-.5 1.15 1.1-.331-1.946.575-.6.274 1.838 2.412.629z" fill="#bc0015"/><path data-name="패스 133" d="M13.318 7.293l-2.33-1.207 1.179 1.92-.575.33-1.891-3.1.493-.3 2.3 1.207-1.15-1.919.548-.331 1.917 3.1z" fill="#bc0015"/><path data-name="패스 134" d="M14.523 3.921l.081 1.4.768-.3zm1.644 2.111l-.411-.522-1.123.441.028.657-.632.246-.137-3.838.493-.191 2.439 2.988z" fill="#bc0015"/><path data-name="패스 135" d="M17.756 2.577l.575 2.961-.657.11-.578-2.931-.877.162-.11-.629 2.387-.467.138.63z" fill="#bc0015"/><path data-name="패스 136" d="M19.565 5.375l-.274-3.647.658-.027.273 3.62z" fill="#bc0015"/><path data-name="패스 137" d="M22.525 2.523a.448.448 0 00-.411-.219.523.523 0 00-.44.163c-.137.137-.164.3-.219 1.014-.027.685 0 .85.11 1.013a.485.485 0 00.411.221.5.5 0 00.44-.165c.135-.137.191-.3.219-1.014.055-.686.027-.877-.11-1.013m.356 2.494a1.293 1.293 0 01-1.836-.109 2.109 2.109 0 01-.246-1.482 1.933 1.933 0 01.411-1.425 1.217 1.217 0 01.959-.33 1.069 1.069 0 01.877.44 1.856 1.856 0 01.246 1.481 1.964 1.964 0 01-.411 1.425" fill="#bc0015"/><path data-name="패스 138" d="M25.648 5.977l-.767-2.522-.548 2.166-.63-.163.877-3.51.576.135.767 2.5.548-2.166.629.164-.9 3.539z" fill="#bc0015"/><path data-name="패스 139" d="M28.91 4.496l-.96 1.017.768.356zm-.384 2.661l.082-.657-1.1-.522-.438.494-.63-.3 2.657-2.769.467.248-.412 3.81z" fill="#bc0015"/><path data-name="패스 140" d="M29.319 7.595l2.11-2.961.548.384-1.753 2.468 1.261.877-.356.521z" fill="#bc0015"/><path data-name="패스 141" d="M32.854 10.638a1.217 1.217 0 01.11-1.781l1.781-1.592.437.494-1.753 1.561a.608.608 0 00-.11.9.6.6 0 00.902-.021l1.754-1.561.437.493-1.777 1.589a1.208 1.208 0 01-1.78-.082" fill="#bc0015"/><path data-name="패스 142" d="M35.046 13.736l1.233-2.3-1.918 1.121-.329-.576 3.124-1.836.3.519-1.232 2.278 1.918-1.125.329.575-3.123 1.838z" fill="#bc0015"/><path data-name="패스 143" d="M35.54 14.806l3.371-1.375.246.6-3.343 1.371z" fill="#bc0015"/><path data-name="패스 144" d="M36.363 17.163l-.137-.466 3.206-2.056.191.657-2.109 1.291 2.466.027.191.657z" fill="#bc0015"/><path data-name="패스 145" d="M36.691 18.479l3.617-.384.22 2.222-.632.081-.161-1.562-.849.082.137 1.316-.63.083-.135-1.344-.878.081.165 1.592-.632.053z" fill="#bc0015"/><path data-name="패스 146" d="M39.814 22.675l.055-.634-.959-.081-.055.632a.481.481 0 10.959.083m-3.041.273l1.506-.548.028-.465-1.452-.112.054-.656 3.644.274-.109 1.314a1.047 1.047 0 01-1.179 1.015 1 1 0 01-.931-.683l-1.617.628z" fill="#bc0015"/><path data-name="패스 147" d="M36.362 24.978a1.531 1.531 0 01.795-1.069l.329.521a1.035 1.035 0 00-.493.713c-.11.383 0 .629.274.686a.336.336 0 00.33-.03c.082-.028.138-.11.191-.248l.165-.382a1.118 1.118 0 01.466-.577 1.135 1.135 0 011.532 1.377 1.5 1.5 0 01-.685.959l-.329-.521a.906.906 0 00.41-.6.466.466 0 00-.327-.629.324.324 0 00-.274.027.559.559 0 00-.219.274l-.138.384a1.32 1.32 0 01-.438.548 1.026 1.026 0 01-.822.053 1.116 1.116 0 01-.767-1.478" fill="#bc0015"/><path data-name="패스 148" d="M35.923 26.595l3.371 1.34-.246.6-3.371-1.315z" fill="#bc0015"/><path data-name="패스 149" d="M37.485 30.351l-2.658-1.425.329-.575 2.632 1.425.437-.8.548.3-1.151 2.138-.547-.3z" fill="#bc0015"/><path data-name="패스 150" d="M34.612 31.94l-1.178-.906.383-.547 1.207.9 2.329.494-.438.574-1.562-.381.794 1.4-.437.577z" fill="#bc0015"/><path data-name="패스 151" d="M18.059 39.261l-.33 1.261-.547-.135.274-1.071-2.576-.685.138-.466 1.26.356.11-.384-1.48-.382.11-.441 3.534.933-.109.411-1.507-.384-.11.384 1.069.274a.255.255 0 01.164.329" fill="#bc0015"/><path data-name="패스 152" d="M18.058 37.014l-.055.274-2.055-.522.082-.3zm-2.548.108l2.9.768.383-1.481-.548-.138-.081.3-2.028-.521.081-.3-.547-.137-.3 1.234a.2.2 0 00.138.273" fill="#bc0015"/><path data-name="패스 153" d="M19.783 39.781h1.289v-.465h-1.1v-2.167h1.014v-.494h-1.562v2.77a.327.327 0 00.356.355" fill="#bc0015"/><path data-name="패스 154" d="M22.387 37.753h-.521v-1.124h-.548v3.262h.548v-1.644h.521v1.645h.548v-3.263h-.548z" fill="#bc0015"/><path data-name="패스 155" d="M30.991 36.604l-.685-1.233-.493.274.713 1.234-.548.327-.713-1.234-.466.275.686 1.234-.632.355.246.411 3.315-1.891-.246-.412z" fill="#bc0015"/><path data-name="패스 156" d="M30.744 34.055l.85 1.48-.494.274-.768-1.342-2.388 1.338-.246-.411 2.6-1.482a.308.308 0 01.446.143" fill="#bc0015"/><path data-name="패스 157" d="M24.881 37.206a.458.458 0 01.6.3.464.464 0 01-.356.548.456.456 0 01-.6-.3.464.464 0 01.356-.548m-.383-.359a.969.969 0 00-.494 1.043.992.992 0 001.233.63.973.973 0 00.767-1.151 1 1 0 00-.986-.657l-.028-.112.822-.219-.111-.466-.821.22-.082-.274-.521.139.081.273-.767.193.111.466.795-.22.027.135zm2.521-.382l-.246-.932-.522.135.6 2.359.548-.137-.246-.959.465-.138-.109-.441zm.218 1.755l-2.823.74.138.438 2.494-.632.273 1.016.518-.162-.3-1.26a.231.231 0 00-.3-.139" fill="#bc0015"/><path data-name="패스 158" d="M12.222 38.247c-.412-.192-.658-.6-.521-.878s.6-.355 1.013-.165c.356.165.685.551.521.879s-.657.327-1.013.164m1.506.081a1.24 1.24 0 00-.821-1.533 1.259 1.259 0 00-1.7.326c-.246.5.137 1.18.822 1.508.713.331 1.48.193 1.7-.3" fill="#bc0015"/><path data-name="패스 159" d="M14.578 35.148l-.192.384-.767-.356-.22.412.8.383-.138.3-.822-.384-.191.44.795.356-.22.521.521.22.959-2.029zm-1.069-.438l-1.534-.713-.192.384 1.15.547a2.747 2.747 0 01-.219.275 1.654 1.654 0 01-1.562.384l-.192.383a2.01 2.01 0 002.6-1.07.124.124 0 00-.055-.191" fill="#bc0015"/></g></g></g></svg>