<svg xmlns="http://www.w3.org/2000/svg" width="177.932" height="38.213"><defs><clipPath id="a"><path data-name="사각형 139" fill="none" d="M0 0h177.932v38.213H0z"/></clipPath></defs><g data-name="그룹 130"><g data-name="그룹 129" clip-path="url(#a)"><path data-name="패스 252" d="M108.454 33.755a2.508 2.508 0 01-.68.806 1.312 1.312 0 01-.8.274 1.339 1.339 0 01-1.071-.572 1.917 1.917 0 01-.417-1.293 2.034 2.034 0 01.23-.9 2.4 2.4 0 01.625-.735 1.86 1.86 0 01-.332-.55 1.72 1.72 0 01.306-1.69 1.2 1.2 0 01.943-.436 1.079 1.079 0 01.854.46 1.564 1.564 0 01.344 1.049 1.518 1.518 0 01-.2.709 1.881 1.881 0 01-.509.58l.426.519.471-1.292.977.009-.737 2.055 1.107 1.243-.607.79zm-1.038-.2a1.64 1.64 0 00.357-.542l-.818-.961a1.513 1.513 0 00-.4.417 1.046 1.046 0 00-.133.5.854.854 0 00.143.548.525.525 0 00.433.208.6.6 0 00.419-.168m-.528-3.081a1.122 1.122 0 00.241.307 1.18 1.18 0 00.3-.286.572.572 0 00.109-.326.491.491 0 00-.088-.33.312.312 0 00-.254-.111.323.323 0 00-.259.107.47.47 0 00-.107.32.7.7 0 00.056.32" fill="#001f7a"/><path data-name="패스 253" d="M58.21 18.943h9.812v1.951h-12.3v-5.563h2.488zm9.712-15.178v5.266h1.708v2.049h-1.708v5.23h-2.486V3.765zM57.283 8.744a2.077 2.077 0 00-.574 1.51 2.111 2.111 0 00.574 1.509 2.3 2.3 0 001.725.666 2.443 2.443 0 001.78-.648 1.927 1.927 0 00.629-1.456 2.176 2.176 0 00-.594-1.546 2.457 2.457 0 00-1.813-.682 2.291 2.291 0 00-1.725.647m.564-3.692V3.669h2.487v1.383h3.415v1.887h-2.59a3.557 3.557 0 012.335 1.725 3.907 3.907 0 01.323 2.66 3.591 3.591 0 01-1.509 2.067 5.671 5.671 0 01-3.292.916 5.363 5.363 0 01-3.239-.953 3.636 3.636 0 01-1.456-2.1 3.5 3.5 0 012.552-4.312H54.31v-1.89z" fill="#001f7a"/><path data-name="패스 254" d="M87.116 12.329h-5.988v2.422h5.251v6.3h-2.463v-4.352h-10.38v-1.95h5.1v-2.42h-5.839v-1.95h10.808a15.576 15.576 0 00.233-1.6c.048-.5.073-1.071.073-1.7V6.09H73.522V4.139h12.853v1.846c0 .717-.024 1.448-.072 2.187q-.108 1.257-.269 2.206h1.078z" fill="#001f7a"/><path data-name="패스 255" d="M98.935 3.785h2.466v7.044h1.309V3.785h2.442v17.29h-2.442v-8.23h-1.309v8.231h-2.466zm-5.436 5.832a16.248 16.248 0 00-.27 3.307 17.358 17.358 0 00.27 3.324c.225 1.065.539 1.6.934 1.6q.627 0 .972-1.6a15.394 15.394 0 00.3-3.324 14.557 14.557 0 00-.3-3.307c-.217-.946-.54-1.419-.972-1.419q-.612 0-.934 1.419m-.458-4.49V3.695h2.465v1.433h2.6v1.907h-2.12a4.947 4.947 0 011.761 2.913 12.08 12.08 0 01.36 4.223 9.33 9.33 0 01-1.077 3.917 2.975 2.975 0 01-2.608 1.726 2.886 2.886 0 01-2.552-1.726 9.163 9.163 0 01-1.061-3.917 12.119 12.119 0 01.323-4.223 4.979 4.979 0 011.779-2.913h-2.186V5.128z" fill="#001f7a"/><path data-name="패스 256" d="M120.553 15.265a3.035 3.035 0 011.563 2.568 2.983 2.983 0 01-1.563 2.535 10.357 10.357 0 01-9.561 0 2.877 2.877 0 010-5.1 10.357 10.357 0 019.561 0m-7.729 1.348a1.416 1.416 0 00-.916 1.22q0 .7.916 1.187a6.05 6.05 0 002.856.557 6.54 6.54 0 002.968-.557q.951-.485.953-1.187 0-.735-.953-1.22a6.529 6.529 0 00-2.968-.558 6.04 6.04 0 00-2.856.558m9.04-12.832v1.9h1.691v1.905h-1.691v2.173h1.691v1.933h-1.691v1.828h-2.486V3.78zm-10.422 2.619a3.45 3.45 0 00-.486 1.959 3.411 3.411 0 00.486 1.941 2.1 2.1 0 003.342 0 3.324 3.324 0 00.5-1.941 3.362 3.362 0 00-.5-1.959 2.131 2.131 0 00-3.342 0m5.21-1.308a4.74 4.74 0 011.134 3.271 4.707 4.707 0 01-1.134 3.253 4.48 4.48 0 01-3.541 1.42 4.424 4.424 0 01-3.522-1.42 4.716 4.716 0 01-1.132-3.253 4.748 4.748 0 011.133-3.271 4.458 4.458 0 013.517-1.4 4.515 4.515 0 013.541 1.4" fill="#001f7a"/><path data-name="패스 257" d="M132.384 6.075h-2.877v11.083h4.4V3.775h2.488v6.866h1.842V3.775h2.483v17.283h-2.486v-8.444h-1.844v8.465h-2.488v-2.014h-6.859V4.145h5.341z" fill="#001f7a"/><path data-name="패스 258" d="M158.587 14.728v6.319h-2.485V16.68h-9.991v-1.952zm0-10.959v4.079h1.692V9.82h-1.692v3.756h-2.485V3.769zm-10.639 4.605a1.7 1.7 0 00-.557 1.295 1.836 1.836 0 00.557 1.313 2.33 2.33 0 001.726.645 2.389 2.389 0 001.742-.645 1.78 1.78 0 00.594-1.313 1.653 1.653 0 00-.594-1.295 2.832 2.832 0 00-3.468 0m.543-3.571V3.689h2.488v1.114h3.414v1.844h-2.551a3.576 3.576 0 012.245 1.548 3.141 3.141 0 01.306 2.391 3.57 3.57 0 01-1.491 1.994 6.2 6.2 0 01-6.459-.018 3.585 3.585 0 01-1.456-1.976 3.15 3.15 0 01.269-2.391 3.588 3.588 0 012.247-1.546h-2.534V4.803z" fill="#001f7a"/><path data-name="패스 259" d="M177.786 19.837H163.46V17.93h1.814v-7.8h2.488v7.8h1.928v-7.8h2.487v7.8h5.606zm-.739-15.7v6.578a28.66 28.66 0 01-.236 3.738 21.226 21.226 0 01-.741 3.529h-2.396a19.452 19.452 0 00.671-3.007 23.072 23.072 0 00.233-3.361V6.26h-10.384V4.139z" fill="#001f7a"/><path data-name="패스 260" d="M49.394 6.601a12.136 12.136 0 00.164-1.975v-.919h-6.379v1.034h5.044v.4c0 .29-.012.551-.033.781a6.113 6.113 0 01-.105.683h-5.272v1.019h2.838v1h-2.48v1.022h5.053v2.014h1.334V8.629h-2.574v-1h2.93V6.601z" fill="#001f7a"/><path data-name="패스 261" d="M48.299 18.458h-3.508v-.565h-1.336v3.089h6.166v-3.089h-1.322zm-3.508 1.013h3.51v.488h-3.51z" fill="#001f7a"/><path data-name="패스 262" d="M43.047 14.641v2.77h5.242v.184h1.323v-4.673h-1.323v3.487h-3.907v-.779h2.851v-2.553h-4.186v1h2.862v.564z" fill="#001f7a"/><path data-name="패스 263" d="M46.893 28.721l-1.9 2.527 2.225 3.355h-1.346l-1.569-2.528-.373.649v1.879h-1.119v-5.88h1.123v2.263l1.584-2.263z" fill="#001f7a"/><path data-name="패스 264" d="M51.867 32.708a2.357 2.357 0 01-.325 1.32 2.7 2.7 0 01-3.6 0 2.264 2.264 0 01-.317-1.32v-2.171a2.062 2.062 0 01.317-1.263 2.736 2.736 0 013.6 0 2.131 2.131 0 01.325 1.263zm-1.131-2.48a.771.771 0 00-.235-.576 1.183 1.183 0 00-1.521.013.788.788 0 00-.218.562v2.75a.988.988 0 00.21.636.925.925 0 00.781.338.916.916 0 00.8-.338 1.077 1.077 0 00.186-.663z" fill="#001f7a"/><path data-name="패스 265" d="M52.609 28.722h1.747a5.61 5.61 0 011.684.182.776.776 0 01.6.757v.8a1.173 1.173 0 01-.164.709 1.292 1.292 0 01-.844.365 2.377 2.377 0 01.578.264.89.89 0 01.415.682c.01.091.015.243.015.461v1.661h-1.157v-2.088a1.075 1.075 0 00-.031-.318.348.348 0 00-.187-.21 1.758 1.758 0 00-.511-.109q-.359-.032-1.009-.033v2.758h-1.136zm1.137 2.4h.187c.423 0 .706 0 .846-.007a2.873 2.873 0 00.464-.046.308.308 0 00.2-.131.554.554 0 00.04-.249v-.786a.52.52 0 00-.048-.264.321.321 0 00-.212-.128 2.434 2.434 0 00-.513-.046q-.241-.008-.959-.008z" fill="#001f7a"/><path data-name="패스 266" d="M57.396 28.721h3.113v.77h-1.974v1.7h1.853v.736h-1.853v1.885h2.039v.791h-3.178z" fill="#001f7a"/><path data-name="패스 267" d="M64.101 28.721l1.432 5.882h-1.146l-.366-1.508h-1.548l-.355 1.508h-1.153l1.431-5.88zm-1.428 3.568h1.153l-.569-2.52z" fill="#001f7a"/><path data-name="패스 268" d="M74.58 28.721v5.882h-1.137v-4.929l-1.123 4.929h-1.121l-1.146-4.928v4.928h-1.139v-5.88h2.034l.309 1.493.495 2.953.83-4.446z" fill="#001f7a"/><path data-name="패스 269" d="M78.312 28.721l1.43 5.88h-1.145l-.366-1.508H76.69l-.358 1.508h-1.155l1.431-5.88zm-1.43 3.568h1.153l-.568-2.52z" fill="#001f7a"/><path data-name="패스 270" d="M80.336 28.722h1.749a5.6 5.6 0 011.683.182.775.775 0 01.6.757v.8a1.174 1.174 0 01-.162.709 1.294 1.294 0 01-.845.365 2.285 2.285 0 01.574.264.89.89 0 01.3.311.862.862 0 01.112.371 4.005 4.005 0 01.016.461v1.661h-1.149v-2.088a1.075 1.075 0 00-.031-.318.351.351 0 00-.187-.21 1.782 1.782 0 00-.515-.109 11.66 11.66 0 00-1.008-.033v2.758h-1.138zm1.138 2.4h.188c.423 0 .7 0 .846-.007a2.9 2.9 0 00.463-.046.3.3 0 00.194-.131.552.552 0 00.04-.249v-.786a.518.518 0 00-.049-.264.316.316 0 00-.212-.128 2.421 2.421 0 00-.512-.046 33.336 33.336 0 00-.959-.008z" fill="#001f7a"/><path data-name="사각형 133" fill="#001f7a" d="M85.214 28.722h1.161v5.88h-1.161z"/><path data-name="패스 271" d="M90.893 28.721v.764h-1.552v5.118h-1.164v-5.118h-1.284v-.764z" fill="#001f7a"/><path data-name="사각형 134" fill="#001f7a" d="M91.458 28.722h1.162v5.88h-1.162z"/><path data-name="패스 272" d="M99.197 28.721v5.882h-1.139v-4.929l-1.121 4.929h-1.12l-1.147-4.928v4.928h-1.139v-5.88h2.033l.309 1.493.495 2.953.829-4.446z" fill="#001f7a"/><path data-name="패스 273" d="M100.034 28.721h3.113v.77h-1.974v1.7h1.855v.736h-1.855v1.885h2.041v.791h-3.179z" fill="#001f7a"/><path data-name="패스 274" d="M116.369 32.708a2.4 2.4 0 01-.316 1.32 2.574 2.574 0 01-3.5 0 2.312 2.312 0 01-.309-1.32v-2.171a2.128 2.128 0 01.309-1.263 2.605 2.605 0 013.5 0 2.163 2.163 0 01.316 1.263zm-1.1-2.48a.784.784 0 00-.229-.576 1.126 1.126 0 00-1.479.013.806.806 0 00-.214.562v2.75a1.013 1.013 0 00.2.636.892.892 0 00.76.338.881.881 0 00.776-.338 1.09 1.09 0 00.181-.663z" fill="#001f7a"/><path data-name="패스 275" d="M121.295 30.842h-1.108v-.756a.607.607 0 00-.229-.493 1.164 1.164 0 00-.758-.217 1.056 1.056 0 00-.744.243.913.913 0 00-.268.7v2.725a.9.9 0 00.268.681 1.029 1.029 0 00.744.265.994.994 0 00.727-.257 1.012 1.012 0 00.261-.743v-.544h1.108v.236a2.2 2.2 0 01-.4 1.44 2.054 2.054 0 01-1.674.6 2.15 2.15 0 01-1.734-.6 2.569 2.569 0 01-.4-1.614v-1.713a2.523 2.523 0 01.4-1.566 2.016 2.016 0 011.678-.631 2.353 2.353 0 011.69.516 1.543 1.543 0 01.444 1.175z" fill="#001f7a"/><path data-name="패스 276" d="M122.079 28.721h3.029v.77h-1.922v1.7h1.8v.736h-1.8v1.885h1.993v.791h-3.1z" fill="#001f7a"/><path data-name="패스 277" d="M128.607 28.721l1.391 5.88h-1.113l-.356-1.508h-1.5l-.351 1.51h-1.122l1.391-5.88zm-1.391 3.568h1.123l-.554-2.52z" fill="#001f7a"/><path data-name="패스 278" d="M134.519 28.721v5.882h-1.58l-1.321-4.468v4.468h-1.107v-5.88h1.5l1.389 4.475v-4.477z" fill="#001f7a"/><path data-name="패스 279" d="M142.156 28.715v3.99a4.966 4.966 0 01-.047.779 1.492 1.492 0 01-.247.647 1.3 1.3 0 01-.608.432 3.333 3.333 0 01-1.145.164 3.368 3.368 0 01-1.155-.164 1.3 1.3 0 01-.624-.432 1.406 1.406 0 01-.254-.647 5.35 5.35 0 01-.046-.779v-3.99h1.13v4.379a.99.99 0 00.134.617 1.13 1.13 0 00.815.208 1.054 1.054 0 00.783-.208.987.987 0 00.133-.617v-4.379z" fill="#001f7a"/><path data-name="패스 280" d="M146.995 28.721v5.882h-1.58l-1.319-4.468v4.468h-1.113v-5.88h1.5l1.389 4.475v-4.477z" fill="#001f7a"/><path data-name="사각형 135" fill="#001f7a" d="M147.793 28.722h1.132v5.88h-1.132z"/><path data-name="패스 281" d="M154.231 28.721l-1.418 5.88h-1.863l-1.378-5.88h1.123l1.187 5.029.088-.379c.169-.689.29-1.2.369-1.541q.214-.879.382-1.616l.346-1.493z" fill="#001f7a"/><path data-name="패스 282" d="M154.79 28.721h3.028v.77h-1.921v1.7h1.8v.736h-1.8v1.885h1.984v.791h-3.091z" fill="#001f7a"/><path data-name="패스 283" d="M158.562 28.722h1.7a5.308 5.308 0 011.638.182.772.772 0 01.585.757v.8a1.2 1.2 0 01-.158.709 1.243 1.243 0 01-.822.365 2.3 2.3 0 01.561.264.88.88 0 01.292.311.934.934 0 01.112.371c.01.091.015.243.015.461v1.661h-1.123v-2.088a1.1 1.1 0 00-.031-.318.346.346 0 00-.181-.21 1.673 1.673 0 00-.5-.109 11.093 11.093 0 00-.98-.033v2.758h-1.107zm1.107 2.4h.182c.41 0 .686 0 .821-.007a2.777 2.777 0 00.453-.046.3.3 0 00.189-.131.568.568 0 00.038-.249v-.786a.53.53 0 00-.047-.264.3.3 0 00-.2-.128 2.3 2.3 0 00-.5-.046 31.535 31.535 0 00-.932-.008z" fill="#001f7a"/><path data-name="패스 284" d="M167.082 30.5h-1.127v-.528a.659.659 0 00-.136-.48.99.99 0 00-.679-.17 1.074 1.074 0 00-.737.185.726.726 0 00-.134.506 1.583 1.583 0 00.017.27.523.523 0 00.118.209 1.3 1.3 0 00.309.21c.118.068.307.165.57.292l.356.167c.369.181.624.311.766.393a2.2 2.2 0 01.491.364 1.191 1.191 0 01.261.474 2.653 2.653 0 01.079.709 1.462 1.462 0 01-.475 1.217 2.591 2.591 0 01-1.63.406 2.54 2.54 0 01-1.566-.366 1.108 1.108 0 01-.371-.926v-.79h1.123v.635a.747.747 0 00.134.514.965.965 0 00.711.2 1.068 1.068 0 00.767-.217.685.685 0 00.173-.513.973.973 0 00-.243-.69 4.751 4.751 0 00-1.21-.771 5.176 5.176 0 01-1.148-.7 1.364 1.364 0 01-.355-1.007 1.324 1.324 0 01.476-1.116 2.419 2.419 0 011.47-.372 3.712 3.712 0 011.525.244.685.685 0 01.464.624z" fill="#001f7a"/><path data-name="사각형 136" fill="#001f7a" d="M168.022 28.722h1.133v5.88h-1.133z"/><path data-name="패스 285" d="M173.55 28.721v.764h-1.51v5.118h-1.13v-5.118h-1.256v-.764z" fill="#001f7a"/><path data-name="패스 286" d="M177.932 28.721l-1.581 3.793v2.089h-1.1v-2.089l-1.527-3.793h1.139q.166.48.379 1.116.117.371.33 1.015l.231.688.989-2.819z" fill="#001f7a"/><path data-name="패스 287" d="M18.287 8.949l-.04.942s.137.155-.157.155h-4.5a1.153 1.153 0 00-1.08.844c-.237.844-2.3 9.942-2.3 9.942a3.223 3.223 0 002.535.549s.038.02.078-.216.885-5.568 1.042-6.431.414-2.471.472-2.666c.1-.118.1-.1.218-.1s1.611.019 1.611.019.059-.038.059.1-.827 7.884-.827 7.884-.038.157.06.117a7.918 7.918 0 012.458-.667s.078-.02.1-.2.256-7.119.256-7.119-.02-.118.137-.118h1.55s.157-.019.157.177.217 7.176.217 7.176 0 .059.118.079a9.373 9.373 0 012.3.687l.138.038-.67-8.137 1.693-.021s.1-.059.137.118 1.376 9.217 1.376 9.217-.02.1.137.157a3.517 3.517 0 002.4-.491l.02-.137-2.123-9.821s-.02-.94-1.435-.959-4.287 0-4.287 0l-.078-1.863a.2.2 0 00-.139-.08l-1.513-.019s-.078-.02-.078.1-.039.744-.039.744" fill="#001f7a"/><path data-name="패스 288" d="M16.488 28.984l.015-.594-.015-.244h-.34a.043.043 0 00-.045.043v.026c-.02.038-.069.272-.442.272a.132.132 0 00-.118.139s-.009.148.07.148h.4s.049.027.049.155v1.215h.038v.065a.046.046 0 00.045.044h.295a.046.046 0 00.045-.044zm1.751-.162a.424.424 0 11-.425-.424.424.424 0 01.425.424m.422.431c.059-1.314-.9-1.2-.9-1.2a.755.755 0 10.421 1.385.232.232 0 010 .029.435.435 0 01-.137.371c-.345.363-.659-.087-.659-.087h-.363c.059.323.4.617.992.518s.64-1.019.64-1.019m1.4.58l-.07-.02.095.072zm.025-.4l-.015.034-.03.014-.546.022-.029-.022v-.046a.85.85 0 00.075-.112l.447-.552.049-.024.045.03zm.663.382a.045.045 0 00.044-.045v-.245a.045.045 0 00-.044-.044h-.2l-.049-.02-.019-.053V28.2a.045.045 0 00-.046-.043h-.3a.05.05 0 00-.022.006.046.046 0 00-.053.012l-.786 1.011a.718.718 0 00-.081.114.5.5 0 00-.047.063.153.153 0 00-.03.127.045.045 0 00-.013.031v.249a.046.046 0 00.044.045h.94v.426a.043.043 0 00.045.044h.3a.045.045 0 00.046-.044v-.347l.028-.05.054-.029zm.909-.888a.69.69 0 01-.006-.083 1.408 1.408 0 01.041-.23c0-.087.122-.121.122-.121h.769c.036 0 .042-.041.042-.041v-.229c0-.049-.054-.055-.054-.055h-1.071c-.089 0-.089.1-.089.1s-.164.921-.168.981a.062.062 0 00.05.068h.314c.438-.309.664.049.664.049a.4.4 0 01-.27.631.389.389 0 01-.442-.235.1.1 0 00-.049-.058h-.3a.078.078 0 00-.065.038.83.83 0 001.628-.176c-.079-.991-1.111-.642-1.111-.642m-7.188 2.338s-.108.031-.108.069a.494.494 0 00.01.088v.5s-.01.128.069.109l2.447-.569s1.252-.438 1.416 1.039c0 .046.029.05.029.05h1.4s.048-.04.048-.079a1.13 1.13 0 011.485-1.028c1.377.284 2.389.578 2.389.578v-.725l-2.1-.53a1.883 1.883 0 00-2.507 1.275 1.889 1.889 0 00-2.329-1.344c-1.84.471-2.242.569-2.242.569m18.136-8.446a8.109 8.109 0 00-2.426.663 6.8 6.8 0 01-4.837 1.333c-1.768-.082-2.792-1.139-4.09-1.686a5.954 5.954 0 00-3.658-.2c-.943.236-2.438 1.254-3.7 1.647a6.758 6.758 0 01-5.308-.823 5.251 5.251 0 00-2.99-1.072 7.6 7.6 0 01-.236-1.162h.63c1.495 0 2.635 1.019 3.658 1.528a5.416 5.416 0 004.522.2c1.258-.392 2-1.413 4.4-1.608s4.051.94 5.349 1.608a5.446 5.446 0 004.954-.234 7.641 7.641 0 013.985-1.339M6.037 23.988a1.519 1.519 0 01.472 0 6.584 6.584 0 011.219.668 8.3 8.3 0 007.393.784c4.523-2.745 5.9-1.1 7.236-.274 4.09 1.881 6.764.507 8.061-.353s1.535-.667 1.535-.667l.118.079a5.967 5.967 0 01-.551 1.255c-4.837 3.138-8.848 1.332-10.263.313a3.623 3.623 0 00-4.134-.123 9.1 9.1 0 01-10.541-.39zm5.586 4.236a10.252 10.252 0 006.331-1.724c1.651-.943 2.792.43 3.971.979a10.824 10.824 0 008.339 0 13.641 13.641 0 01-10.894 5.609 13.641 13.641 0 01-11.565-5.765 11.54 11.54 0 003.816.9m26.057-4.689s-2.068-3.311-5.765-3-4.129 3.255-7.982 1.373c-3.973-1.922-5.035-1.765-7.749-.98-1.927.548-3.382 2.784-6.527.665a8.244 8.244 0 00-4.8-1.294 5.139 5.139 0 00-2.386.725A7.172 7.172 0 00.407 22.77a19.373 19.373 0 007.7 11.931 19.027 19.027 0 0021.076.638 18.7 18.7 0 008.489-11.779" fill="#001f7a"/><path data-name="패스 289" d="M32.865 21.672s-.238 1.145-.259 1.149" fill="#001f7a"/><path data-name="패스 290" d="M5.235 26.091a4.1 4.1 0 00.447.856.575.575 0 00.215.15c.047.01.079-.16-.009-.4-.074-.2-.2-.406-.3-.626-.1-.238-.194-.424-.307-.661-.132-.279-.22-.736-.554-.84-.04 0-.124-.017-.107.062a3.694 3.694 0 00.477 1.138z" fill="#fff" fill-rule="evenodd"/><path data-name="패스 291" d="M5.478 24.78c.131-.056.223.135.26.215.063.133.139.263.206.4a4.017 4.017 0 01.174.424c.2.534.083.5.086.5-.217-.054-.362-.356-.493-.6a2.093 2.093 0 01-.272-.631c-.012-.068-.052-.261.038-.3" fill="#fff" fill-rule="evenodd"/><path data-name="패스 292" d="M33.697 25.354a2.345 2.345 0 01.615.481c.081.125.221.247.062.48-.133.15-.794-.626-1.353-.78a.077.077 0 00-.1.024L31.914 27.4c-.106.192-.2.491-.465.53-.325-.063.351-1 .589-1.431.129-.237.242-.482.369-.72a4.447 4.447 0 00.385-.71s-.032-.2.131-.238.3.209.4.283c.122.086.247.167.374.245" fill="#fff" fill-rule="evenodd"/><path data-name="패스 293" d="M4.714 27.279h.04a.586.586 0 00.349-.169.51.51 0 00.085-.324 2.085 2.085 0 00-.094-.662c-.015-.046-.034-.093-.046-.141a1.351 1.351 0 00-.442-.566.777.777 0 00-.738-.119c-.144.07-.23.349-.246.539a1.377 1.377 0 00.206.75 1.767 1.767 0 00.509.588.6.6 0 00.378.106m.015-.483c-.43.231-.959-.769-.615-1.081.5-.208.87.916.615 1.081" fill="#fff" fill-rule="evenodd"/><path data-name="패스 294" d="M35.788 25.956a13.747 13.747 0 00-1.587 2.821c-.141.314-.211.686-.564.84-.217.067 0-.806.157-1.031-.334-.254-1.328-.477-.912-.946a.254.254 0 01.374-.024 3.2 3.2 0 00.261.271 2.181 2.181 0 00.55.231c.109.032.316-.429.28-.5-.122-.245-.918-.369-1.081-.7a.3.3 0 01.331-.364.723.723 0 01.359.222s.415.35.6.323a.394.394 0 00.114-.156s.9-1.557.883-1.662c0 0 .018-.064.05-.024l.191.652z" fill="#fff" fill-rule="evenodd"/><path data-name="패스 295" d="M2.791 26.488c-.008.113.112.252.166.345a2.879 2.879 0 01.2.431c.065.169.144.328.218.493a8.815 8.815 0 01.554 1.261c-.5.029-.488-.319-.677-.78a11.338 11.338 0 00-.738-1.561c-.067-.114-.385-.124-.308-.421.305-.25 1.274-.74 1.231-.18-.011.151-.13.208-.265.243-.069.019-.134.041-.206.056s-.167.028-.176.114" fill="#fff" fill-rule="evenodd"/><path data-name="패스 296" d="M5.158 27.757c-.243.106-.662.154-.8.41-.123.233.222.254.367.219a3.231 3.231 0 00.562-.248.925.925 0 01.359-.08c.137.126.092.429.308.479.356-.067-.095-.479.008-.687a1.824 1.824 0 01.261-.109c.086-.031.171-.066.254-.1s.164-.072.249-.1.351-.087.321-.226c0 0 .016-.264-.174-.238a1.635 1.635 0 00-.478.141l-1.242.544" fill="#fff" fill-rule="evenodd"/><path data-name="패스 297" d="M7.742 30.459c-.192-.174-.346-.364-.554-.541a1.089 1.089 0 00-.676-.359.124.124 0 00-.074.206l1.346 1.149a.025.025 0 01.019.026c0 .043-.118.115-.148.142a.5.5 0 00-.221.46c.023.111.184.118.184.118a1.168 1.168 0 00.546-.392l.561.631c.3.357.481.78.923.362a2.944 2.944 0 01-.553-.48 1.271 1.271 0 00.615-.3 1.385 1.385 0 00.431-.481c.044-.233-.233-.255-.233-.255l-.689-.645a5.237 5.237 0 00-1.169-1.019s-.2-.075-.248.027c0 0-.087.047 0 .164s1.356 1.25 1.356 1.25c.146.146.39.244.43.478a2.684 2.684 0 01-.771.5s-.6-.61-1.031-1z" fill="#fff" fill-rule="evenodd"/><path data-name="패스 298" d="M30.56 29.797c.213-.051.37-.469.615-.3.118.217-.268.355-.387.556.119.324.646.461.448.764-.3.254-.669-.255-.985-.564-.279-.271-.817-.669-.8-.877s.128-.3.359-.288.564.626.748.709" fill="#fff" fill-rule="evenodd"/><path data-name="패스 299" d="M7.865 32.62a16.969 16.969 0 00-1.66-1.682.163.163 0 010-.241s.077-.1.261.083l1.457 1.418c.161.151.432.239.493.481l-.031.07a2.846 2.846 0 01-.744.7s-.282.087-.265-.134a.287.287 0 01.071-.233z" fill="#fff" fill-rule="evenodd"/><path data-name="패스 300" d="M31.545 31.54c.3.178.579.75.923.539a.191.191 0 00.056-.233c-.219-.279-.793-.907-.793-.907s-.143-.151-.249-.063c0 0-.114.046-.2.317l-1.093 1.005c-.143.137-.352.318-.493.482-.16.183-.426.348-.246.66 0 0 .057.04.139-.033l1.84-1.716s.079-.072.113-.052" fill="#fff" fill-rule="evenodd"/><path data-name="패스 301" d="M25.915 32.342c.352 1.1.783 2.125 1.079 3.159.047.164.146.309.06.481-.231.194-.377-.174-.433-.286-.257-.5-.406-1.15-.612-1.635-.158.037-.3.117-.477.154.16.718.714 1.513.477 1.828-.183.134-.3-.145-.3-.145l-.992-2.617c-.052-.2-.232-.383 0-.541.364-.155.39.259.493.541a4.924 4.924 0 00.23.664 4.02 4.02 0 00.447-.184c-.093-.5-.6-1.2-.307-1.5 0 0 .239-.137.337.082" fill="#fff" fill-rule="evenodd"/><path data-name="패스 302" d="M13.155 33.159c.021-.2-.25-.265-.431-.36-.3-.156-.791-.371-.923-.179 0 0-.043.119.192.2 0 0 .863.334.992.376 0 0 .16.049.17-.042" fill="#fff" fill-rule="evenodd"/><path data-name="패스 303" d="M12.746 34.266l-.022-.064c-.044-.158-.369-.387-.369-.387a.2.2 0 00-.168-.217c-.13-.043-.206.11-.206.11a1.058 1.058 0 00-.426-.009.98.98 0 00-.367.181.934.934 0 00-.124 1.14 1.3 1.3 0 00.982.364.846.846 0 00.7-1.114m-1.006.755c-.58-.1-.335-1.3.431-.9.38.242-.021.973-.431.9" fill="#fff" fill-rule="evenodd"/><path data-name="패스 304" d="M13.401 33.701s.13.1 0 .181a2.9 2.9 0 01-1.046-.3s-.867-.349-.927-.4c0 0-.3-.137-.217-.272a.1.1 0 01.141-.052s.808.27 1.742.675a1.924 1.924 0 01.307.175" fill="#fff" fill-rule="evenodd"/><path data-name="패스 305" d="M13.83 34.3c.056.146.247.16.431.183l.276-.674s.191-.637.4-.649c.486.1.169.571.061.841-.286.727-.532 1.341-.8 2.042-.129.337-.242.985-.615.841-.3-.158.417-1.35.553-2.042a.74.74 0 00-.415-.165c-.093-.016-.234.5-.253.562a5.535 5.535 0 01-.269.807c-.1.2-.236.37-.456.2-.114-.08.169-.756.3-1.13s.287-.772.424-1.192l.052-.167c.132-.348.321-1.056.738-.6 0 0 .024.037-.017.14 0 0-.362.945-.414 1" fill="#fff" fill-rule="evenodd"/><path data-name="패스 306" d="M25.271 35.021c-.609.158-.968.35-1.66.541a.033.033 0 01-.036-.014c0-.023-.5-1.435-.5-1.435-.013-.042.04-.053.04-.053.155-.064.383-.117.554-.179.326-.122.449-.146.431-.3-.111-.2-.392-.085-.677 0a2.251 2.251 0 00-.983.479s-.061.19.18.232c0 0 .3.707.311.729l.279.707s-.207.3.029.374c.232.047.369-.16.553-.24.437-.187.854-.226 1.327-.4a.125.125 0 00.045-.073l.106-.325s.026-.057 0-.043" fill="#fff" fill-rule="evenodd"/><path data-name="패스 307" d="M20.598 33.795v.613c.253.082.687-.052.676.194s-.509.093-.673.141v.478c.258.037.817-.08.676.28-.118.137-.45.04-.676.061-.035.114.043.64-.246.659-.348-.01-.246-.674-.246-1.08v-1.32a.227.227 0 01.23-.222s.282-.01.262.2" fill="#fff" fill-rule="evenodd"/><path data-name="패스 308" d="M17.089 34.421a1 1 0 00.739 1.32c.964.194 1.684-.356 1.6-1.079-.046-.4-.255-.633-.771-.76l-.169-.032c-.006-.165-.2-.186-.2-.186-.157.006-.19.18-.19.18s-.787-.095-.994.5zm.554.781a.669.669 0 01.369-1.022.826.826 0 01.923.422c.165.7-.741 1.084-1.292.6" fill="#fff" fill-rule="evenodd"/><path data-name="패스 309" d="M19.341 36.283a.272.272 0 00-.344-.181.309.309 0 00-.185.181c-.584.01-1.366.213-1.415.66-.118 1.1 3.186 1.015 3.26.12.054-.657-.646-.7-1.317-.78m-1.451.78c-.018-.213.2-.3.37-.36.307-.116 1.976-.22 1.906.36-.055.463-2.228.541-2.276 0" fill="#fff" fill-rule="evenodd"/><path data-name="패스 310" d="M28.749 30.981c.232-.242.523-.391.7-.679a.531.531 0 00.077-.245c0-.048-.18-.024-.382.129-.171.131-.334.314-.518.47-.2.17-.355.31-.55.49-.229.208-.649.429-.649.772.013.038.021.121.094.082a3.8 3.8 0 00.964-.794z" fill="#fff" fill-rule="evenodd"/><path data-name="패스 311" d="M27.392 31.158c-.1-.1.064-.249.13-.307.11-.1.214-.21.322-.314a4.316 4.316 0 01.362-.293c.459-.348.462-.23.461-.233.015.218-.236.444-.433.64a2.192 2.192 0 01-.531.448c-.063.032-.239.13-.31.059" fill="#fff" fill-rule="evenodd"/><path data-name="패스 312" d="M30.068 31.1a.21.21 0 00-.015-.036.57.57 0 00-.275-.272.557.557 0 00-.343.021 2.231 2.231 0 00-.615.291c-.04.028-.082.059-.123.086a1.344 1.344 0 00-.415.583.735.735 0 00.111.723.775.775 0 00.6.063 1.439 1.439 0 00.667-.42 1.757 1.757 0 00.418-.655.554.554 0 00-.013-.383m-.476.136c.359.326-.454 1.126-.865.9-.357-.4.626-1.09.865-.9" fill="#fff" fill-rule="evenodd"/><path data-name="패스 313" d="M28.642 31.079a.185.185 0 01.231.117.178.178 0 01-.118.226.185.185 0 01-.232-.116.179.179 0 01.118-.227" fill="#fff" fill-rule="evenodd"/><path data-name="패스 314" d="M5.038 19.367l-.006.4L0 19.682l.006-.4 2.054.033-2.042-.76.008-.507 2.054.807 2.978-.773-.008.517-2.217.549.5.2z" fill="#001f7a"/><path data-name="패스 315" d="M.432 16.972c-.265-.194-.383-.4-.353-.6s.2-.366.51-.479a4.965 4.965 0 012.237-.045 4.918 4.918 0 012.122.67q.4.3.36.6t-.516.481a4.95 4.95 0 01-2.225.045 4.978 4.978 0 01-2.134-.67m3.589.3q.363-.084.391-.284c.02-.131-.079-.259-.295-.38a4.029 4.029 0 00-1.351-.375 4.129 4.129 0 00-1.41-.022c-.242.056-.372.15-.391.282s.079.261.3.383a4.171 4.171 0 001.36.371 4.091 4.091 0 001.4.023" fill="#001f7a"/><path data-name="패스 316" d="M.503 14.736l.261-.933c.059-.21.278-.316.656-.321a3.25 3.25 0 01.877.13 3.229 3.229 0 01.7.274.888.888 0 01.38.332.753.753 0 01.385-.082 4.547 4.547 0 01.914.187c.379.1.617.168.713.188a.407.407 0 00.268-.006l.124.036-.12.428q-.191-.03-.4-.079c-.16-.038-.355-.089-.59-.155a3.6 3.6 0 00-.723-.154.254.254 0 00-.281.194l-.111.4 1.9.529-.106.377zm2.378-.235a.24.24 0 00-.093-.263 1.406 1.406 0 00-.5-.217 1.528 1.528 0 00-.434-.069c-.157 0-.249.056-.276.153l-.135.481 1.311.365z" fill="#001f7a"/><path data-name="패스 317" d="M2.551 11.523l-.386.932.985.4.353-.854.812.334-.353.854 1.211.5.4-.972.819.337-.55 1.338-4.652-1.914.536-1.295z" fill="#001f7a"/><path data-name="패스 318" d="M6.578 12.717l-.206.365-4.052-3.054.225-.4 4.725 1.855-.21.375-.969-.4-.353.63zm-1.543-1.143l.243-.433-1.856-.758v.006z" fill="#001f7a"/><path data-name="패스 319" d="M8.835 9.497l-.238.287-3.014-2.481 2.785 2.755-.245.3-3.237-2.214v.006L7.9 10.632l-.244.286-3.88-3.2.373-.451 3.156 2.15-2.718-2.672.369-.443z" fill="#001f7a"/><path data-name="패스 320" d="M9.159 9.196l-.308.286-2.918-4.147.338-.313 3.926 3.212-.315.293-.8-.673-.53.491zm-1.118-1.56l.364-.337-1.531-1.284h-.007z" fill="#001f7a"/><path data-name="패스 321" d="M7.311 4.128l.788-.567c.178-.128.416-.075.713.158a3.191 3.191 0 01.6.648 3.217 3.217 0 01.373.647.881.881 0 01.089.5.761.761 0 01.351.182 4.593 4.593 0 01.6.715c.231.319.377.516.44.592.085.1.156.156.213.162l.075.1-.362.261q-.131-.143-.26-.31-.152-.192-.365-.488a3.658 3.658 0 00-.468-.571.255.255 0 00-.341-.023l-.338.246 1.152 1.59-.319.23zm2 1.3a.24.24 0 00.093-.264 1.389 1.389 0 00-.254-.48 1.518 1.518 0 00-.3-.324q-.188-.141-.311-.052l-.406.291.8 1.1z" fill="#001f7a"/><path data-name="패스 322" d="M12.112 6.953l-.345.2-2.561-4.314.344-.2z" fill="#001f7a"/><path data-name="패스 323" d="M13.147 6.421l-.36.174-1.804-3.712-.532.256-.389-.8 1.424-.688.389.8-.532.257z" fill="#001f7a"/><path data-name="패스 324" d="M14.22 5.976l-.373.143-1.806-4.681.373-.143z" fill="#001f7a"/><path data-name="패스 325" d="M16.217 5.378l-.36.1-1.039-3.759.694 3.853-.371.1-1.378-3.663h-.006l1.038 3.756-.36.1-1.334-4.835.564-.155 1.346 3.567-.686-3.75.555-.152z" fill="#001f7a"/><path data-name="패스 326" d="M17.183 1.073l-1 .144.152 1.051.917-.132.125.868-.917.132.187 1.293 1.043-.15.126.874-1.433.206-.715-4.966 1.389-.2z" fill="#001f7a"/><path data-name="패스 327" d="M20.185 5.139l-.448-.009-.119-.438a1.643 1.643 0 01-.217.38.431.431 0 01-.341.167q-.265-.006-.424-.451a2.752 2.752 0 01-.141-1 3.728 3.728 0 01.076-.728 2.2 2.2 0 01.32-.73l.039-.063a3.382 3.382 0 01-.109-.456 3.611 3.611 0 01-.043-.629 2.23 2.23 0 01.159-.867C19.032.1 19.153 0 19.306 0c.118 0 .22.1.305.287a2.2 2.2 0 01.137.918 2.6 2.6 0 01-.141.836 2.008 2.008 0 01-.19.387v.006l.254.882c.025-.123.047-.24.064-.351.02-.144.033-.3.044-.466l.33.006a7.853 7.853 0 01-.086.831 5.577 5.577 0 01-.16.676zM19.108 2.89a2.375 2.375 0 00-.182.374 1.666 1.666 0 00-.061.461 1.365 1.365 0 00.047.41q.072.27.222.273c.056 0 .114-.039.173-.118a1.194 1.194 0 00.13-.24zM19.39.853c-.026-.073-.062-.109-.111-.111s-.082.035-.109.107a.975.975 0 00-.052.332 1.541 1.541 0 00.026.309 2.5 2.5 0 00.1.36 1.582 1.582 0 00.128-.286 1.27 1.27 0 00.06-.37.956.956 0 00-.041-.341" fill="#001f7a"/><path data-name="패스 328" d="M21.789.599q.288-.391.576-.342c.19.033.331.206.424.515a5.287 5.287 0 01-.048 2.227 5.248 5.248 0 01-.705 2.1c-.2.265-.387.381-.575.349s-.331-.207-.425-.523a5.258 5.258 0 01.048-2.213 5.311 5.311 0 01.705-2.113m-.422 3.566c.042.241.125.372.247.393s.243-.075.364-.287a4.289 4.289 0 00.4-1.334 4.383 4.383 0 00.077-1.4c-.042-.242-.123-.372-.245-.394s-.245.075-.367.288a4.451 4.451 0 00-.4 1.347 4.334 4.334 0 00-.078 1.39" fill="#001f7a"/><path data-name="패스 329" d="M24.27 2.552a2.921 2.921 0 00.063-.548q-.006-.334-.194-.388c-.111-.032-.233.049-.369.24a4.652 4.652 0 00-.531 1.293 5.675 5.675 0 00-.23 1.166c-.021.354.04.551.184.592q.146.042.307-.165a2.44 2.44 0 00.324-.64l.357.1a4.876 4.876 0 01-.608 1.219q-.339.448-.643.362-.35-.1-.371-.806a6.68 6.68 0 01.326-1.95 6.451 6.451 0 01.764-1.812q.4-.579.737-.481c.231.065.357.313.38.741a3.975 3.975 0 01-.139 1.178z" fill="#001f7a"/><path data-name="패스 330" d="M26.544 2.581l-.864-.351-.4.984.792.322-.332.812-.792-.321-.495 1.207.9.367-.335.819-1.237-.5 1.9-4.647 1.2.488z" fill="#001f7a"/><path data-name="패스 331" d="M25.307 6.571l-.341-.185 2.952-4.113.375.2-1.834 4.717-.35-.188.39-.969-.587-.316zm1.1-1.566l.4.217.747-1.852h-.006z" fill="#001f7a"/><path data-name="패스 332" d="M30.237 3.706l.282.194-2.874 4.121-.3-.208 1.457-3.34h-.006l-2.045 2.928-.282-.2 2.873-4.119.321.222-1.432 3.275z" fill="#001f7a"/><path data-name="패스 333" d="M30.492 8.199a4.01 4.01 0 01-1.139.907.594.594 0 01-.7-.033.414.414 0 01-.12-.292 1.066 1.066 0 01.136-.544 2.971 2.971 0 01.3-.461 5.765 5.765 0 01.44-.51l2.3-2.4.274.261-2.247 2.344a2.4 2.4 0 00-.456.61q-.108.233 0 .334c.089.085.213.086.369 0a2.223 2.223 0 00.548-.451l2.271-2.371.272.259z" fill="#001f7a"/><path data-name="패스 334" d="M33.934 7.215l.219.262-3.863 3.215-.233-.279 2.291-2.837-.006-.006-2.749 2.289-.221-.263 3.863-3.216.25.3-2.248 2.778z" fill="#001f7a"/><path data-name="패스 335" d="M30.63 11.193l-.214-.3 4.11-2.9.213.3z" fill="#001f7a"/><path data-name="패스 336" d="M35.608 9.662l.2.326-4.726 2.143-.179-.3 4.117-3.147.2.338-3.175 2.336z" fill="#001f7a"/><path data-name="패스 337" d="M35.796 12.008l-.4-.842-.965.452.365.771-.8.373-.364-.771-1.185.555.413.879-.8.376-.564-1.205 4.553-2.137.553 1.17z" fill="#001f7a"/><path data-name="패스 338" d="M36.844 12.226l.293.845q.1.285-.369.6a3.88 3.88 0 01-1.525.556.916.916 0 01-.5-.041.782.782 0 01-.28.269 4.972 4.972 0 01-.861.361q-.558.192-.695.248a.442.442 0 00-.219.151l-.121.043-.134-.388c.117-.055.241-.107.373-.158q.228-.088.574-.207a3.935 3.935 0 00.684-.279.239.239 0 00.127-.3l-.125-.362-1.862.642-.118-.342zM34.998 13.7a.224.224 0 00.221.148 1.532 1.532 0 00.532-.111 1.685 1.685 0 00.4-.185c.127-.089.176-.178.145-.267l-.151-.436-1.286.443z" fill="#001f7a"/><path data-name="패스 339" d="M34.17 15.312a1.652 1.652 0 00-.468.171q-.268.157-.219.368a.294.294 0 00.173.214.866.866 0 00.528 0 .792.792 0 00.386-.179.63.63 0 00.144-.265l.094-.21a2.478 2.478 0 01.1-.238.877.877 0 01.193-.225 1.427 1.427 0 01.373-.214 4.126 4.126 0 01.641-.191 3.319 3.319 0 01.985-.1q.589.047.673.416.078.348-.451.656a3.533 3.533 0 01-.983.367l-.077-.339a1.92 1.92 0 00.431-.163q.261-.153.216-.355a.244.244 0 00-.171-.171 1.138 1.138 0 00-.829.146.4.4 0 00-.111.148l-.006.006-.206.488a.834.834 0 01-.305.394 2.529 2.529 0 01-.908.35 2.479 2.479 0 01-1.4.017.5.5 0 01-.34-.337q-.093-.417.459-.736a3.537 3.537 0 011-.365z" fill="#001f7a"/><path data-name="사각형 137" fill="#001f7a" d="M32.915 16.907l4.98-.722.053.365-4.98.722z"/><path data-name="패스 340" d="M33.065 18.303l-.025-.369 4.13-.284-.038-.542.89-.062.1 1.452-.89.062-.038-.543z" fill="#001f7a"/><path data-name="패스 341" d="M33.071 19.772l.013-.369 1.9.062 3.152-.521-.014.433-2.213.307 2.189.417-.014.414-3.131-.683z" fill="#001f7a"/><path data-name="패스 342" d="M45.402 23.382v3.664h-.9l-.762-2.07v2.07h-.858v-3.664h.863l.8 2.141v-2.141z" fill="#001f7a"/><path data-name="패스 343" d="M47.943 23.378l.686 3.668h-.984l-.093-.7h-.658l-.116.7h-.966l.611-3.668zm-.476 2.358a12.23 12.23 0 00-.061-.514c-.019-.125-.049-.341-.093-.647l-.084-.576q-.126.651-.192 1.081a9.287 9.287 0 00-.088.655z" fill="#001f7a"/><path data-name="패스 344" d="M51.167 23.378v.705h-.639v2.963h-1.04v-2.962h-.644v-.706z" fill="#001f7a"/><path data-name="사각형 138" fill="#001f7a" d="M51.581 23.378h1.031v3.668h-1.031z"/><path data-name="패스 345" d="M55.79 25.523a4.059 4.059 0 01-.038.618 1.349 1.349 0 01-.158.505.89.89 0 01-.392.346 1.669 1.669 0 01-.709.129 1.742 1.742 0 01-.727-.129.821.821 0 01-.392-.343 1.361 1.361 0 01-.169-.508 5.347 5.347 0 01-.028-.618v-.63a5.273 5.273 0 01.028-.618 1.326 1.326 0 01.169-.5.853.853 0 01.392-.342 1.848 1.848 0 01.727-.121 1.77 1.77 0 01.709.121.9.9 0 01.392.342 1.341 1.341 0 01.158.5 4.015 4.015 0 01.038.618zm-1.035-1.21a.723.723 0 00-.052-.343.235.235 0 00-.21-.079.25.25 0 00-.247.121.823.823 0 00-.038.3v1.723a1 1 0 00.043.341.236.236 0 00.242.155.22.22 0 00.233-.138.9.9 0 00.029-.3v-1.78z" fill="#001f7a"/><path data-name="패스 346" d="M58.838 23.382v3.664h-.9l-.756-2.07v2.07h-.858v-3.664h.863l.8 2.141v-2.141z" fill="#001f7a"/><path data-name="패스 347" d="M61.378 23.378l.686 3.668h-.984l-.093-.7h-.657l-.117.7h-.966l.611-3.668zm-.471 2.358a12.23 12.23 0 00-.061-.514l-.093-.647-.084-.576q-.126.651-.192 1.081a9.287 9.287 0 00-.088.655z" fill="#001f7a"/><path data-name="패스 348" d="M63.526 23.382v2.959h.807v.705h-1.838v-3.664z" fill="#001f7a"/></g></g></svg>