<svg data-name="그룹 128" xmlns="http://www.w3.org/2000/svg" width="160" height="42.625"><defs><clipPath id="a"><path data-name="사각형 131" fill="none" d="M0 0h160v42.625H0z"/></clipPath></defs><g data-name="그룹 127" clip-path="url(#a)"><path data-name="패스 230" d="M44.9 22.122a2.568 2.568 0 00-.333-1.1l-.051-.1-.051-.1a37.267 37.267 0 00-2.713-4.36l-.007-.007v-.007a1.992 1.992 0 01-.2-.724c-.041-.335-.028-.671-.046-.851a.969.969 0 00-.22-.423c-.113-.155-.257-.333-.4-.539-.213-.3-.439-.622-.62-.881l-.229-.333a1.752 1.752 0 01-.1-.162c-.083-.146-.164-.247-.2-.326a.166.166 0 01-.016-.033l-.014-.033.007-.034a2.96 2.96 0 00.06-.608v-.037a3.057 3.057 0 00-1.655-2.687c-.333-.192-.629-.37-.9-.536l-.12-.076.1-.1a1.356 1.356 0 00.4-.96V7.09a1.379 1.379 0 00-.419-.994l-.05-.046A20.852 20.852 0 0022.517.113h-.021A20.875 20.875 0 007.869 6.07l-.011.009a1.4 1.4 0 00-.435 1.007v.036a1.356 1.356 0 00.218.715l.065.1-.109.058c-.166.085-.386.2-.6.335a2.166 2.166 0 00-.825.765c-.114.262-.107.382-.2.627a6.98 6.98 0 01-.381.781c-.143.266-.275.49-.326.6a1.235 1.235 0 00-.076.49 3.69 3.69 0 00.04.518l.009.067-.056.04a3.336 3.336 0 00-1.359 2.74 3.767 3.767 0 00.033.5v.046l-.03.037a27.1 27.1 0 00-3.363 5.1c-.037.1-.12.2-.2.358a1.4 1.4 0 00-.153.627v.044a1.334 1.334 0 00.478 1.013l.134.118.023.021.063.044a2.8 2.8 0 00.173.115 5.362 5.362 0 012.085 2.251l.016.039a.3.3 0 00.076.114.151.151 0 00.056.027 1.2 1.2 0 00.15.025c.172.021.414.04.469.044h.03a.571.571 0 00.07-.019l.072-.028.05.058a.5.5 0 00.051.053 2.072 2.072 0 001.471.509h.007v-.007l-.125-.069a2.261 2.261 0 01-.613-.992l-.037-.092.088-.046a9.01 9.01 0 012.1-.823l.039-.009.037.019a1.824 1.824 0 01.59.4l.044.051-.025.063a3.451 3.451 0 00-.123.416 4.551 4.551 0 00-.125 1.043 3.646 3.646 0 00.085.8l.017.072-.063.044s-.028.021-.078.063-.121.1-.2.18a2.013 2.013 0 00-.427.634l-.014.037-.034.021c-.036.019-.07.04-.1.058l-.107.06-.051-.114a9.228 9.228 0 01-.123-.289 6.026 6.026 0 01-.252-.828l-.009-.046a.007.007 0 00-.007-.007h-.007a3.029 3.029 0 00-.341 1.346 1.885 1.885 0 00.009.2l.014.181-.168-.065a.222.222 0 00-.088-.019.231.231 0 00-.054 0 .258.258 0 00-.173.132.372.372 0 00-.039.1v.007a.133.133 0 000 .017c0 .014-.007.037-.012.065a4.72 4.72 0 00-.032.236 6.073 6.073 0 00-.051.754 2.187 2.187 0 00.442 1.517c.585.586 1.611 1.645 1.679 1.712l.009.009a1.186 1.186 0 00.384.224l.136.049-.083.121a1.375 1.375 0 00-.241.774v.014a1.38 1.38 0 00.419.992l.051.046a20.833 20.833 0 0012.289 5.817l.069.009.023.065a2.353 2.353 0 004.4 0l.023-.065.069-.007a20.869 20.869 0 0012.363-5.828l.009-.009a2.019 2.019 0 00.222-.312 1.416 1.416 0 00.227-.691v-.014a1.485 1.485 0 00-.229-.763l-.081-.125.143-.044a1.088 1.088 0 00.548-.351.786.786 0 00.085-.137c.1-.2.266-.58.439-.953a4.924 4.924 0 01.484-.886c.148-.19.574-.488.583-.985v-.046a1.527 1.527 0 00-.166-.539 2.186 2.186 0 00-.1-.189.26.26 0 00-.021-.035l-.028-.05.021-.045a1.928 1.928 0 00.146-.742 2.643 2.643 0 00-.3-1.175.026.026 0 010 .012c0 .011 0 .028-.009.046-.011.041-.025.1-.044.166a5.129 5.129 0 01-.176.541 3.672 3.672 0 01-.247.536l-.062.111-.1-.074a3.752 3.752 0 01-1.4-3.051c0-.194.014-.312.014-.314l.007-.067.062-.025a3.666 3.666 0 011.372-.25 5.3 5.3 0 011.047.113l.023.007.021.014c.053.039.107.081.162.12l.083.057.078.056-.051.088a3.518 3.518 0 01-.46.758 1.578 1.578 0 01-.278.268.627.627 0 01-.081.051.071.071 0 01-.021.009h-.016.016a3.589 3.589 0 001.7-.516l.039-.025.049.011a.753.753 0 00.141.021h.111a1.086 1.086 0 00.819-.381c.828-.929 2.1-1.792 2.636-2.361a1.167 1.167 0 00.317-.7z" fill="#ffc800"/><path data-name="패스 231" d="M42.965 19.652s-.081.329-.983-.266c0 0 .546.7.945.814s.181-.428.037-.548m-.835-1.339s-.012.4-.782.123a1.728 1.728 0 00.9.689c.56.12.192-.483-.113-.812m-.321-.485a4.3 4.3 0 01-1.1-2.537c-.2-1.321-3.05 0-3.05 0-1.4.349-1.942-.017-2.146-.285 0-.007-.06-.049-.028.028a1.746 1.746 0 002.468.826l.31.31a1.71 1.71 0 01-.037-.828c.065-.023.178-.07.305-.1a.494.494 0 01.095.326c.007.155-.083.363-.083.495a.215.215 0 00.092.18 2.047 2.047 0 00.683-.948c.083.023.164.049.243.074-.155.812-.7 1.163-1.008 1.075l-.044-.014c-.99.451-.4.578-.4.578a2.99 2.99 0 001.565-.557c.275.136.56.8.56.8a3.134 3.134 0 01.823.308c.514.481.754.275.754.275M6.952 21.469a7.172 7.172 0 00-3.492 1.656s-.349.268-.328.391c.046.239.326.086.4.014 1.216-1.2 3.446-1.936 3.422-2.061M29.3 33.335l.548 1.173.719 1.269v.014l-1.936-2.144-.419.2 1.536 3.29.435-.2-.564-1.209-.58-1.073-.125-.2v-.011l1.952 2.178.4-.189-1.533-3.293zM2.51 18.734c-.173.291-.324.539-.474.821-.159.305-.414.793-.523 1.018a1.194 1.194 0 00.941-.245A11.683 11.683 0 013.4 17.4c-.259.324-.648.939-.89 1.33m1.575 5.305s-.282.231-.266.335c.033.2.259.07.317.009A14.137 14.137 0 016.885 22.6a5.709 5.709 0 00-2.8 1.436M16.313 8.311l1.332-.576-1.993-4.627-1.334.575.028.06zm10.127-3.64l1.166 3.353 1.327.449L30.549 3.7l-1.376-.465-.9 2.648-1.162-3.346-1.33-.451-1.614 4.775 1.376.465zM20.654 7.2c.1 0 .2 0 .3-.014a2.649 2.649 0 002.514-2.7c0-.1 0-.2-.014-.3a2.748 2.748 0 00-2.995-2.312 2.694 2.694 0 00-2.525 2.59c0 .076 0 .155.009.236a2.65 2.65 0 002.706 2.5m-.06-3.943a1.054 1.054 0 01.12-.007 1.266 1.266 0 011.268 1.075c0 .049.007.1.007.146A1.289 1.289 0 0120.829 5.8a1.122 1.122 0 01-.118.007 1.314 1.314 0 01-1.286-1.241v-.093a1.278 1.278 0 011.17-1.214m9.255 5.23a3.1 3.1 0 001.13 1.492 2.285 2.285 0 001.283.432 1.534 1.534 0 00.171-.009 1.736 1.736 0 001.225-.828 1.319 1.319 0 00.257-.756 1.856 1.856 0 00-.49-1.128l-.208-.262a1.394 1.394 0 01-.2-.307.394.394 0 01-.034-.153c0-.143.108-.222.277-.227a.541.541 0 01.3.1 1.243 1.243 0 01.477.722l.023.081 1.154-.62-.028-.056a3.4 3.4 0 00-1.064-1.256 1.869 1.869 0 00-1.061-.352 1.649 1.649 0 00-1.371.763 1.407 1.407 0 00-.3.8A1.963 1.963 0 0032 8.115c.134.159.358.43.353.629a.255.255 0 01-.044.146.339.339 0 01-.294.155.659.659 0 01-.354-.125 1.673 1.673 0 01-.606-1.029l-.018-.081-1.205.622zm-16.761 2.119l2.292-1.875-.8-.976-1.168.957-2.4-2.925-1.113.92.044.051zM42.6 20.371c.867.939.879.337.879.337-.2.143-.879-.337-.879-.337m2.409 1.759a2.855 2.855 0 00-.4-1.26 37.175 37.175 0 00-2.777-4.477 1.91 1.91 0 01-.185-.68c-.039-.324-.028-.652-.046-.854a1.1 1.1 0 00-.24-.474c-.116-.157-.257-.335-.4-.536-.213-.3-.439-.62-.62-.881s-.319-.465-.329-.486c-.085-.148-.171-.266-.192-.317 0-.011-.009-.021-.014-.03a3.2 3.2 0 00.06-.632v-.018a3.163 3.163 0 00-1.711-2.8 30.132 30.132 0 01-.893-.535A1.479 1.479 0 0037.7 7.1v-.01a1.5 1.5 0 00-.455-1.077L37.2 5.97A20.968 20.968 0 0022.518 0H22.5A20.992 20.992 0 007.8 5.985L7.78 6a1.518 1.518 0 00-.47 1.085V7.1a1.473 1.473 0 00.234.8 7.76 7.76 0 00-.608.343 2.222 2.222 0 00-.87.814c-.12.277-.114.4-.2.631a7.6 7.6 0 01-.377.768c-.143.263-.273.485-.328.61a1.353 1.353 0 00-.088.534 3.954 3.954 0 00.041.535 3.444 3.444 0 00-1.408 2.828 4.535 4.535 0 00.032.518 27.089 27.089 0 00-3.382 5.131A1.973 1.973 0 000 21.632v.011a1.438 1.438 0 00.516 1.131l.139.123.028.021a2.37 2.37 0 00.243.165 5.284 5.284 0 012.04 2.195c0 .014.011.033.021.056a.4.4 0 00.106.148.219.219 0 00.091.046 1.248 1.248 0 00.171.03c.192.023.481.044.483.044h.042a.458.458 0 00.1-.025.999.999 0 00.055.06 2.188 2.188 0 001.55.541.12.12 0 00.118-.106.122.122 0 00-.1-.132c-.037-.011-.326-.153-.654-.99a8.931 8.931 0 012.07-.814 1.723 1.723 0 01.555.377 4.435 4.435 0 00-.169 2.324 2.367 2.367 0 00-.742.929 1.32 1.32 0 00-.1.056 4.36 4.36 0 01-.118-.282 5.91 5.91 0 01-.259-.858.124.124 0 00-.1-.095.121.121 0 00-.123.065 3.14 3.14 0 00-.352 1.39c0 .074 0 .141.009.205a.391.391 0 00-.132-.025.324.324 0 00-.074.009.371.371 0 00-.252.185.522.522 0 00-.05.131v.007a6.537 6.537 0 00-.1 1.1 2.28 2.28 0 00.471 1.594c.606.6 1.681 1.713 1.684 1.716l.012.012a1.39 1.39 0 00.419.247 1.473 1.473 0 00-.262.837v.014a1.5 1.5 0 00.456 1.076l.049.044a20.968 20.968 0 0012.359 5.84 2.464 2.464 0 004.606 0 20.985 20.985 0 0012.435-5.862l.011-.012a2.257 2.257 0 00.234-.329 1.508 1.508 0 00.243-.749.084.084 0 000-.017 1.543 1.543 0 00-.245-.821 1.223 1.223 0 00.6-.389.992.992 0 00.1-.157c.106-.208.268-.586.444-.957a4.99 4.99 0 01.469-.865c.115-.16.592-.491.606-1.053a.355.355 0 000-.053 1.622 1.622 0 00-.176-.58 1.829 1.829 0 00-.1-.2l-.021-.037a1.987 1.987 0 00.153-.786 2.77 2.77 0 00-.307-1.225.12.12 0 00-.224.028 5.118 5.118 0 01-.227.751 4.053 4.053 0 01-.24.525 3.8 3.8 0 01-1.341-3.263 4.11 4.11 0 012.354-.129 4.066 4.066 0 00.25.18 3.64 3.64 0 01-.444.736 1.5 1.5 0 01-.259.249.662.662 0 01-.065.042.052.052 0 01-.017.007.12.12 0 00.044.231h.009a3.7 3.7 0 001.753-.534 1.354 1.354 0 00.268.028h.014a1.192 1.192 0 00.9-.417c.814-.915 2.084-1.774 2.634-2.361a1.287 1.287 0 00.354-.886v-.007zM8.346 6.612l.033-.03A20.148 20.148 0 0122.5.835h.021a20.15 20.15 0 0114.115 5.746l.034.03a.676.676 0 01.2.478.662.662 0 01-.2.477l-.377.372a.406.406 0 00-.113.294.4.4 0 00.009.092 2.392 2.392 0 01.069.578 2.459 2.459 0 01-2.977 2.4h-.024a.345.345 0 00-.1-.014.408.408 0 00-.294.125l-.336.34a.655.655 0 01-.969 0A12.868 12.868 0 0026.9 8.767a12.643 12.643 0 00-8.771 0 12.814 12.814 0 00-4.669 2.978.655.655 0 01-.485.215.664.664 0 01-.484-.213l-.335-.34-.007-.007a.4.4 0 00-.291-.12.351.351 0 00-.1.014h-.018A2.459 2.459 0 018.756 8.9a2.392 2.392 0 01.069-.578.44.44 0 00-.1-.386l-.377-.372a.668.668 0 010-.955m25.41 6.232a1.919 1.919 0 00.786 1.5c-.282-.007-1.288.153-.786-1.5m.421 7.747a11.669 11.669 0 11-3.418-8.254 11.625 11.625 0 013.418 8.254M5.206 25.9a1.714 1.714 0 01-1.006-.435c-.017-.018-.014-.018-.03-.037l.067-.046a4.073 4.073 0 01.347-.224c.049-.03.1-.063.162-.1a3.034 3.034 0 00.463.842m.832 1.163a4.719 4.719 0 00.77 1.623 1.167 1.167 0 01-.541.148.835.835 0 01-.285-.051 2.1 2.1 0 01-.134-.749 2.737 2.737 0 01.189-.971m1.572 2.5a.679.679 0 00-.034.37s-.606-.1-.74-.335a7.149 7.149 0 00.134 1.011 8.046 8.046 0 01-.909-1.145 5.063 5.063 0 00.4 1.716 2.5 2.5 0 01-.729-2.156 1.183 1.183 0 00.271.1c.041.009.083.016.123.021h.021a.981.981 0 00.116.007A1.518 1.518 0 007 28.953a1.8 1.8 0 00.189.011.912.912 0 00.715-.3 1.028 1.028 0 00.111-.166 2.039 2.039 0 00.363.033 1.585 1.585 0 001.1-.423 1.649 1.649 0 00.291-.358 1.507 1.507 0 001.126-.974l.007-.025v-.028a4.58 4.58 0 00-1.059-2.932l-.033-.033-.044-.009a5.487 5.487 0 00-1.2-.13q-.139 0-.277.007h-.067c-.09.007-.18.011-.268.021-.09.009-.178.021-.266.032a.649.649 0 01-.067.009 9.659 9.659 0 00-.255.044l-.254.053-.063.014c-.083.021-.164.039-.243.06-.081.021-.159.044-.238.067l-.06.019c-.076.023-.15.046-.224.072-.076.025-.15.051-.222.078l-.056.021a4.636 4.636 0 00-.206.081 4.144 4.144 0 00-.2.086l-.049.021-.185.081-.181.085-.065.03-.157.079a.012.012 0 01-.009 0c-.051.028-.1.053-.148.081l-.041.021-.121.067-.014.007c-.261.148-.444.271-.529.326L3.441 25c-.034-.074-.072-.143-.108-.215l-.021-.04a7.948 7.948 0 00-.115-.2l-.021-.034a4.897 4.897 0 00-.12-.185s0-.007-.009-.012c-.041-.062-.088-.123-.131-.182-.009-.009-.017-.021-.025-.03-.044-.06-.091-.115-.137-.171-.007-.007-.011-.014-.016-.018-.046-.056-.095-.109-.141-.162 0 0-.007 0-.009-.009-.049-.053-.1-.1-.148-.155l-.021-.021a5.13 5.13 0 00-.15-.146l.256-.095a1.651 1.651 0 011.482-1.145 2.737 2.737 0 01.2-1.517l-.606.539a4.542 4.542 0 00-2.826 1.07 1.141 1.141 0 01-.2-.4.215.215 0 01-.009-.03c0-.017-.007-.035-.009-.051l-.007-.046v-.037-.083a1.193 1.193 0 01.143-.541 1.386 1.386 0 01.1-.16c.025-.037.041-.051.039-.051l.021-.023.009-.028a17.292 17.292 0 011.964-3.251 43.605 43.605 0 011.447-1.891l.044-.053-.017-.066a3.836 3.836 0 01-.05-.6A2.911 2.911 0 015.393 12.6c.065-.049.115-.083.153-.107l.051-.03.092-.049-.072-.964a16.377 16.377 0 001.044-2.318c.092-.046.18-.095.263-.143.028-.014.053-.03.081-.044.055-.033.111-.065.164-.1l.086-.053L7.4 8.7c.025-.017.051-.033.076-.051.046-.03.09-.058.131-.088l.065-.044c.044-.033.085-.06.127-.09l.043-.027.271-.2.095.095a2.981 2.981 0 00-.06.609v.007a9.989 9.989 0 01-1.142.5l-.641 1.259s.807-.067 1.043 1.077a4.026 4.026 0 011.283-1.1c.035.049.072.1.109.146a2.154 2.154 0 00-.853 1.126l.3.134a5.29 5.29 0 011.156-.675 3.033 3.033 0 00.37.231 2.976 2.976 0 00-.953.712l.2.2s.911-.507 1.077.472-.874 1.144-1.177 1.144a1.314 1.314 0 00.4.74 1.777 1.777 0 01-1.954 0 2.671 2.671 0 00-2.514-.328 1.3 1.3 0 00-.146 1.108 1.439 1.439 0 00-.576.848 1.461 1.461 0 01-.536.731 2.808 2.808 0 002.155-.979s.74.81 1.852-.571a1.9 1.9 0 002.289-.1 2.528 2.528 0 01-1.852.707 3.537 3.537 0 01.775 1.077 2.649 2.649 0 00-1.482-.506 2.647 2.647 0 00.606 1.246 2.163 2.163 0 00-1.716-.3 3.833 3.833 0 002.458 1.549 2.453 2.453 0 00-.841.506 1.729 1.729 0 001.447.067s-.909.5-1.314.673A3.506 3.506 0 009.9 20.4v.345a2.235 2.235 0 01-.236.867 3.286 3.286 0 00-1.212-.673 2.423 2.423 0 01.3 2.088s.252.391 1.246.347h.206a12.538 12.538 0 001.473 3.684 3.631 3.631 0 01-.534.148l.606.335a12.258 12.258 0 01-1.415.4 3.488 3.488 0 00.439.37 5.686 5.686 0 01-1.651.506 1.579 1.579 0 00.4.3s-.774.2-1.011.067l-.067.539s-.675.067-.842-.169m1.02-4.951a.422.422 0 01.472-.04c.259.2.067.384-.139.768-.33.625.111 1.053-.21 1.677s-.724.8-.867.689c-.217-.164.1-.509.208-.784.229-.592-.282-1.443.536-2.31m-1.966-9.327l.039-.014c.067.023.125.046.165.06.09.685-.037 1.015-.329 1.1-.31.088-.853-.263-1.006-1.076.069-.025.143-.046.22-.069a1.881 1.881 0 00.629.987.118.118 0 00.058-.113c-.016-.239-.083-.747.224-.874m30.126 19.184c-.025.033-.083.1-.1.13a19.383 19.383 0 01-12.52 5.7 1.654 1.654 0 01-3.3 0 19.371 19.371 0 01-12.518-5.7 2.285 2.285 0 00-.107-.13.57.57 0 01-.111-.381.852.852 0 01.3-.553c.127-.134.294-.3.294-.3a.543.543 0 00.091-.157.375.375 0 000-.183 2.467 2.467 0 01-.081-.6 2.422 2.422 0 012.419-2.426 2.337 2.337 0 01.6.074.364.364 0 00.181 0 .278.278 0 00.192-.115c.033-.033.206-.227.361-.368a.671.671 0 011.1.06 11.616 11.616 0 003.975 2.678 12.655 12.655 0 009.9 0 11.581 11.581 0 003.984-2.68.764.764 0 01.576-.317.731.731 0 01.523.257 3.848 3.848 0 01.361.368.266.266 0 00.192.115.429.429 0 00.183 0 2.308 2.308 0 01.6-.074 2.421 2.421 0 012.419 2.426 2.357 2.357 0 01-.079.6.336.336 0 000 .183.548.548 0 00.09.157s.181.176.294.3a.868.868 0 01.3.553.569.569 0 01-.111.381m2.386-7.09a2.349 2.349 0 01.148.8 1.852 1.852 0 01-.1.622l-.018.046-.109.033a1.766 1.766 0 01-.414.06 1.3 1.3 0 01-.287-.041 3.825 3.825 0 00.784-1.524m-.525 1.883a2.379 2.379 0 00.414-.035 3.19 3.19 0 01.16.358c.092.391-.076.423-.171.463-.987.4-1.02 1.685-1.6 1.447-.685-.284.143-2.174.143-2.174s-1.339.5-1.622.285.239-.808.239-.808-1.163.292-1.4.127.173-.763.173-.763-.8.379-1.149.189.333-.855.333-.855-.759.317-.995.127a.219.219 0 01-.06-.206 12.17 12.17 0 00.856-1.563v.009c-.009.049-.019.1-.025.15a3.542 3.542 0 00-.042.513 1.235 1.235 0 00.245.839 6.7 6.7 0 001.864 1.166 6.906 6.906 0 002.632.729m-1.26-.913a2.119 2.119 0 01-1.369-1.087c-.481-.883.243-1-.319-1.406s-.664-.932-.2-1.087c.24-.079.442-.04.844.2s.321.643.361 1.81a2.016 2.016 0 00.684 1.568m2.1-2.324a3.329 3.329 0 00.536-.839 2.765 2.765 0 00.759.354 3.111 3.111 0 01-1.3.485m4.988-3.8a.7.7 0 01-.009.074l-.386-.312-.206.205a2.073 2.073 0 00-1.748-.617l-.96.617a1.606 1.606 0 011.619 1.748c-.095.079-.189.162-.285.245-.009.009-.021.017-.03.025-.088.079-.176.157-.262.239l-.023.021a15.096 15.096 0 00-.308.302 4.895 4.895 0 00-.243.257.658.658 0 01-.511.236 1.98 1.98 0 01-.964-.377c-.076-.051-.155-.1-.229-.157a8.048 8.048 0 00-1-.705 5.574 5.574 0 00-1.825-.285h-.324l-.107.007h-.057c-.042 0-.083.007-.125.012h-.04c-.046 0-.092.011-.139.018h-.023c-.051.007-.1.016-.155.025h-.009a3.877 3.877 0 00-1.625.715c.058-.176.111-.353.16-.532a6.084 6.084 0 013.4-.52 7.32 7.32 0 00-2.444-.22l-.252-.3a3.628 3.628 0 00-.539.356c.03-.131.058-.263.081-.4a3.017 3.017 0 01.765-.331l.275-.893a4.8 4.8 0 01-.848-.4c.009-.16.014-.32.016-.479.622.273 1.14.5 1.346.608 0 0-.206-.652.96-.789 0 0-1.076-.182-2.311-.427 0-.091-.007-.183-.011-.273a5.927 5.927 0 004.038-.569 7.117 7.117 0 01-1.751.1A3.8 3.8 0 0039 18.306a4.179 4.179 0 01-2.056.31 5.592 5.592 0 001.61-1.166 8.672 8.672 0 01-2.5.583 5.1 5.1 0 001.372-.789l-1.258.1.34-.513a3.042 3.042 0 01-2-1.855l.608.074s-.5-1.845.585-2.375a5.76 5.76 0 00-1.115-.419 5.253 5.253 0 011.646.132 1.208 1.208 0 00-.347-.365 2.61 2.61 0 00-.59-.3s1.269-.069 1.646.308a3.981 3.981 0 00-.687-.925 3.026 3.026 0 011.2.754l.31-.035a3.613 3.613 0 00-.412-1.3 3.315 3.315 0 01.995 1.337.964.964 0 00.906.273l-.014.044.021.051a4.521 4.521 0 00.259.534 2.193 2.193 0 00.615.745 4.112 4.112 0 00.24.541 2.149 2.149 0 00.691.819v.018a7.645 7.645 0 00.049.888 1.963 1.963 0 00.3.955 36.779 36.779 0 012.722 4.394 2.343 2.343 0 01.335 1.011v.079M22.508 9.967A10.623 10.623 0 1033.13 20.591 10.625 10.625 0 0022.508 9.967m6.129 16.9H18.159v-1.392h.467a.928.928 0 00.92-.937l-.009-9a.93.93 0 00-.93-.93h-.439v-1.05h6.08v1.062h-.486a.94.94 0 00-.932.939v9.618h3.036a.787.787 0 00.752-.821 5.5 5.5 0 01-.025-.451 2.09 2.09 0 011.159-1.857l.687.687a1.787 1.787 0 00.206 2.8zm-24.793-3.3s-.317.255-.3.37c.039.224.291.076.356.009a15.811 15.811 0 013.083-1.968 6.406 6.406 0 00-3.141 1.588m30.231 10.417l-2.065-2.46-.37.31 2.335 2.782.987-.83-.268-.321zm-11.768.98l-.726 3.644.472-.009.123-.71.722-.012.148.705.485-.009-.842-3.617zm.511 2.539l-.578.009.257-1.848h.011l.206 1.318zm2.016-2.721l-1.582.2.051.414.564-.069.391 3.189.479-.057-.391-3.189.539-.067zm-2.324 4.341a1.012 1.012 0 101.011 1.013 1.013 1.013 0 00-1.011-1.013m0 1.81a.8.8 0 11.8-.8.8.8 0 01-.8.8m4.424-6.69c-.89.289-.525 1.441-.321 2.066s.585 1.769 1.473 1.48.525-1.441.321-2.066-.585-1.769-1.473-1.48m1.011 3.115c-.361.118-.608-.477-.847-1.209s-.386-1.357-.025-1.475.611.477.849 1.209.386 1.357.023 1.475M5.969 18.128c-.095 1.9 1.494 1.269 1.494 1.269a2.862 2.862 0 01-1.494-1.269m24.548 14.493l1.316 3.479.4-.256-.273-.668.606-.393.5.52.407-.264-2.631-2.622zm.541.488l.871 1.006.368.388-.485.314-.763-1.7zm-5.871 1.611l.691 3.566.474-.092-.693-3.563zm-2.461 5.432a.306.306 0 00.2-.3c0-.21-.162-.354-.43-.356a.739.739 0 00-.321.07l-.018.007v1.119h.222v-.474h.062a.135.135 0 01.139.095l.182.379h.247l-.21-.433a.522.522 0 00-.07-.106m-.256-.13h-.095v-.314a.583.583 0 01.118-.012c.157 0 .2.06.206.16 0 .123-.065.159-.229.166m15.511-18.965c-.016.079.419.176.971.516a17.279 17.279 0 011.9 1.519c.065.046-.009.146-.028.13-1.9-1.478-3.774-1.7-3.753-1.452.009.1.432.1.964.3a12.266 12.266 0 012.613 1.4c.053.035-.009.092-.041.086-2.2-.777-4.2-1.226-4.17-.956.009.114.633.125 1.4.34 1.061.3 2.451.83 3.372 1.179.028-.009.153.034.421-.194.213-.2.183-.3.183-.3-2.072-2.253-3.779-2.828-3.83-2.565m-25.394 10.11l-2.43 2.7.356.321 2.431-2.7zM14.3 32.5l-.745 1.061-.74 1.258h-.011l.888-2.748-.379-.266-2.083 2.976.4.275.765-1.092.638-1.04.113-.211h.014l-.911 2.78.366.256 2.083-2.976zM8.03 22.078a1.694 1.694 0 00-.948-1.115 2.584 2.584 0 01.21 2.37 1.913 1.913 0 001.276-.315 2.42 2.42 0 00-.5-2.178 3.437 3.437 0 01-.037 1.237m12.747 14.1l-.09 1.457-.009.007-.455-2.849-.458-.065-.507 3.6.477.067.187-1.32.1-1.219v-.236l.012-.009.448 2.888.444.062.507-3.6-.479-.067zm-2.294-1.767l-.557-.148-.941 3.508.465.125.461-1.718h.009l.173 1.887.484.13-.19-1.88c.407.033.639-.444.726-.772.236-.882-.289-1.041-.629-1.133m.109 1.1c-.095.354-.275.543-.617.428l.31-1.159.074.019c.356.085.323.377.233.712m-1.746.467l.152-.384-.673-.273.427-1.059.754.3.157-.388-1.2-.485-1.36 3.367 1.2.486.155-.389-.754-.3.462-1.143zm-.793-2l.2-.37-1.408-.747-.2.37.5.266-1.508 2.837.426.227 1.508-2.838z" fill="#003b88"/><path data-name="패스 232" d="M55.483 17.122V3.819h3.124v10.695h3.675v2.608z" fill="#82705b"/><path data-name="패스 233" d="M65.06 5.858a1.622 1.622 0 01-1.672-1.562 1.638 1.638 0 011.672-1.579 1.655 1.655 0 011.691 1.579 1.639 1.639 0 01-1.691 1.562m-1.507 1.36h3.032v9.9h-3.032z" fill="#82705b"/><path data-name="패스 234" d="M72.711 17.342c-2.958 0-4.648-2.222-4.648-5.18s1.691-5.164 4.648-5.164 4.648 2.205 4.648 5.164-1.69 5.18-4.648 5.18m0-7.992c-1.066 0-1.616.955-1.616 2.775s.55 2.793 1.616 2.793 1.617-.973 1.617-2.793-.551-2.775-1.617-2.775" fill="#82705b"/><path data-name="패스 235" d="M84.311 17.123v-6.431a1.24 1.24 0 00-1.4-1.323 3.259 3.259 0 00-1.14.2v7.552h-3.032V7.715a11.2 11.2 0 014.135-.717c3.106 0 4.466 1.195 4.466 3.344v6.78z" fill="#82705b"/><path data-name="패스 236" d="M92.003 17.342a8.175 8.175 0 01-3.363-.716l.956-2.279a5.827 5.827 0 002.317.631c.7 0 1.14-.331 1.14-.826 0-.57-.552-.81-1.268-1.066-1.176-.423-2.885-1.03-2.885-3.051 0-1.854 1.416-3.032 3.841-3.032a6.757 6.757 0 013.215.717l-.9 2.04a4.573 4.573 0 00-1.911-.552c-.716 0-1.139.331-1.139.808 0 .606.551.847 1.286 1.1 1.213.422 2.922.974 2.922 3.051 0 1.947-1.4 3.177-4.207 3.177" fill="#82705b"/><path data-name="패스 237" d="M106.56 17.342c-2.977 0-5.329-2.259-5.329-6.87s2.352-6.873 5.329-6.873a5.585 5.585 0 012.9.717l-.955 2.482a2.65 2.65 0 00-1.543-.479c-1.526 0-2.517 1.471-2.517 4.116s.992 4.133 2.517 4.133a2.665 2.665 0 001.543-.5l.955 2.554a5.438 5.438 0 01-2.9.716" fill="#82705b"/><path data-name="사각형 128" fill="#82705b" d="M110.71 2.699h3.032v14.423h-3.032z"/><path data-name="패스 238" d="M119.842 17.341c-2.9 0-4.373-1.083-4.373-3.766V7.218h3.032v6.43c0 .846.459 1.233 1.341 1.233a3.135 3.135 0 001.1-.148V7.218h3.032v9.407a10.642 10.642 0 01-4.133.716" fill="#82705b"/><path data-name="패스 239" d="M129.401 17.34a9.506 9.506 0 01-3.711-.716V2.698h3.032v4.685a4.552 4.552 0 011.558-.293c2.573 0 4.337 1.727 4.337 4.759 0 3.712-1.855 5.493-5.219 5.493m.275-7.974a2.442 2.442 0 00-.955.2v5.292a2.738 2.738 0 00.882.127c1.25 0 1.984-1.046 1.984-2.884 0-1.746-.7-2.738-1.912-2.738" fill="#82705b"/><path data-name="패스 240" d="M138.718 17.342a8.178 8.178 0 01-3.363-.716l.956-2.279a5.827 5.827 0 002.316.626c.7 0 1.138-.331 1.138-.826 0-.57-.551-.81-1.267-1.066-1.178-.423-2.885-1.03-2.885-3.051 0-1.854 1.414-3.032 3.84-3.032a6.763 6.763 0 013.215.717l-.9 2.04a4.581 4.581 0 00-1.91-.552c-.717 0-1.14.331-1.14.808 0 .606.551.847 1.285 1.1 1.214.422 2.923.974 2.923 3.051 0 1.947-1.4 3.177-4.208 3.177" fill="#82705b"/><path data-name="사각형 129" fill="#82705b" d="M55.484 21.627h3.124v13.302h-3.124z"/><path data-name="패스 241" d="M65.994 34.929v-6.424a1.24 1.24 0 00-1.4-1.326 3.231 3.231 0 00-1.14.2v7.551h-3.032v-9.408a11.254 11.254 0 014.135-.715c3.1 0 4.464 1.194 4.464 3.344v6.778z" fill="#82705b"/><path data-name="패스 242" d="M74.324 35.095c-2.058 0-2.923-1.122-2.923-3.344v-4.465h-1.175v-2.26h1.178v-2.113l2.959-.826v2.939h1.728v2.26h-1.728v4.244c0 .68.4.9.974.9a1.817 1.817 0 00.753-.166v2.5a4.565 4.565 0 01-1.764.331" fill="#82705b"/><path data-name="패스 243" d="M86.224 30.374l-6.172.809a2.2 2.2 0 002.407 1.616 6.676 6.676 0 002.792-.606l.846 2.241a9.914 9.914 0 01-3.878.717c-3.435 0-5.126-2.243-5.126-5.182 0-3.032 1.764-5.162 4.741-5.162 2.884 0 4.427 1.929 4.427 4.648a7.566 7.566 0 01-.037.918m-4.463-3.437c-1.066 0-1.894.735-1.912 2.37l3.492-.442c0-1.249-.606-1.929-1.579-1.929" fill="#82705b"/><path data-name="패스 244" d="M92.826 27.379a3.4 3.4 0 00-1.121-.185 2.857 2.857 0 00-1.03.166v7.569h-3.032v-9.407a12.152 12.152 0 014.3-.715 9.232 9.232 0 011.434.109z" fill="#82705b"/><path data-name="패스 245" d="M100.03 34.929v-6.424a1.241 1.241 0 00-1.4-1.326 3.236 3.236 0 00-1.14.2v7.551h-3.028v-9.408a11.257 11.257 0 014.135-.715c3.106 0 4.466 1.194 4.466 3.344v6.778z" fill="#82705b"/><path data-name="패스 246" d="M108.999 35.151c-3.124 0-4.668-1.159-4.668-3.272 0-2.627 2.684-3.233 5.679-3.4v-.387c0-.791-.554-1.159-1.581-1.159a8.214 8.214 0 00-2.811.606l-.735-2.021a11.355 11.355 0 013.916-.714c2.7 0 4.062 1.027 4.062 3.656v5.974a9.577 9.577 0 01-3.858.717m1.011-4.778c-1.637.074-2.868.257-2.868 1.434 0 .807.681 1.249 1.765 1.249a3.978 3.978 0 001.1-.148z" fill="#82705b"/><path data-name="패스 247" d="M118.154 35.095c-2.057 0-2.922-1.122-2.922-3.344v-4.465h-1.175v-2.26h1.175v-2.113l2.958-.826v2.939h1.727v2.26h-1.727v4.244c0 .68.4.9.973.9a1.812 1.812 0 00.754-.166v2.5a4.557 4.557 0 01-1.764.331" fill="#82705b"/><path data-name="패스 248" d="M122.999 23.667a1.575 1.575 0 110-3.143 1.576 1.576 0 110 3.143m-1.506 1.359h3.032v9.9h-3.032z" fill="#82705b"/><path data-name="패스 249" d="M130.652 35.151c-2.958 0-4.65-2.225-4.65-5.182s1.691-5.162 4.65-5.162 4.649 2.2 4.649 5.162-1.69 5.182-4.649 5.182m0-7.992c-1.066 0-1.617.955-1.617 2.773s.551 2.793 1.617 2.793 1.617-.973 1.617-2.793-.552-2.773-1.617-2.773" fill="#82705b"/><path data-name="패스 250" d="M142.408 34.929v-6.424a1.24 1.24 0 00-1.4-1.326 3.232 3.232 0 00-1.139.2v7.551h-3.032v-9.408a11.247 11.247 0 014.133-.715c3.1 0 4.464 1.194 4.464 3.344v6.778z" fill="#82705b"/><path data-name="패스 251" d="M151.379 35.151c-3.123 0-4.667-1.159-4.667-3.272 0-2.627 2.682-3.233 5.679-3.4v-.387c0-.791-.552-1.159-1.581-1.159a8.224 8.224 0 00-2.811.606l-.733-2.021a11.346 11.346 0 013.912-.715c2.7 0 4.061 1.027 4.061 3.656v5.975a9.576 9.576 0 01-3.859.717m1.011-4.778c-1.637.074-2.867.257-2.867 1.434 0 .807.68 1.249 1.765 1.249a3.965 3.965 0 001.105-.152z" fill="#82705b"/><path data-name="사각형 130" fill="#82705b" d="M156.968 20.506H160v14.423h-3.032z"/></g></svg>