<svg xmlns="http://www.w3.org/2000/svg" width="176.579" height="34.4"><defs><clipPath id="a"><path data-name="사각형 114" fill="none" d="M0 0h176.579v34.4H0z"/></clipPath></defs><g data-name="그룹 109"><g data-name="그룹 108" clip-path="url(#a)"><path data-name="패스 84" d="M76.416 20.525a5.109 5.109 0 01.229.671c.042.154-.028.3-.214.443a1.431 1.431 0 00-.311.278 2.339 2.339 0 00-1.114.983q-.492.754-.525.819a1.625 1.625 0 01-.9.934l-.8.409a2.245 2.245 0 01-1.474.28 3.893 3.893 0 01-.623-.181 10.486 10.486 0 01-1.376-.884 14.35 14.35 0 01-.426-.363 2.1 2.1 0 00-1.393-.522 2.5 2.5 0 00-.507.13.729.729 0 00-.688.673c-.045.383-.066.594-.066.638a13.173 13.173 0 01.099 1.344 1.5 1.5 0 00.262.673c.152.227.24.354.263.375a1.215 1.215 0 01-.067 1.425 5.355 5.355 0 01-.557.64c-.546.915-.939 1.578-1.179 1.982s-.371.618-.393.64a3.648 3.648 0 01-1.852.673l-.9.015a12.069 12.069 0 00-1.835-.1l-.656.031a27.432 27.432 0 01-2.9.084 44.38 44.38 0 00-.968-.051 23.061 23.061 0 00-3.571-.1c-.918.065-1.4.1-1.441.1a2.274 2.274 0 01-1.557-.081l-.738-.344a2.386 2.386 0 01-1.066-1.339c-.1-.459-.146-.7-.146-.722a9.736 9.736 0 01-.165-1.033c-.022-.25-.033-.388-.033-.409a1.109 1.109 0 00-.262-.654 2.041 2.041 0 00.262-1.13v-.77a1.148 1.148 0 00-.525-.754 3.119 3.119 0 00-.425-.23c-.525-.085-.9-.135-1.115-.146s-.339-.016-.359-.016a4.161 4.161 0 00-1.377.2 2.808 2.808 0 01-.392.163q-.853.625-1.246.869a2.878 2.878 0 01-.425.245q-.622.361-.983.115a5.51 5.51 0 01-.392-.278 4.6 4.6 0 01-.837-.853 8.188 8.188 0 00-.31-.425 1.52 1.52 0 01-.247-1.688c.274-.535.42-.813.443-.835a4.161 4.161 0 01.983-.868 3.04 3.04 0 01.426-.215 1.744 1.744 0 011-.032 4.517 4.517 0 00.442.131 1.591 1.591 0 001.049.049 3.826 3.826 0 00.622-.18 7.414 7.414 0 011.737-.49c.414-.046.633-.067.656-.067l2.031-.067a.341.341 0 00.214-.212 1.092 1.092 0 00.081-.214c.108-.633.191-1.152.245-1.555s.082-.618.082-.64a4.132 4.132 0 01.457-2.622 6.175 6.175 0 01.591-.622 9.247 9.247 0 00.918-.852 10.374 10.374 0 014.734-2.638q2.507-.573 2.671-.607a4.5 4.5 0 012.523.362 7.435 7.435 0 011.113.589 1.649 1.649 0 00.689.164h.36a1.442 1.442 0 01.951.049 3.493 3.493 0 01.393.212 7.34 7.34 0 011.574 1.263c.546.558.83.857.852.9a.848.848 0 01.311.606l.016.377-.229 1.015a.4.4 0 01-.214.346.937.937 0 01-.213.082q-.326.065-.359.522c-.023.307-.033.47-.033.492a7.4 7.4 0 00.082 1.7c.075.308.114.469.114.492q.1.329.7.361c.4.022.617.033.64.033l2.424-.034 3.407.034a14.443 14.443 0 002.458-.132c.414-.088.634-.131.656-.131.263-.087.469.071.622.475M69.109 5.78a1.8 1.8 0 01.164.311q.228.361-.2.852a6.318 6.318 0 00-.459.559q-.658 1.506-1.275 1.698c-.414.131-.633.2-.655.2-.655-.216-1.136-.381-1.442-.489s-.469-.164-.491-.164a5.1 5.1 0 00-1.523.082c-.406.1-.619.147-.639.147a7.641 7.641 0 01-2.818.181q-1.77-.147-1.934-.181a13.017 13.017 0 01-2.981.376c-1.181.035-1.814.049-1.9.049a3.706 3.706 0 01-1.3-.213 4.423 4.423 0 01-.608-.247 1.647 1.647 0 00-1.588.084c-.448.3-.693.453-.738.474a2.579 2.579 0 01-1.523.819h-.64c-.481-.241-.752-.5-.819-.768s-.1-.421-.1-.444a2.318 2.318 0 01.557-2c.547-.763.841-1.168.885-1.211a1.77 1.77 0 011.245-.639c.392.012.6.016.622.016q.427.23.7.409a1.616 1.616 0 00.312.181 1.99 1.99 0 00.754.065c.306-.023.471-.032.492-.032a11.536 11.536 0 012.114-.115c.579.034.878.05.9.05a1.418 1.418 0 00.868-.279 1.346 1.346 0 00.279-.28 1.608 1.608 0 00.409-1.735q-.344-.886-.377-.918-1.068-1.342-.644-1.869t.459-.556a1.832 1.832 0 012.341.623q1 1.214 1.064 1.344a2.793 2.793 0 01.492 1.459q.034.769.034.834-.134.754.245.9a3.5 3.5 0 00.409.147 9.373 9.373 0 002.015.049 44.09 44.09 0 011.2-.083 3.177 3.177 0 001.211-.166 2.911 2.911 0 01.393-.164q.395-.622 1.851-.278t1.59.377a1.931 1.931 0 011.048.54m-14.5 21.512c.077-.327.115-.5.115-.527a1.253 1.253 0 00-.294-.719c-.218-.327-.339-.5-.36-.525a.983.983 0 01-.083-.836 2.558 2.558 0 01.181-.442.908.908 0 00-.164-.754.816.816 0 00-.361-.294 4.866 4.866 0 00-2.44.508q-.739.476-.771.508a2.679 2.679 0 00-1.1 1.884q-.049 1-.05 1.065a1.338 1.338 0 00.9 1.425 9.929 9.929 0 00.968.312 6 6 0 002.1-.2 5.608 5.608 0 00.59-.262 2.662 2.662 0 00.769-1.146m.05-7.537a1.479 1.479 0 00.36-.787c0-.02-.016-.164-.049-.425a3.187 3.187 0 00-.377-1.015q-.033-.066-.294-.722a1.485 1.485 0 01-.1-1.083c.107-.195.107-.337 0-.425q-.034-.033-.426-.278c-.262-.164-.449-.214-.557-.148q-.361.133-.853.327a1.726 1.726 0 00-.311.164.71.71 0 00-.344.492c0 .023-.016.147-.049.377s-.1.563-.213 1c0 .023-.027.215-.082.575a1.126 1.126 0 00.247.933c.021.022.178.218.474.59a1.232 1.232 0 001.066.524c.042 0 .18.005.408.016a5.517 5.517 0 001.1-.115m7.782-1.212a2.515 2.515 0 00.346-1.435c0-.042-.044-.3-.131-.769a4.957 4.957 0 00-.951-1.818q-.033-.034-.771-.509a2.209 2.209 0 00-1.751-.245c-.023 0-.144.011-.363.032a7.133 7.133 0 01-.982 0c-.023 0-.231.022-.623.067s-.579.3-.556.753c0 .021.021.136.064.344a.519.519 0 00.395.408q.1.067 1.211.935a2.454 2.454 0 011.147 1.687c0 .022.012.124.034.311a5.107 5.107 0 01.033.575 1.564 1.564 0 00.081.261c.054.153.266.273.638.362.022 0 .138.011.344.032a2.134 2.134 0 00.64-.032 1.453 1.453 0 00.263-.1 3.271 3.271 0 00.557-.328c.022-.022.147-.2.377-.524m.524 8.158a12.372 12.372 0 00.377-2.064 5.177 5.177 0 00-.247-.687q-.243-.622-1.03-.393c-.023 0-.236.017-.64.05a1.686 1.686 0 01-1-.182 3.581 3.581 0 00-.394-.211 2.12 2.12 0 00-.786-.213 1.076 1.076 0 00-.687.394c-.022.021-.111.115-.262.279a.323.323 0 00.033.507c.02.023.125.17.312.443a4.461 4.461 0 01.508 1.392l.015.655a1.79 1.79 0 01-.638 1.279 3.319 3.319 0 00-.214.524c-.121.327.1.482.673.459.021 0 .141 0 .359.016s.655-.006 1.311-.05q.066 0 .835-.229a2.059 2.059 0 001.228-1.246 5.562 5.562 0 00.246-.722" fill="#1a1311"/><path data-name="패스 85" d="M101.877 10.711a2.142 2.142 0 01-.13.49 3.013 3.013 0 00-.442 1.7c-.078.94-.114 1.452-.114 1.541l.064 5.175q.066 2.065.116 2.917t.048.916a5.3 5.3 0 01-.164 1.771 3.994 3.994 0 01-.229.589 5.958 5.958 0 01-1.606 2.082c-.59.447-.905.683-.948.7a2.607 2.607 0 01-1.59.491c-.47-.045-.727-.067-.77-.067q-1.541-.294-2.145-.375c-.406-.055-.618-.084-.639-.084h-2.689l-3.113-.1a9.752 9.752 0 00-2.588.214q-.917.245-.982.277a16.759 16.759 0 01-1.623.64c-.274.074-.42.114-.442.114-.328.2-.559.034-.689-.492s-.2-.8-.2-.819a4.751 4.751 0 00-.59-1.751c-.262-.4-.4-.616-.427-.64q-.294-.063.2-.885c.327-.546.5-.829.525-.851.263-.59.453-1.055.574-1.391s.18-.52.18-.542q.195-1.409.359-2.065c.11-.435.164-.666.164-.689a14.041 14.041 0 00.328-2.669 55.591 55.591 0 01-.033-.77q-.263-1.736-.377-2.474a22.756 22.756 0 01-.115-.77 27.532 27.532 0 00-.098-1.704 7.5 7.5 0 01-.262-1.343 1.5 1.5 0 01.443-1.163c.3-.274.452-.421.474-.443.262-.13.475-.229.64-.294a1.633 1.633 0 01.279-.1 16.124 16.124 0 013.964-1.179c.9-.085 1.364-.13 1.41-.13a22.1 22.1 0 012.833-.016q1.393.081 1.458.08l3.081.067a7.68 7.68 0 012.294 0 5.1 5.1 0 01.688.2 6.475 6.475 0 011.653 1.672c.6.808.913 1.235.934 1.278a.961.961 0 01.294.886m-5.027 13.6a2.515 2.515 0 00.541-.655 8.4 8.4 0 00.179-.836 4.413 4.413 0 00-.279-2.081 5.616 5.616 0 00-.491-.884 11.39 11.39 0 00-.409-.31 2.126 2.126 0 00-1.524-.05c-.044 0-.329.005-.853.017a11.631 11.631 0 01-1.769-.116l-2.621-.065-2.162.065c-.021 0-.136-.01-.344-.033a4.154 4.154 0 00-.868.033c-.021 0-.2.032-.539.1s-.5.294-.476.687l-.016.46c-.01.285.015.872.082 1.768 0 .022 0 .153.017.394a2.951 2.951 0 01-.083.787 1.949 1.949 0 00.1.3q.1.262.688.491a5.573 5.573 0 00.558.278 2.913 2.913 0 001.343.214l2.457-.034q.065 0 1.1.1a9.152 9.152 0 002.05-.034c.042 0 .33-.021.865-.066a3.44 3.44 0 011.229.066c.023 0 .132-.016.329-.049a1.274 1.274 0 00.557-.247c.022-.023.136-.12.344-.3m.7-10.321a8.151 8.151 0 00-.034-2.163 3.015 3.015 0 00-.146-.492 1.873 1.873 0 00-.8-.853 5.962 5.962 0 00-.475-.261 2.009 2.009 0 00-1.394.033c-.021 0-.365.042-1.03.13a29.234 29.234 0 01-3.032.165h-3.5c-.021 0-.159.027-.409.081s-.4.136-.442.245a4.846 4.846 0 00-.263.541 3.155 3.155 0 00-.229 1.293.9.9 0 010 .59l.017.72a5.223 5.223 0 00.344 1.607 1.409 1.409 0 00.262.3 2.124 2.124 0 001.246.328c.021 0 .153.015.393.049a6.912 6.912 0 001.114.017c.02 0 .164-.016.425-.049s.786-.06 1.572-.083h2.426c.042 0 .355-.009.934-.031a18.952 18.952 0 002.375-.3c.023 0 .092-.055.213-.164a1.277 1.277 0 00.28-.689c.021-.043.075-.381.164-1.015" fill="#1a1311"/><path data-name="패스 86" d="M128.304 4.534a5.485 5.485 0 01-.147.607 5.759 5.759 0 01-.59 1.294 2.816 2.816 0 01-.395.541.8.8 0 01-.655.326c-.308.023-.471.034-.491.034a6.843 6.843 0 00-.788-.067h-.294c-.286-.044-.47.018-.557.182a1.367 1.367 0 00-.132.278 6.8 6.8 0 00-.067.836 4.551 4.551 0 01-.391 1.556c-.154.348-.18.579-.082.688s.159.163.179.163a1.709 1.709 0 00.853.2c.24-.022.37-.033.393-.033.436-.174.676-.121.722.164s.066.438.066.458a4.848 4.848 0 01-.492 1.507c-.2.327-.306.5-.327.525a1.289 1.289 0 01-.8.459 6.465 6.465 0 01-.638.132c-.547.044-.868.154-.968.329a1.419 1.419 0 00-.147.294c-.023.435.088.7.329.786a3.207 3.207 0 00.391.13 6.911 6.911 0 001.23.082l.573-.015c.546-.132.807-.011.788.359a3.2 3.2 0 01-.067.622 2.177 2.177 0 00-.132.427 8.457 8.457 0 01-.279.916 3.86 3.86 0 00-.146.427 1.956 1.956 0 01-.59.753q-1.147.13-1.555.148l-.442.016a.78.78 0 00-.639.1c-.121.109-.181.175-.181.2a2.859 2.859 0 00-.573 1.131c-.1.4-.147.617-.147.641a11.631 11.631 0 00.147 2.276c.119.709.191 1.1.214 1.163a17.43 17.43 0 01.048 3.1c-.077.97-.115 1.478-.115 1.521l.067 2.785c.02.744-.11 1.17-.395 1.28a4.561 4.561 0 01-.458.164 1.758 1.758 0 01-1.492-1.327c-.273-.8-.42-1.219-.442-1.263a6.642 6.642 0 01-.215-2.523c.077-1 .117-1.549.117-1.639a18.88 18.88 0 01.13-3.244c.13-.938.207-1.441.229-1.506a2.531 2.531 0 00-.115-1.229 3.667 3.667 0 00-.212-.378c-.349-.435-.661-.644-.935-.622s-.42.033-.443.033q-.489.262-.26.984c.153.48.24.742.26.785a1.587 1.587 0 01.3 1.082c-.021.436-.032.677-.032.721a21.011 21.011 0 01-.754 3.555 4.085 4.085 0 01-.393.868 2.428 2.428 0 01-.936 1.049 4.856 4.856 0 01-.54.261 7.34 7.34 0 01-3.194.411c-.709-.144-1.087-.225-1.13-.247q-1.605-.554-1.72-1.555a9.891 9.891 0 00-.147-1.066c-.023-.413.263-.627.852-.639l.918-.016a4.911 4.911 0 002.835-.656 11.062 11.062 0 001.194-.786 3.063 3.063 0 00.982-1.391c.2-.557.308-.847.329-.87q.363-1.607-.081-1.9a3.876 3.876 0 00-.476-.3 9.731 9.731 0 00-2.737-.049c-1.365.1-2.1.159-2.211.181q-1.5.392-1.736-.312a12.07 12.07 0 00-.263-.77q.264-1.637.442-2.31a2.587 2.587 0 00.148-.706 1.058 1.058 0 011.147-.8 5.459 5.459 0 01.886.081 15.468 15.468 0 001.638.395c.305.044.469.064.491.064a11.9 11.9 0 011.408.363c.393.131.6.2.624.2a5.745 5.745 0 001.606.229c.37-.022.568-.033.589-.033a3.9 3.9 0 001.263-.639 1.567 1.567 0 00.279-.312c.37-.631.381-1.019.031-1.161a3.78 3.78 0 00-.589-.215l-1.965.1a6.569 6.569 0 00-.9-.114c-.276-.009-.433-.016-.476-.016-.656.088-1.04-.088-1.149-.524s-.162-.676-.162-.722c-.087-1.286.1-2.025.572-2.211s.716-.278.738-.278c.479.087.861.151 1.145.2.569.154.93.175 1.083.066s.229-.175.229-.2a3.134 3.134 0 00.212-1.476 18.765 18.765 0 01-.081-.754.568.568 0 00-.59-.457h-.491a69.29 69.29 0 00-1.739.063c-.151-.042-.262-.2-.326-.473s-.1-.42-.1-.443q-.328-2.59.279-3.047a6.5 6.5 0 01.637-.458 2.429 2.429 0 011.2.327c.578.262.879.4.9.424a3.152 3.152 0 001.1.363q.539.065.572.064a.712.712 0 00.754-.36 3.565 3.565 0 00.2-.427 2.47 2.47 0 00.2-.851c.023-.328.032-.5.032-.524a2.585 2.585 0 00-.3-1.262 6.956 6.956 0 00-.294-.444c-.285-.5-.312-.8-.081-.884a3.034 3.034 0 01.375-.131 2.368 2.368 0 011.885.754q.736.786.769.851a4.772 4.772 0 01.608 1.295c.117.425.179.662.179.7-.02.351.051.564.216.639a1.372 1.372 0 00.276.117l2.164-.1a6.819 6.819 0 001.375-.2c.283-.087.435-.132.459-.132.437-.2.616-.115.541.245m-7.038 5.564q.491-.182.658-1a4.835 4.835 0 00.128-.608q.1-.538-.655-.474c-.023 0-.132-.006-.327-.016s-.546-.038-1.047-.081q-.067 0-.8.146t-.415 1.133c0 .023.037.182.113.476a.931.931 0 00.641.637 3.025 3.025 0 001.178-.033q.034 0 .524-.178m4.686 15.055a4.7 4.7 0 00.263.557 1.225 1.225 0 01-.311 1.131c-.3.316-.454.486-.475.506q-.854.559-1.279-.179c-.284-.492-.436-.749-.459-.77q-.328-.853-.539-1.574t-.213-.753a3.907 3.907 0 01-.327-1.833 2.506 2.506 0 01.162-.46 6.673 6.673 0 00.885-.853q.555-.884.966-.179c.272.471.42.737.442.8.066.351.113.711.146 1.083s.049.568.049.588a.658.658 0 00.28.459 1.012 1.012 0 00.245.132 2.826 2.826 0 00.164 1.344m16.875-10.271c.437.054.666.082.687.082.438.152.546.448.329.883s-.337.677-.362.72a3.265 3.265 0 00-.261 1.049v.392a1.322 1.322 0 01-.049 1.066 4.8 4.8 0 01-.28.475 1.559 1.559 0 01-.967.46c-.337.022-.518.033-.539.033a2.764 2.764 0 01-1.294-.443q-.575-.376-.607-.409a3.167 3.167 0 00-1.378-.524 16.98 16.98 0 00-.719-.067q-1.247-.065-1.361.655c-.078.48-.115.743-.115.787a14.782 14.782 0 00.017 2.523c.077.81.116 1.234.116 1.276a13.364 13.364 0 00.016 3.064q.179 2.051.212 2.214a9.453 9.453 0 01.28 2.718 4.468 4.468 0 01-.149.753 5.706 5.706 0 01-.607 1 2.187 2.187 0 01-.342.377 1.707 1.707 0 01-.738.393c-.186.022-.3.032-.345.032a.88.88 0 01-.312-.179 2.513 2.513 0 01-.539-1.1c-.086-.852-.136-1.5-.147-1.934s-.015-.666-.015-.689c0-.152-.133-.856-.395-2.112a9.547 9.547 0 01-.133-3.49 19.805 19.805 0 01.492-2.046c.241-.842.373-1.295.4-1.362a4.866 4.866 0 00.145-1.474 23.206 23.206 0 01-.047-.687q.063-.657-.363-.737a5.791 5.791 0 00-.459-.082l-1.9.065q-.951.033-1.2.49a3.945 3.945 0 00-.245.492 10.791 10.791 0 00.063 2.654q.2 1.378.231 1.441a15.91 15.91 0 01.1 2.048c-.021.406-.034.618-.034.639a5.781 5.781 0 01-.491 1.95c-.218.4-.337.616-.361.639a4.215 4.215 0 01-1.128 1.228 3.049 3.049 0 00-.573.409 1.438 1.438 0 01-1.083.2 2.555 2.555 0 01-.523-.165q-.789-.752.179-1.6t1.034-.884c.326.021.593-.256.8-.838a9.45 9.45 0 01.345-.9 4.058 4.058 0 00-.017-.785c-.034-.35-.048-.536-.048-.557a13.216 13.216 0 00-.132-1.475l-.59-1.9a4.845 4.845 0 01-.523-1.886v-.8a3.449 3.449 0 011.523-2.539l1.261-.739a17.514 17.514 0 013.473-.474q2.13-.114 2.262-.114l4.915-.034a11.453 11.453 0 012.49-.178m-6.957-7.931c.1.4.148.629.148.672a1.318 1.318 0 01-.049.983 4.371 4.371 0 01-.246.459 11.008 11.008 0 00-.9 1.522 6.771 6.771 0 01-.31.64q-.329.853-.492 1.294a4.733 4.733 0 00-.162.476c0 .218-.352.4-1.049.539s-1.07.215-1.115.215a5.164 5.164 0 00-1.178.247c-.46.142-.711.223-.754.244q-.592.23-.968-.426t-.41-.687a1.13 1.13 0 01.329-1.131 3.934 3.934 0 011.113-.966q.753-.361 1.081-.507a2.656 2.656 0 01.361-.148 2.422 2.422 0 001.015-.836 4.236 4.236 0 00.3-.507 2.852 2.852 0 00.211-.77c.056-.34.081-.518.081-.541a7.779 7.779 0 00.132-1.212c.023-.482.034-.732.034-.754a5.175 5.175 0 01.605-2.6 3.771 3.771 0 01.476-.476.545.545 0 01.77.051l.377.377a3.87 3.87 0 01.3 1.524c.042.754.066 1.152.066 1.2.064.349.146.726.244 1.13" fill="#1a1311"/><path data-name="패스 87" d="M162.356 6.174a6.865 6.865 0 01-.329.735 3.622 3.622 0 00-.409 2c.032.806.049 1.233.049 1.278a5.187 5.187 0 01.02 1.36c-.055.425-.082.662-.082.7a2.343 2.343 0 01-.884 1.492 3.574 3.574 0 01-.622.31 10.38 10.38 0 01-2.211.33 95.63 95.63 0 01-1.329.065 2.284 2.284 0 00-2.292.737 11.141 11.141 0 00-.722 1.033 6.774 6.774 0 00-.278 1.228c-.1.6-.147.922-.147.967a17.778 17.778 0 00-.165 2.572c.024.622.034.954.034 1q-.1 1.7-.212 2.44c-.078.492-.115.748-.115.771-.066.459-.138.94-.212 1.442s-.117.775-.117.819a4.564 4.564 0 01-.655 1.492c-.284.4-.437.616-.459.638a4.873 4.873 0 01-1.114.737l-.752.376a10.378 10.378 0 01-2.149.559c-.817.13-1.249.2-1.293.2-.217.13-.355-.05-.408-.542s-.081-.759-.081-.8q.032-1.507.409-1.524a1.076 1.076 0 01.409.017 1.063 1.063 0 001.145-.017c.395-.229.6-.355.624-.377q1.05-.753 1.115-1.375c.044-.414.066-.634.066-.657a1.377 1.377 0 00.572-.818c.077-.327.117-.5.117-.525a20.628 20.628 0 00.26-3.145q.066-2.195.067-2.359l.065-3.735q.032-1.409.1-2.523c.044-.741.067-1.125.067-1.146a2.764 2.764 0 00-.573-1.983 8.058 8.058 0 00-.7-.8q-1.015-.853-.181-1.7t.9-.884q.752-.558 1.686-1.163c.621-.4.945-.618.966-.64a3.3 3.3 0 011.54-.539q.851-.083.886-.084a8.933 8.933 0 012.129.032c.393.089.6.132.622.132a4.135 4.135 0 001.754-.114 8.485 8.485 0 00.934-.277 1.192 1.192 0 011.179.064c.263.218.4.339.427.36a2.159 2.159 0 01.359 1.852m-3.964 5.126c.152-.152.186-.447.1-.883a1.082 1.082 0 00-.2-.263q-.2-.228-1.178 0c-.022 0-.138.017-.346.051a6.019 6.019 0 01-1.03.016c-.023 0-.143-.012-.361-.032a8.259 8.259 0 00-1.081 0 3.082 3.082 0 00-.377.114c-.23.078-.355.345-.377.8 0 .02.016.2.051.523s.244.437.637.327c.045 0 .268-.042.671-.131a3.751 3.751 0 011.2-.067h.886a2.1 2.1 0 001.146-.228 1.2 1.2 0 00.263-.231m12.237 13.78c.013.338.017.528.017.573a2.017 2.017 0 01-.213 1.245 9.087 9.087 0 01-.342.655.394.394 0 01-.348.28 3.423 3.423 0 01-.31.048 10.5 10.5 0 01-1.2 0c-.383-.022-.585-.034-.606-.034-.348 0-.573.215-.673.64s-.147.662-.147.7l-.1 2.654a2.023 2.023 0 01-.918 1.229c-.35.141-.535.212-.557.212q-.983-.066-1.146-1.276c-.11-.81-.164-1.236-.164-1.279a4.531 4.531 0 01.148-.951c.075-.284.114-.437.114-.459.066-.5-.089-.781-.46-.835s-.579-.082-.621-.082a5.444 5.444 0 00-1.754.181c-.644.165-.988.256-1.031.278a14.845 14.845 0 01-2.833.754c-.951.152-1.447.229-1.492.229a4.728 4.728 0 01-2.26-.164q-.133-.164.032-1.048a7.738 7.738 0 01.2-.918 6.613 6.613 0 01.509-1.424c.164-.3.258-.455.279-.477a.282.282 0 01.377.034c.141.11.223.175.245.2a3.466 3.466 0 00.852.229c.305.044.469.066.492.066q.554.132.688-.279c.087-.273.13-.421.13-.442.045-.655.1-1.224.182-1.7s.114-.732.114-.754a8.871 8.871 0 00.1-1.917c-.042-.492-.066-.746-.066-.77.025-1.134-.087-1.791-.326-1.965a2.361 2.361 0 00-.393-.263c-.832.11-1.29.117-1.376.017s-.132-.158-.132-.18a7.094 7.094 0 01.64-1.672 5 5 0 01.312-.459 1.3 1.3 0 01.916-.377l.59-.016 4.817.066h2.457a4.458 4.458 0 001.522-.212 5.282 5.282 0 00.607-.245q.95-.46 1.229-.246c.184.142.279.222.279.246a1.2 1.2 0 01-.083 1.113c-.206.306-.323.471-.342.492a7.515 7.515 0 01-.706.639 1.6 1.6 0 01-.309.214.489.489 0 00-.148.312 2.423 2.423 0 00-.016.212c.173.152.234.7.179 1.654s-.083 1.459-.083 1.524q-.164 1.542-.18 2.212l-.017.7c-.02.546.061.857.247.935a2.034 2.034 0 00.312.114 4.091 4.091 0 00.918-.245 3.348 3.348 0 00.492-.214 2.837 2.837 0 01.852-.2h.327c.108-.043.168.1.179.443M158.063 7.696a.476.476 0 00.2-.491c0-.023-.05-.186-.146-.492s-.369-.437-.8-.393l-.672-.015a4.993 4.993 0 00-1.391.179c-.024.022-.248.133-.673.329s-.626.447-.607.753a1.608 1.608 0 00.691.425c.041 0 .26.044.653.131a4.822 4.822 0 001.049.132c.021 0 .157-.011.408-.032a4.1 4.1 0 001-.262c.023-.023.123-.11.3-.263m5.668 18.447c.175-.087.186-.371.035-.852a2.324 2.324 0 00-.165-.359c-.11-.22-.349-.307-.72-.264-.022 0-.251.022-.69.067s-.709.011-.817-.1c-.023 0-.122 0-.3-.016a1.75 1.75 0 00-.525.049 2.938 2.938 0 00-.411.23.632.632 0 00-.309.688c0 .021.048.192.146.507s.618.4 1.558.247l1.9-.067a1.493 1.493 0 00.294-.13m.46-7.093q.261-.148 0-.8a.835.835 0 00-.165-.228 1.959 1.959 0 00-.752-.426q-.033 0-.425-.033a2.166 2.166 0 00-.756.065l-.414.009c-.251.013-.684.007-1.293-.015a2.54 2.54 0 00-.3.067c-.174.042-.238.184-.2.425 0 .022.011.2.034.539a.638.638 0 00.459.64c.306 0 .633-.01.983-.033.043 0 .283 0 .719-.016a8 8 0 001.049-.081 2.862 2.862 0 01.754.032 1.448 1.448 0 00.3-.146m-.032 3.9c.108-.119.13-.518.066-1.194a1.437 1.437 0 00-.247-.3 1.22 1.22 0 00-.9-.262c-.023 0-.223-.033-.608-.1a3.386 3.386 0 00-1.359.1c-.021 0-.153.028-.393.084s-.35.234-.327.539c0 .023 0 .153.016.394s.027.5.049.787a1.123 1.123 0 01.312.114 1.674 1.674 0 00.77.083h.489a5.578 5.578 0 00.853-.065c.023 0 .14-.011.361-.033a2.692 2.692 0 01.72.033c.021 0 .085-.06.2-.182m12.09-18.218a1.745 1.745 0 01.164.312 4.457 4.457 0 01.066 2.13c-.153.546-.242.841-.26.885a3.386 3.386 0 00-.607 1.082c-.057.24-.083.371-.083.392l-.034 3.046-.032 4.786a14.131 14.131 0 00-.081 1.7l.015.72q.328 2.426.377 3.376c.034.633.05.972.05 1.015l.066 3.669a6.248 6.248 0 01-.114 2.983c-.251.546-.389.831-.41.853a3.694 3.694 0 01-1.295 1.31c-.359.152-.55.23-.574.23-.284.02-.523-.242-.719-.789s-.307-.842-.329-.882a4.081 4.081 0 01-.312-2.113c.077-.777.115-1.186.115-1.231a4.641 4.641 0 00.034-.916c-.022-.262-.034-.4-.034-.427a7.378 7.378 0 01-.1-2.866c.151-.994.24-1.523.262-1.589l-.065-2.458-.032-4.947a.866.866 0 00-.33-1.048 12.745 12.745 0 00-.589-.394 2.557 2.557 0 00-1.426-.2c-.535.065-.824.1-.868.1q-1.244.328-2.047.458c-.537.088-.824.131-.868.131a1.038 1.038 0 01-1-.409l-.474-.541c-.438-.436-.586-.835-.442-1.2a4.094 4.094 0 01.247-.574 1.458 1.458 0 00.475-1.066l.015-.7a4.684 4.684 0 00-.394-1.474 1.959 1.959 0 01-.474-1.656 5.36 5.36 0 01.247-.705 5.313 5.313 0 011.145-1.179 3.8 3.8 0 01.46-.262 2.566 2.566 0 00.884-.3 5.736 5.736 0 00.557-.294 5.394 5.394 0 012.557-.869q1.309-.082 1.409-.081a4.256 4.256 0 012.014.671 6.988 6.988 0 01.9.64 1.479 1.479 0 00.77.392c.275.045.422.067.443.067.37-.044.611.028.72.212m-4.178 5.948q.474-.229.344-.656a4.191 4.191 0 00-.491-.474 1.987 1.987 0 00-1.606-.247l-.359.015a2.857 2.857 0 01-.558-.015 3.3 3.3 0 01-.359-.1 3.617 3.617 0 00-.788-.13 4.3 4.3 0 00-.442.13c-.274.088-.409.4-.409.95 0 .022-.008.126-.016.312a1.19 1.19 0 00.18.64 1.186 1.186 0 00.341.211 3.018 3.018 0 001.427.082h.818a2.391 2.391 0 00.985-.13 1.607 1.607 0 00.427-.329 4.719 4.719 0 01.506-.262m-.1-3.538a.608.608 0 00.509-.264c0-.02.02-.135.064-.343s-.121-.442-.49-.7a9.849 9.849 0 01-.983-.427 6.321 6.321 0 00-.852-.18 3.047 3.047 0 00-1.9.409 2.948 2.948 0 00-.411.215.87.87 0 00-.375.834 1.939 1.939 0 00.279.345q.277.311 1.621.115c.023 0 .2-.016.541-.05a7.1 7.1 0 011.492.081h.1c.02 0 .157-.009.408-.031" fill="#1a1311"/><path data-name="패스 88" d="M21.353 21.612a18.029 18.029 0 00.321-2.616 10.828 10.828 0 10-6.9 10.1v.007a12.138 12.138 0 01-2.568-2.178 7.317 7.317 0 117.359-10.553H10.61a18.806 18.806 0 00-.321 2.629 10.838 10.838 0 1010.84-10.842 10.965 10.965 0 00-3.945.745 12.116 12.116 0 012.553 2.149 7.323 7.323 0 11-7.332 10.585s8.965-.038 8.948-.023" fill="#dc000c"/></g></g></svg>