<svg xmlns="http://www.w3.org/2000/svg" width="185.996" height="28.597"><defs><clipPath id="a"><path data-name="사각형 148" fill="none" d="M0 0h185.996v28.597H0z"/></clipPath></defs><g data-name="그룹 160"><path data-name="패스 411" d="M.489 13.993l.366.306h13.532v2.245L1.181 14.299z" fill="#004c87"/><g data-name="그룹 151"><g data-name="그룹 150" clip-path="url(#a)"><path data-name="패스 412" d="M.489 13.992l.366.306h13.532v2.245L1.181 14.298z" fill="none" stroke="#004c87" stroke-linecap="round" stroke-linejoin="round" stroke-width=".725"/></g></g><path data-name="패스 413" d="M14.384 14.299v-2.245l-13.2 2.244z" fill="#fff"/><path data-name="패스 414" d="M14.384 14.299v-2.245l-13.2 2.244z" fill="none" stroke="#004c87" stroke-linecap="round" stroke-linejoin="round" stroke-width=".725"/><path data-name="패스 415" d="M14.693.4l-.305.366v13.532h-2.245L14.388.493z" fill="#004c87"/><g data-name="그룹 153"><g data-name="그룹 152" clip-path="url(#a)"><path data-name="패스 416" d="M14.693.4l-.305.366v13.532h-2.245L14.388.493z" fill="none" stroke="#004c87" stroke-linecap="round" stroke-linejoin="round" stroke-width=".725"/></g></g><path data-name="패스 417" d="M14.387 14.299h2.244L14.387.493z" fill="#fff"/><path data-name="패스 418" d="M14.387 14.299h2.244L14.387.493z" fill="none" stroke="#004c87" stroke-linecap="round" stroke-linejoin="round" stroke-width=".725"/><path data-name="패스 419" d="M28.286 14.605l-.366-.305H14.387v-2.246l13.264 2.245z" fill="#004c87"/><path data-name="패스 420" d="M28.286 14.605l-.366-.305H14.387v-2.246l13.264 2.245z" fill="none" stroke="#004c87" stroke-linecap="round" stroke-linejoin="round" stroke-width=".725"/><path data-name="패스 421" d="M14.387 14.299v2.244l13.264-2.244z" fill="#fff"/><path data-name="패스 422" d="M14.387 14.299v2.244l13.264-2.244z" fill="none" stroke="#004c87" stroke-linecap="round" stroke-linejoin="round" stroke-width=".725"/><path data-name="패스 423" d="M14.387 14.299v13.532l-.306.366.306-.092 2.244-13.806z" fill="#004c87"/><g data-name="그룹 155"><g data-name="그룹 154" clip-path="url(#a)"><path data-name="패스 424" d="M14.081 28.197l.305-.366V14.299h2.244l-2.243 13.806z" fill="none" stroke="#004c87" stroke-linecap="round" stroke-linejoin="round" stroke-width=".725"/></g></g><path data-name="패스 425" d="M14.387 14.299h-2.244l2.244 13.806z" fill="#fff"/><g data-name="그룹 157"><g data-name="그룹 156" clip-path="url(#a)"><path data-name="패스 426" d="M14.387 14.298h-2.244l2.244 13.806z" fill="none" stroke="#004c87" stroke-linecap="round" stroke-linejoin="round" stroke-width=".725"/></g></g><path data-name="패스 427" d="M18.445 10.241l-.76-.767 6.318-4.789z" fill="#004c87"/><path data-name="패스 428" d="M18.445 10.241l-.76-.767 6.318-4.789z" fill="none" stroke="#004c87" stroke-linecap="round" stroke-linejoin="round" stroke-width=".725"/><path data-name="패스 429" d="M18.445 10.241l.765.765 4.789-6.317z" fill="#fff"/><path data-name="패스 430" d="M18.445 10.241l.765.765 4.789-6.317z" fill="none" stroke="#004c87" stroke-linecap="round" stroke-linejoin="round" stroke-width=".725"/><path data-name="패스 431" d="M10.329 18.357l.764.764-6.317 4.79z" fill="#004c87"/><path data-name="패스 432" d="M10.329 18.357l.764.764-6.317 4.79z" fill="none" stroke="#004c87" stroke-linecap="round" stroke-linejoin="round" stroke-width=".725"/><path data-name="패스 433" d="M10.329 18.357l-.764-.765-4.789 6.318z" fill="#fff"/><path data-name="패스 434" d="M10.329 18.357l-.764-.765-4.789 6.318z" fill="none" stroke="#004c87" stroke-linecap="round" stroke-linejoin="round" stroke-width=".725"/><path data-name="패스 435" d="M18.445 18.263l-.764.764 5.459 3.93z" fill="#fff"/><path data-name="패스 436" d="M18.445 18.263l-.764.764 5.459 3.93z" fill="none" stroke="#004c87" stroke-linecap="round" stroke-linejoin="round" stroke-width=".725"/><path data-name="패스 437" d="M18.445 18.263l.765-.765 3.93 5.459z" fill="#004c87"/><path data-name="패스 438" d="M18.445 18.263l.765-.765 3.93 5.459z" fill="none" stroke="#004c87" stroke-linecap="round" stroke-linejoin="round" stroke-width=".725"/><path data-name="패스 439" d="M10.416 10.241l.763-.766-6.318-4.79z" fill="#fff"/><path data-name="패스 440" d="M10.416 10.241l.763-.766-6.318-4.79z" fill="none" stroke="#004c87" stroke-linecap="round" stroke-linejoin="round" stroke-width=".725"/><path data-name="패스 441" d="M10.416 10.241l-.764.765-4.79-6.318z" fill="#004c87"/><path data-name="패스 442" d="M10.416 10.241l-.764.765-4.79-6.318z" fill="none" stroke="#004c87" stroke-linecap="round" stroke-linejoin="round" stroke-width=".725"/><g data-name="그룹 159"><g data-name="그룹 158" clip-path="url(#a)"><path data-name="패스 443" d="M0 14.3a14.3 14.3 0 1114.3 14.3A14.3 14.3 0 010 14.3m14.371 10.837A10.838 10.838 0 103.533 14.3a10.838 10.838 0 0010.838 10.837" fill="#004c87"/><path data-name="패스 444" d="M14.388 21.858a7.561 7.561 0 10-7.561-7.56 7.561 7.561 0 007.561 7.56" fill="#004c87"/><path data-name="패스 445" d="M14.387 20.936a6.637 6.637 0 10-6.638-6.637 6.637 6.637 0 006.638 6.637" fill="#00902f"/><path data-name="패스 446" d="M3.846 7.856l-.225-.17.6-.8-.143-.107-.4.532-.649-.485.992-1.32.649.485-.4.53.142.106.6-.8.227.17zm1.846-.705l-.5-.37-.835 1.115-.227-.17 1.028-1.365.722.54zm-1.658-1.24l-.61.815.238.178.61-.816z" fill="#fff"/><path data-name="패스 447" d="M5.997 4.182l-.165-.23 1.5-1.08.165.23zm1.587-.219l-.243.119-.29-.534.294-.138zm-.794.63l-.464-.471.235-.228.441.508zm-.255.293l-.165-.23 1.437-1.032.165.231zm.217.715l-.165-.23.808-.579-.27-.376.255-.182.269.375.805-.578.165.231z" fill="#fff"/><path data-name="패스 448" d="M9.556 2.014l-.081-.25.619-.2.08.249zm-.123.469l-.085-.262 1.048-.339.085.262zm2.136.908l-.326-1.007-.206.067.3.924-.285.092-.693-2.139.285-.093.306.945.206-.066-.328-1.012.285-.092.741 2.288zm-.921-.67a.465.465 0 01-.02.362.6.6 0 01-.719.234.5.5 0 01-.21-.644.6.6 0 01.718-.233.463.463 0 01.23.282m-.289.1a.244.244 0 00-.093-.13.184.184 0 00-.169-.012.188.188 0 00-.13.11.244.244 0 000 .162.228.228 0 00.092.122.191.191 0 00.172.01.18.18 0 00.127-.107.233.233 0 000-.155" fill="#fff"/><path data-name="패스 449" d="M14.41 1.346a.532.532 0 01-.156.378.569.569 0 01-.428.168.558.558 0 01-.427-.163.536.536 0 01-.159-.376.56.56 0 01.58-.561.562.562 0 01.43.168.55.55 0 01.162.385m.716.489v.211h-.313l-.009-1.4h.313v.405h.308v.281h-.308v.219h.307v.284zm.056.7a.368.368 0 01-.259.387 1.793 1.793 0 01-.58.095 1.749 1.749 0 01-.576-.087.368.368 0 01-.261-.383.372.372 0 01.257-.389 1.674 1.674 0 01.574-.1 1.733 1.733 0 01.581.088.372.372 0 01.264.387m-1.082-1.184a.275.275 0 00-.078-.187.265.265 0 00-.2-.084.254.254 0 00-.2.087.276.276 0 00-.074.188.255.255 0 00.077.179.261.261 0 00.2.078.268.268 0 00.2-.08.251.251 0 00.076-.18m.766 1.186a.17.17 0 00-.149-.171 1.85 1.85 0 00-.756 0 .169.169 0 00-.145.173.165.165 0 00.147.168 1.571 1.571 0 00.375.033 1.626 1.626 0 00.38-.039.165.165 0 00.148-.169" fill="#fff"/><path data-name="패스 450" d="M17.961 3.083a3.426 3.426 0 01-.4-.043 4.564 4.564 0 01-.677-.167l.493-1.585.856.266-.084.27-.557-.174-.321 1.044a2.271 2.271 0 00.394.084 2.121 2.121 0 00.322.023zm.4.675l.318-1.02-.208-.064-.291.933-.286-.089.666-2.142.286.088-.292.939.206.064.311-1.004.286.089-.714 2.3z" fill="#fff"/><path data-name="패스 451" d="M21.489 2.919l.123-.177.509.356-.124.177zm-.537.024l.131-.188 1.175.821-.131.187zm1.274 1.529l-.212.3-.259-.181.841-1.2.259.181-.467.669.252.176-.162.232zm-.463-.393a.315.315 0 01-.3.142.974.974 0 01-.693-.483.333.333 0 01.327-.468.831.831 0 01.4.164.816.816 0 01.291.322.309.309 0 01-.027.323m-.54 1.283l.334-.478-1.2-.836.147-.21 1.453 1.016-.481.688zm.311-1.44a.119.119 0 00-.01-.15.707.707 0 00-.157-.148.67.67 0 00-.191-.1.117.117 0 00-.146.041.118.118 0 00.011.151.684.684 0 00.158.149.724.724 0 00.19.1.117.117 0 00.146-.043" fill="#fff"/><path data-name="패스 452" d="M25.587 6.881a7.2 7.2 0 01-.594.414 4.532 4.532 0 01-.494.265l-.161-.284a3.043 3.043 0 00.4-.215 4.954 4.954 0 00.412-.279l-.903-1.187.225-.172zm-2.76-.519l.225-.173.332.433.636-.488.183.237-.636.488.206.268.636-.488.183.237-.636.488.5.646-.225.173z" fill="#fff"/><path data-name="패스 453" d="M1.174 14.873v-.256l1.094.013-1.091-.257v-.268l1.1-.226-1.087-.021v-.254l1.309.015v.4l-1.035.225 1.029.245v.4z" fill="#fff"/><path data-name="패스 454" d="M1.877 15.468c.364-.042.478.154.5.3s-.05.364-.414.405-.478-.154-.5-.3.051-.364.415-.406m-.031-.271a.632.632 0 10.143 1.25.632.632 0 10-.143-1.25" fill="#fff"/><path data-name="패스 455" d="M1.482 17.201l-.064-.266 1.273-.3.063.266-.518.124.634.362.082.344-.645-.4-.621.729-.082-.341.465-.528-.157-.093z" fill="#fff"/><path data-name="패스 456" d="M2.539 18.382l.362-.13.074.2c.058.159.032.244-.088.287a.178.178 0 01-.261-.122zm-.213.078l.107.295a.4.4 0 00.534.251.383.383 0 00.256-.525l-.2-.562-1.231.445.093.258z" fill="#fff"/><path data-name="패스 457" d="M2.966 19.572c.328-.164.5-.018.568.113s.078.358-.25.522-.5.018-.569-.113-.078-.358.251-.522m-.122-.245a.632.632 0 10.563 1.126.632.632 0 10-.563-1.126" fill="#fff"/><path data-name="패스 458" d="M4.899 21.499l.151.206-1.057.774-.161-.221.438-.983-.753.551-.151-.206 1.056-.774.17.233-.429.958z" fill="#fff"/><path data-name="패스 459" d="M5.373 22.514l-.27.47-.224-.239zm-.71.328l.328.355-.141.245.2.218.649-1.227-.214-.232-1.276.544.2.211z" fill="#fff"/><path data-name="패스 460" d="M5.594 24.149l-.2-.184.722-.8-.294-.265.155-.172.791.714-.156.172-.294-.265z" fill="#fff"/><path data-name="패스 461" d="M6.332 24.755l-.216-.168.806-1.033.216.168z" fill="#fff"/><path data-name="패스 462" d="M7.192 24.579c.2-.306.425-.269.548-.188s.247.271.047.578-.425.269-.548.188-.247-.27-.047-.578m-.229-.149a.632.632 0 10.9-.233.612.612 0 00-.9.233" fill="#fff"/><path data-name="패스 463" d="M9.313 25.048l.228.113-.585 1.171-.245-.122-.061-1.074-.417.835-.228-.114.585-1.171.258.129.057 1.048z" fill="#fff"/><path data-name="패스 464" d="M10.199 25.733l-.026.542-.313-.114zm-.482.616l.454.166-.014.281.279.1.017-1.388-.3-.109-.887 1.075.27.1z" fill="#fff"/><path data-name="패스 465" d="M11.097 26.829l.631.158-.057.23-.9-.224.318-1.27.265.067z" fill="#fff"/><path data-name="패스 466" d="M13.916 27.493l-.254-.021.089-1.09-.333 1.07-.267-.021-.149-1.11-.089 1.09-.254-.02.107-1.3.4.033.152 1.048.317-1.009.394.032z" fill="#fff"/><path data-name="패스 467" d="M14.848 26.461l.183.511-.333.013zm-.21.753l.483-.019.1.266.3-.012-.514-1.289-.315.013-.413 1.327.288-.012z" fill="#fff"/><path data-name="패스 468" d="M16.019 26.642l-.053-.347.337-.052a.164.164 0 01.216.139c.019.128-.041.187-.182.209zm-.153.765l.265-.042-.078-.506.279-.043c.2-.031.222.036.249.212a.87.87 0 00.07.257l.3-.046-.005-.034c-.061-.012-.068-.059-.1-.248-.037-.242-.1-.272-.215-.3a.313.313 0 00.153-.339.369.369 0 00-.464-.3l-.654.1z" fill="#fff"/><path data-name="패스 469" d="M17.558 27.092l-.266.064-.3-1.275.266-.062z" fill="#fff"/><path data-name="패스 470" d="M18.477 26.828l-.261.082-.323-1.028-.377.119-.07-.222 1.016-.32.069.222-.377.118z" fill="#fff"/><path data-name="사각형 152" fill="#fff" d="M18.639 25.383l.255-.1.482 1.216-.255.101z"/><path data-name="패스 471" d="M20.886 25.789l-.228.113-.489-.979.27 1.088-.239.12-.7-.872.489.979-.229.114-.585-1.172.357-.178.673.817-.252-1.028.354-.176z" fill="#fff"/><path data-name="패스 472" d="M21.484 24.131l-.582.38.15.231.534-.349.126.194-.534.349.185.285.608-.4.126.194-.832.543-.716-1.1.806-.526z" fill="#fff"/><path data-name="패스 473" d="M23.393 23.345a.461.461 0 01-.07.726.559.559 0 01-.415.16.475.475 0 01-.288-.167l-.581-.645.208-.187.568.632a.229.229 0 00.349.039.226.226 0 00.029-.362l-.577-.641.207-.187z" fill="#fff"/><path data-name="패스 474" d="M23.564 21.899l.169-.191.98.868-.182.2-1.053-.22.7.62-.169.191-.98-.868.191-.216 1.027.215z" fill="#fff"/><path data-name="사각형 153" fill="#fff" d="M23.903 21.475l.164-.22 1.048.786-.165.22z"/><path data-name="패스 475" d="M24.659 20.372l.153-.24.866 1.078-.14.22-1.341-.33.157-.248.988.3z" fill="#fff"/><path data-name="패스 476" d="M25.545 19.187l-.308.622.247.122.283-.572.208.1-.283.572.3.15.322-.65.208.1-.441.891-1.174-.581.427-.863z" fill="#fff"/><path data-name="패스 477" d="M26.085 18.764l-.329-.119.116-.321a.164.164 0 01.226-.122c.122.044.144.127.1.26zm.6.5l.092-.252-.482-.174.1-.266c.069-.19.138-.177.306-.116a.856.856 0 00.258.063l.1-.285-.039-.008c-.041.048-.085.031-.265-.034-.23-.083-.287-.042-.369.043a.313.313 0 00-.224-.3.37.37 0 00-.489.261l-.226.623z" fill="#fff"/><path data-name="패스 478" d="M26.821 17.566c.071.016.215.013.271-.22.03-.125.034-.273-.1-.305-.1-.024-.149.065-.213.192l-.065.129c-.1.194-.192.381-.472.313-.141-.034-.373-.171-.273-.583a.444.444 0 01.531-.4l-.061.256c-.059-.007-.2-.018-.255.214-.024.1-.016.23.1.258.1.024.14-.052.166-.1l.151-.291c.085-.163.194-.306.423-.251.383.093.322.491.3.6-.112.465-.4.479-.556.441z" fill="#fff"/><path data-name="사각형 154" fill="#fff" d="M26.163 16.327l.044-.27 1.292.21-.044.27z"/><path data-name="패스 479" d="M27.609 15.315l-.025.272-1.073-.094-.035.394-.231-.021.1-1.06.231.02-.035.394z" fill="#fff"/><path data-name="패스 480" d="M27.652 13.975v.274h-.495l-.812.457v-.322l.567-.275-.57-.256v-.309l.821.432z" fill="#fff"/><path data-name="패스 481" d="M2.802 10.089a.544.544 0 10-.544-.544.544.544 0 00.544.544" fill="#fff"/><path data-name="패스 482" d="M26.095 10.162a.544.544 0 10-.544-.544.544.544 0 00.544.544" fill="#fff"/><path data-name="패스 483" d="M12.8 19.377c.078 0 .172 0 .206-.128l.222-.8a.151.151 0 00.007-.038c0-.061-.057-.061-.072-.061a.8.8 0 00-.116.009v-.04a4.136 4.136 0 00.468-.091l-.267.972a.31.31 0 00-.021.094c0 .075.059.079.168.079v.04h-.6z" fill="#fff"/><path data-name="패스 484" d="M14.291 18.42a1.121 1.121 0 01-.075.343c-.055.146-.059.154-.135.154-.026 0-.113 0-.113-.121 0 0 .045-.509.235-.509.088 0 .088.082.088.132m-.639 1.016a.9.9 0 00.834-.826c0-.229-.108-.376-.3-.376a.446.446 0 00-.433.469.262.262 0 00.261.29.235.235 0 00.106-.024.783.783 0 01-.479.424z" fill="#fff"/><path data-name="패스 485" d="M14.81 18.578a.609.609 0 01.3.116.372.372 0 01.128.284.476.476 0 01-.509.461c-.166 0-.224-.08-.224-.132a.1.1 0 01.1-.1c.128 0 .116.166.215.166a.27.27 0 00.234-.277c0-.176-.146-.321-.406-.321l.227-.514h.49l-.062.19h-.439z" fill="#fff"/><path data-name="패스 486" d="M16.045 18.416a4.1 4.1 0 01-.145.641c-.043.145-.1.334-.209.334-.075 0-.089-.077-.089-.118a3.84 3.84 0 01.141-.625c.04-.128.112-.363.211-.363.064 0 .091.046.091.131m.178.208c0-.224-.108-.39-.262-.39-.312 0-.537.468-.537.825 0 .157.06.383.28.383.286 0 .518-.413.518-.818" fill="#fff"/><path data-name="패스 487" d="M18.956 13.371a2.687 2.687 0 00-2.684-2.685 2.017 2.017 0 00-1.171.377 3.569 3.569 0 00-.093-.907c-.181-.832-.584-.952-.584-.952s-.38.108-.585.955a5.025 5.025 0 00-.092.9 2.016 2.016 0 00-1.17-.377 2.688 2.688 0 00-2.685 2.685l-.209 3.524 1.675-.784.209-2.74a1.01 1.01 0 012.02 0l-.941 3.735h1.288l.488-2.043.488 2.043h1.294l-.94-3.735a1.01 1.01 0 012.019 0l.209 2.74 1.675.784z" fill="#fff"/><path data-name="패스 488" d="M77.737 20.322V16.34h-3.192v3.982h-7.163v1.744H84.9v-1.744z" fill="#004c87"/><path data-name="패스 489" d="M84.432 13.155h-1.746l.582-5.341h1.164V6.07H67.268l.582 1.744h1.164l.582 5.341h-1.745v1.744h16.582zM72.206 7.814h7.871l-.582 5.341h-6.708z" fill="#004c87"/><path data-name="패스 490" d="M180.106 20.322v-9.676h-3.192v9.676h-1.754v-9.676h-3.192v9.676h-3.49v1.744h17.518v-1.744z" fill="#004c87"/><path data-name="패스 491" d="M181.9 19.378h3.192V6.07h-15.986l.582 1.744H181.9z" fill="#004c87"/><path data-name="패스 492" d="M161.826 16.561h-12.982v1.744h12.982v4.2h3.192v-5.944h-3.192z" fill="#004c87"/><path data-name="패스 493" d="M167.237 10.014h-2.218V5.489h-3.192v10.427h3.192v-4.158h2.218z" fill="#004c87"/><path data-name="패스 494" d="M148.194 11.592c0 2.38 2.884 4.31 6.441 4.31s6.441-1.93 6.441-4.31a4.067 4.067 0 00-2.544-3.426h2.475V6.421h-4.772v-.932h-3.2v.932h-5.357l.581 1.744h2.476a4.066 4.066 0 00-2.543 3.426m6.441 2.925a3.214 3.214 0 01-3.439-2.925 3.484 3.484 0 016.878 0 3.214 3.214 0 01-3.439 2.925" fill="#004c87"/><path data-name="패스 495" d="M126.798 9.101V7.357h-2.218V5.489h-3.192v8.941h3.192v-1.868h2.218v-1.744h-2.218V9.101z" fill="#004c87"/><path data-name="패스 496" d="M107.532 9.742c0-2.49 2.884-4.509 6.441-4.509s6.441 2.019 6.441 4.509-2.884 4.51-6.441 4.51-6.441-2.019-6.441-4.51m6.441 3.061a3.267 3.267 0 003.44-3.061 3.463 3.463 0 00-6.878 0 3.267 3.267 0 003.439 3.061" fill="#004c87"/><path data-name="패스 497" d="M110.154 18.528c0-2.29 3.271-4.147 7.307-4.147s7.307 1.857 7.307 4.147-3.272 4.147-7.307 4.147-7.307-1.856-7.307-4.147m7.307 2.71c2.2 0 3.975-1.213 3.975-2.71s-1.779-2.71-3.975-2.71-3.975 1.214-3.975 2.71 1.78 2.71 3.975 2.71" fill="#004c87"/><path data-name="패스 498" d="M102.769 5.488v6.573h-.857V5.488h-2.61v17.03h2.61v-8.713h.857v8.713h2.61V5.488z" fill="#004c87"/><path data-name="패스 499" d="M95.921 8.677h2.6V6.933h-3.918V5.464h-3.192v1.469h-4.5l.582 1.743h2.6a6.011 6.011 0 00-2.83 5.14 5.747 5.747 0 1011.485 0 6.011 6.011 0 00-2.83-5.14m-2.912 9.537c-1.693 0-3.066-1.969-3.066-4.4s1.373-4.4 3.066-4.4 3.066 1.969 3.066 4.4-1.373 4.4-3.066 4.4" fill="#004c87"/><path data-name="패스 500" d="M57.591 13.763v-1.365h6.7V5.489H46.865l.835 1.743v3.922a1.26 1.26 0 001.249 1.244h5.447v1.365h-7.16v1.743h17.518v-1.743zm-6.7-6.531h10.2v3.422h-10.2z" fill="#004c87"/><path data-name="패스 501" d="M47.703 16.561v1.744h13.39v4.2h3.192v-5.944z" fill="#004c87"/><path data-name="패스 502" d="M143.078 5.489v6.573h-.727V5.489h-2.61v12.673h-7.071V7.814h6.481V6.071h-10.508l.834 1.744v10.8a1.2 1.2 0 001.285 1.3h8.978v2.614h2.61v-8.723h.727v8.713h2.739V5.489z" fill="#004c87"/><path data-name="패스 503" d="M34.986 5.428v.993h6.684v.955h1.337V5.428z" fill="#004c87"/><path data-name="패스 504" d="M43.102 8.236v.859h-3.533v.478h-1.241v-.478h-3.337v-.859z" fill="#004c87"/><path data-name="패스 505" d="M34.938 9.955h8.02v2.826h-1.241V11.2h-6.779z" fill="#004c87"/><path data-name="패스 506" d="M34.985 14.633h4.678v2.1h-3.322v.764h3.3v.764h-4.713v-2.1h3.4v-.669h-3.362z" fill="#004c87"/><path data-name="사각형 155" fill="#004c87" d="M41.669 14.633h1.337v3.628h-1.337z"/><path data-name="패스 507" d="M34.985 18.835h1.432v.664h5.156v-.669h1.433v3.437h-8zm1.432 1.664v.63h5.252v-.649z" fill="#004c87"/></g></g></g></svg>