<svg xmlns="http://www.w3.org/2000/svg" width="200" height="45"><defs><clipPath id="a"><path data-name="사각형 47" transform="translate(0 .113)" fill="none" d="M0 0h200v45H0z"/></clipPath></defs><g data-name="그룹 41" transform="translate(0 -.113)" clip-path="url(#a)"><path data-name="패스 30" d="M29.41 25.798h2.209a11.524 11.524 0 004.618-.93 11.307 11.307 0 003.769-2.558 11.991 11.991 0 003.433-8.443v-1.913a12.062 12.062 0 00-.92-4.669 12.288 12.288 0 00-2.51-3.792A11.3 11.3 0 0036.24.935a11.525 11.525 0 00-4.621-.93h-10.6v7.688h9.307a5.113 5.113 0 014 1.449 5.544 5.544 0 011.274 3.792 5.352 5.352 0 01-1.256 3.792 5.185 5.185 0 01-4.017 1.378h-9.308v8.121l10.754 13.728a10.534 10.534 0 008.291 4.054h4.138z" fill="#184b9f"/><path data-name="패스 31" d="M57.398 36.562h21.691a7.407 7.407 0 01-7.366 7.447h-22.56V.001h29.926a7.407 7.407 0 01-7.366 7.447H57.398v10.86h21.691a7.3 7.3 0 01-7.263 7.342H57.398z" fill="#184b9f"/><path data-name="패스 32" d="M0 22.008V36.38a7.588 7.588 0 007.546 7.628h11.242v-22zm13.639 16.8H8.907a3.779 3.779 0 01-3.759-3.8v-7.8h8.491z" fill="#184b9f"/><path data-name="패스 33" d="M0 18.993h18.788V0H0zm13.639-5.205h-8.49V5.2h8.491z" fill="#184b9f"/><path data-name="패스 34" d="M99.887 39.233q4.042 0 6.062-1.645a4.929 4.929 0 002.022-3.929v-.848a5.517 5.517 0 00-.42-2.228 4.277 4.277 0 00-1.418-1.7 10.938 10.938 0 00-2.573-1.354 24.922 24.922 0 00-3.883-1.088 47.712 47.712 0 01-4.987-1.354 14.987 14.987 0 01-3.991-1.963 8.756 8.756 0 01-2.651-2.97 9.038 9.038 0 01-.971-4.379v-.956a9.481 9.481 0 01.788-3.793 9.138 9.138 0 012.411-3.264 12.418 12.418 0 014.069-2.309 16.861 16.861 0 015.7-.875 21.878 21.878 0 016.3.849 18.961 18.961 0 015.25 2.494 5.133 5.133 0 01-6.092 2.221q-.313-.11-.628-.2a16.818 16.818 0 00-4.777-.638 9.279 9.279 0 00-5.7 1.594 4.71 4.71 0 00-2.122 3.87v.848a4.175 4.175 0 00.578 2.255 5.148 5.148 0 001.679 1.619 11.568 11.568 0 002.73 1.192q1.627.505 3.728.985a32.016 32.016 0 015.852 1.83 13.391 13.391 0 013.754 2.361 7.7 7.7 0 012.022 2.97 10.424 10.424 0 01.6 3.608v.956a9.46 9.46 0 01-3.832 7.936 12.191 12.191 0 01-4.279 2.015 20.821 20.821 0 01-5.382.664 20.6 20.6 0 01-7.427-1.3 21.147 21.147 0 01-5.748-3.21l1.02-1.672a3.012 3.012 0 014.018-1.088 24.9 24.9 0 002.783 1.3 18.675 18.675 0 002.861.875 12.293 12.293 0 002.651.321" fill="#1a1311"/><path data-name="패스 35" d="M131.535 44.007a17.869 17.869 0 01-6.221-1.034 12.8 12.8 0 01-4.856-3.158 14.567 14.567 0 01-3.175-5.254 21.754 21.754 0 01-1.129-7.379v-5.78a21.565 21.565 0 011.129-7.323 14.537 14.537 0 013.175-5.254 13.026 13.026 0 014.882-3.184 18.591 18.591 0 0112.39 0 13.026 13.026 0 014.881 3.184 14.562 14.562 0 013.177 5.254 21.606 21.606 0 011.128 7.323v5.782a21.8 21.8 0 01-1.128 7.379 14.592 14.592 0 01-3.177 5.254 12.772 12.772 0 01-4.881 3.158 17.944 17.944 0 01-6.2 1.034m.005-34.656a11.2 11.2 0 00-4.068.719 8.06 8.06 0 00-3.2 2.228 10.658 10.658 0 00-2.1 3.926 19.25 19.25 0 00-.761 5.759v4.616a19.254 19.254 0 00.761 5.759 10.659 10.659 0 002.1 3.926 8.06 8.06 0 003.2 2.228 11.87 11.87 0 008.137 0 8.066 8.066 0 003.2-2.228 10.659 10.659 0 002.1-3.926 19.254 19.254 0 00.761-5.759v-4.616a19.25 19.25 0 00-.761-5.759 10.657 10.657 0 00-2.1-3.926 8.066 8.066 0 00-3.2-2.228 11.212 11.212 0 00-4.069-.719" fill="#1a1311"/><path data-name="패스 36" d="M173.268 5.161a4.488 4.488 0 01-4.463 4.512h-13.749v12.788h17.112a4.488 4.488 0 01-4.463 4.512h-12.65v16.451h-5.2V5.161z" fill="#1a1311"/><path data-name="패스 37" d="M179.199 9.669h-2.988v-4.48h23.827a4.488 4.488 0 01-4.463 4.512h-11.188v33.751h-5.2z" fill="#1a1311"/></g></svg>