<svg data-name="그룹 123" xmlns="http://www.w3.org/2000/svg" width="172.395" height="57.03"><defs><clipPath id="a"><path data-name="사각형 123" fill="none" d="M0 0h172.395v57.03H0z"/></clipPath></defs><g data-name="그룹 122" clip-path="url(#a)"><path data-name="패스 200" d="M111.526 43.072a4.775 4.775 0 011.034 3.183 4.963 4.963 0 01-1.034 3.265 3.921 3.921 0 01-3.213 1.378 3.848 3.848 0 01-3.173-1.378 5.014 5.014 0 01-1.02-3.265 4.823 4.823 0 011.02-3.183 3.894 3.894 0 013.173-1.344 3.992 3.992 0 013.213 1.344m-4.909.666a4.723 4.723 0 00-.594 2.517 5.005 5.005 0 00.594 2.6 1.908 1.908 0 001.7 1.012 1.941 1.941 0 001.711-1.012 4.835 4.835 0 00.62-2.6 4.564 4.564 0 00-.62-2.517 1.95 1.95 0 00-1.711-.987 1.915 1.915 0 00-1.7.987" fill="#8e8e8f"/><path data-name="패스 201" d="M148.097 47.136a1.012 1.012 0 01.538-.122h2.022a1.007 1.007 0 01.55.122.358.358 0 01.188.324.324.324 0 01-.188.3 1.147 1.147 0 01-.55.1h-2.022a1.159 1.159 0 01-.538-.1.324.324 0 01-.2-.3.356.356 0 01.2-.324" fill="#8e8e8f"/><path data-name="패스 202" d="M139.101 50.646h.029-.1.067" fill="#8e8e8f"/><path data-name="패스 203" d="M139.243 50.646h.048-.16z" fill="#8e8e8f"/><path data-name="패스 204" d="M120.922 41.938h-.009c-.03-.005-.059-.011-.091-.014h-.012c-.053-.005-.111-.006-.17-.008h-.067c-.052 0-.1 0-.148.007a.48.48 0 00-.055.005l-.043.007a.785.785 0 00-.606.771v4.392a1.406 1.406 0 01-.027.322c-.028.092-.078.138-.153.138-.091 0-.2-.078-.316-.23a5.5 5.5 0 01-.387-.586q-.635-1.1-1.42-2.4l-1.173-1.918a1 1 0 00-.442-.4 2.987 2.987 0 00-.937-.1c-.055 0-.1 0-.155.006a1.74 1.74 0 00-.783.178.566.566 0 00-.061.041.784.784 0 00-.242.564v7.175a.785.785 0 00.575.76l.021.008c.031 0 .06.01.092.014h.012c.052.005.111.006.169.008H114.769l.043-.007a.784.784 0 00.606-.766l.009-5.081c0-.142.142-.2.239-.2a.371.371 0 01.263.125 2.2 2.2 0 01.262.379q.316.586.978 1.713.373.666 1.159 2.011l.773 1.321a1.28 1.28 0 00.593.449 2.5 2.5 0 00.717.07h.227c.053 0 .1 0 .151-.006a.452.452 0 00.06-.006l.044-.006.054-.017a.788.788 0 00.566-.753v-7.202a.785.785 0 00-.588-.765" fill="#8e8e8f"/><path data-name="패스 205" d="M138.336 42.6a3.629 3.629 0 00-2.289-.665h-2.948a1.488 1.488 0 00-1.049.356 1.2 1.2 0 00-.345.884v6.807a.788.788 0 00.575.755.358.358 0 00.035.011c.03.005.061.011.093.015h.012c.05.005.1.006.156.007h.087c.052 0 .1 0 .153-.007a.433.433 0 00.059-.006.419.419 0 00.044-.007.209.209 0 00.034-.01.789.789 0 00.586-.759v-1.956a1.037 1.037 0 01.179-.666.812.812 0 01.663-.253h1.805a3.3 3.3 0 002.289-.712 2.428 2.428 0 00.758-1.907 2.249 2.249 0 00-.9-1.886m-1.517 3.138a2.858 2.858 0 01-1.752.414 2.911 2.911 0 01-1.239-.172.656.656 0 01-.29-.633v-1.587a.776.776 0 01.262-.678 2.435 2.435 0 011.186-.2 3.281 3.281 0 011.752.367 1.313 1.313 0 01.579 1.2 1.537 1.537 0 01-.5 1.287" fill="#8e8e8f"/><path data-name="패스 206" d="M168.87 41.959c-.03 0-.061-.012-.093-.014h-.011c-.056 0-.115-.007-.175-.008h-.073c-.053 0-.1 0-.151.007l-.061.006c-.016 0-.03.005-.044.007a.789.789 0 00-.621.771v4.8a2.823 2.823 0 01-.442 1.748 1.628 1.628 0 01-1.393.586 1.6 1.6 0 01-1.406-.586 3.217 3.217 0 01-.359-1.748v-4.8a.789.789 0 00-.745-.786h-.17a2.008 2.008 0 00-.323.028.787.787 0 00-.592.762v5.62a2.16 2.16 0 00.992 1.85 3.456 3.456 0 00.841.429 5.375 5.375 0 001.794.273 6.075 6.075 0 001.806-.239 3.061 3.061 0 00.939-.463 2.158 2.158 0 00.9-1.85v-5.62a.788.788 0 00-.61-.767" fill="#8e8e8f"/><path data-name="패스 207" d="M161.191 46.946a.8.8 0 00-.209-.575 1 1 0 00-.745-.265h-2.764a.426.426 0 00-.252.084.448.448 0 00-.171.252c0 .017 0 .033-.005.051v.008a.891.891 0 000 .1v.039a.686.686 0 000 .082.144.144 0 000 .034.1.1 0 000 .024.46.46 0 00.085.176.429.429 0 00.338.166h1.034a1.163 1.163 0 01.5.128c.213.139.317.471.317 1a1.481 1.481 0 01-.593 1.218 2.4 2.4 0 01-1.543.472 1.9 1.9 0 01-1.642-.92 4.741 4.741 0 01-.676-2.713 4.881 4.881 0 01.566-2.527 1.989 1.989 0 011.779-1.023 2.458 2.458 0 011.379.332 1.689 1.689 0 01.5.581l.012.024c.012.023.026.043.038.066a1.618 1.618 0 00.235.321.68.68 0 00.469.237s.912.113 1.027-.539a.969.969 0 00-.184-.671 3.013 3.013 0 00-.486-.488c-.048-.038-.1-.075-.147-.114a3.866 3.866 0 00-1.132-.551 5.15 5.15 0 00-1.515-.219 4.351 4.351 0 00-3.212 1.24 4.46 4.46 0 00-1.23 3.265 4.8 4.8 0 001.243 3.551 3.819 3.819 0 002.827 1.093 6.108 6.108 0 001.227-.1 3.137 3.137 0 00.321-.083c.078-.024.154-.052.234-.083a1.38 1.38 0 01.806.037.793.793 0 00.334.171c.031.005.061.011.094.015h.014c.053.005.112.008.173.008h.069c.052 0 .1 0 .151-.006h.006a.794.794 0 00.566-.172.5.5 0 00.143-.3.77.77 0 00.01-.107z" fill="#8e8e8f"/><path data-name="패스 208" d="M102.463 46.589a4.975 4.975 0 00-1.03-.483 11.317 11.317 0 00-1.383-.38 4.389 4.389 0 01-1.614-.586 1.315 1.315 0 01-.428-1.091 1.355 1.355 0 01.173-.7 1.941 1.941 0 011.455-.6 2.656 2.656 0 011.239.25c.048.027.1.054.14.083s.069.056.1.083a1.859 1.859 0 01.463.673.185.185 0 00.01.028c0 .009.007.016.01.024a.85.85 0 101.483-.823.91.91 0 00-.155-.175 3.431 3.431 0 00-.307-.283c-.048-.038-.1-.075-.148-.114a3.879 3.879 0 00-1.13-.551l-.022-.006-.048-.017a5.478 5.478 0 00-1.64-.242 4.135 4.135 0 00-2.7.816 2.386 2.386 0 00-.7.934 1.846 1.846 0 00-.123.664 2.134 2.134 0 001.007 1.885 1.977 1.977 0 00.186.107 7.26 7.26 0 001.662.593l.318.082.207.048.137.03c.366.1.668.19.908.275a2.706 2.706 0 01.54.244 1.135 1.135 0 01.524 1.034 1.449 1.449 0 01-.267.909 1.819 1.819 0 01-.615.423 3.3 3.3 0 01-1.075.15 2.76 2.76 0 01-.856-.128 1.969 1.969 0 01-.456-.2 1.673 1.673 0 01-.34-.27 1.631 1.631 0 01-.325-.495.145.145 0 00-.01-.025l-.022-.055a1.2 1.2 0 00-.169-.306.958.958 0 00-.142-.118.854.854 0 00-.5-.162.837.837 0 00-.348.076.852.852 0 00-.437 1.1l.006.013.034.066a.222.222 0 01.014.018c.017.03.039.061.059.09l.016.024a2.508 2.508 0 001.033.889 5.761 5.761 0 002.608.506 5.49 5.49 0 001.978-.322 3.3 3.3 0 00.739-.391 2.171 2.171 0 00.979-1.872 1.971 1.971 0 00-1.034-1.724" fill="#8e8e8f"/><path data-name="패스 209" d="M130.679 46.946a.8.8 0 00-.206-.575 1 1 0 00-.745-.265h-2.761a.433.433 0 00-.253.084.391.391 0 00-.175.3.011.011 0 000 .008v.255a.1.1 0 000 .024.435.435 0 00.423.341h1.034a1.173 1.173 0 01.5.128c.211.139.317.471.317 1a1.486 1.486 0 01-.593 1.218 2.413 2.413 0 01-1.546.472 1.9 1.9 0 01-1.64-.92 4.741 4.741 0 01-.675-2.713 4.875 4.875 0 01.565-2.527 1.985 1.985 0 011.778-1.023 2.9 2.9 0 011.07.173 1.794 1.794 0 01.863.9v.022a.853.853 0 00.786.528.867.867 0 00.37-.087.854.854 0 00.482-.764.836.836 0 00-.139-.465.88.88 0 00-.157-.178 3.691 3.691 0 00-.293-.268l-.148-.114a3.9 3.9 0 00-1.131-.551 5.173 5.173 0 00-1.518-.219 4.357 4.357 0 00-3.214 1.24 4.47 4.47 0 00-1.225 3.265 4.807 4.807 0 001.24 3.551 3.821 3.821 0 002.826 1.093 6.134 6.134 0 001.229-.1 3.082 3.082 0 00.321-.083h.005a3.65 3.65 0 00.233-.083 1.382 1.382 0 01.806.037.81.81 0 00.333.171c.032.005.061.011.1.015h.01c.055.005.114.008.175.008h.07c.052 0 .1 0 .15-.006h.009a.8.8 0 00.565-.172.525.525 0 00.143-.3.783.783 0 00.007-.107z" fill="#8e8e8f"/><path data-name="패스 210" d="M146.73 49.857l-1.26-3.3-.888-2.326a.232.232 0 01-.016-.034l-.534-1.392a1.5 1.5 0 00-.413-.643 1.583 1.583 0 00-.937-.23H142.567a1.586 1.586 0 00-.939.23 1.508 1.508 0 00-.414.643l-.533 1.392c0 .012-.01.023-.014.034l-.89 2.326-1.261 3.3a.526.526 0 00.317.766c.029.005.056.011.088.015h.471l.063-.006.046-.007a1.314 1.314 0 00.914-.769l.526-1.568a.827.827 0 01.145-.206.979.979 0 01.69-.219h1.686a.977.977 0 01.689.219.845.845 0 01.145.206l.524 1.568a1.32 1.32 0 00.916.769l.047.007.063.006h.476c.031 0 .059-.01.088-.015a.525.525 0 00.316-.766m-3.03-3.228c0 .017-.008.034-.013.05a.3.3 0 01-.039.092l-.008.01a.2.2 0 01-.034.043.368.368 0 01-.062.051 1.938 1.938 0 01-.914.139 1.943 1.943 0 01-.914-.139.428.428 0 01-.062-.051.181.181 0 01-.034-.043l-.007-.01a.266.266 0 01-.04-.093.465.465 0 01-.01-.048.131.131 0 010-.028.8.8 0 01.042-.312l.504-1.515a1.83 1.83 0 01.22-.459.38.38 0 01.285-.137h.036a.377.377 0 01.284.137 1.728 1.728 0 01.219.459l.509 1.517a.821.821 0 01.042.314v.025" fill="#8e8e8f"/><path data-name="패스 211" d="M48.574 38.044a4.131 4.131 0 003.18 2.933l.027.007c2.11.573 3.4 1.339 3.4 2.181 0 1.42-3.673 2.624-8.772 3.053a38.482 38.482 0 01-8.057 0c-5.1-.429-8.773-1.633-8.773-3.053 0-.842 1.289-1.607 3.4-2.181l.021-.007a4.136 4.136 0 003.182-2.933C15.995 38.723 0 42.58 0 47.279c0 4.981 19.2 9.716 42.273 9.752h.21c23.069-.036 42.273-4.771 42.273-9.752 0-4.7-15.992-8.556-36.182-9.235" fill="#004295"/><path data-name="패스 212" d="M42.384 3.994c4.537 0 8.215-.892 8.215-2S46.917 0 42.384 0s-8.21.894-8.21 2 3.675 2 8.21 2" fill="#008945" fill-rule="evenodd"/><path data-name="패스 213" d="M53.483 24.316c-1.774 0-3.506.036-5.177.1 2.349-.641 3.728-1.415 3.728-2.253 0-2.2-9.525-3.985-21.276-3.985S9.491 19.962 9.491 22.162s9.524 3.984 21.267 3.984c.961 0 1.907-.012 2.831-.036-3.549.83-5.676 1.881-5.676 3.031 0 2.665 11.446 4.826 25.569 4.826s25.569-2.161 25.569-4.826-11.445-4.826-25.568-4.826" fill="#008945" fill-rule="evenodd"/><path data-name="패스 214" d="M51.824 10.692c-1.708 0-3.354.045-4.91.129 2.149-.507 3.468-1.173 3.468-1.907 0-1.574-5.973-2.85-13.34-2.85S23.7 7.34 23.7 8.914s5.971 2.845 13.344 2.845c.684 0 1.354-.014 2.007-.036-2.7.546-4.353 1.263-4.353 2.051 0 1.7 7.669 3.084 17.128 3.084s17.118-1.378 17.118-3.083-7.667-3.083-17.123-3.083" fill="#008945" fill-rule="evenodd"/><path data-name="패스 215" d="M94.091 22.4a4.542 4.542 0 001.693-.253 3.074 3.074 0 001.36-1.078l.668-.894a33.4 33.4 0 013.359-3.939 4.208 4.208 0 012.749-.864 5.2 5.2 0 011.582.2 3.964 3.964 0 011.361.776 14.268 14.268 0 011.526 1.636c.391.48 1.112 1.419 2.167 2.8l.193.253a2.979 2.979 0 001.307 1.055 4.665 4.665 0 001.748.25 1.105 1.105 0 00.89-.306.984.984 0 00.25-.723c0-.33-.7-1.359-2.11-3.078q-1.834-2.254-3.693-4.247a2.491 2.491 0 00-1.471-.744 23.9 23.9 0 00-3.749-.2 25.719 25.719 0 00-3.665.166 2.6 2.6 0 00-1.554.774 54.3 54.3 0 00-3.718 4.281c-1.353 1.722-2.028 2.755-2.028 3.109a1.056 1.056 0 00.222.722 1.189 1.189 0 00.916.307" fill="#1a1311"/><path data-name="패스 216" d="M111.569 29.182a15.389 15.389 0 00-7.6-1.581 15.6 15.6 0 00-7.678 1.581c-1.626.967-2.44 2.167-2.44 3.614q0 2.116 2.44 3.532a15.26 15.26 0 007.678 1.611 15.059 15.059 0 007.6-1.611q2.469-1.421 2.467-3.532c0-1.446-.821-2.647-2.467-3.614m-3.379 5.809a8.153 8.153 0 01-4.215.975 8.269 8.269 0 01-4.267-.975 2.6 2.6 0 01-1.526-2.195 2.635 2.635 0 011.526-2.248 9.717 9.717 0 018.482 0 2.635 2.635 0 011.523 2.248 2.6 2.6 0 01-1.523 2.195" fill="#1a1311"/><path data-name="패스 217" d="M115.854 24.709a.74.74 0 00-.741-.738h-7.751a1.479 1.479 0 01-1.477-1.48v-.806a3.536 3.536 0 01-.011-.295 1.389 1.389 0 00-.057-.4 1.48 1.48 0 00-1.469-1.307h-.834a1.476 1.476 0 00-1.44 1.15v1.657a1.415 1.415 0 01-.04.332 1.48 1.48 0 01-1.44 1.148h-8.046a.738.738 0 00-.74.738v.7a.74.74 0 00.74.739h22.564a.742.742 0 00.741-.739v-.069a.967.967 0 00.045-.281.945.945 0 00-.045-.275z" fill="#1a1311"/><path data-name="패스 218" d="M171.657 24.669h-.257a1.482 1.482 0 01-1.315-1.474V16.28a2.353 2.353 0 00-.779-1.839 3.169 3.169 0 00-2.2-.722h-16.513a.739.739 0 00-.741.74v.7a.74.74 0 00.741.742h14.086a1.48 1.48 0 011.479 1.479v5.82a1.479 1.479 0 01-1.479 1.481h-15.796a.737.737 0 00-.643.729v.7a.736.736 0 00.74.735h6.813c.047 0 .089.008.135.008.029 0 .059-.008.092-.008h.9a1.481 1.481 0 011.479 1.481v7.424a1.48 1.48 0 001.482 1.479h.843a1.478 1.478 0 001.481-1.479v-7.425a1.481 1.481 0 011.48-1.481h.907a.221.221 0 01.054.008.481.481 0 01.08-.008h6.931a.74.74 0 00.742-.735v-.7a.74.74 0 00-.742-.736" fill="#1a1311"/><path data-name="패스 219" d="M145.733 19.529h-1.929a1.479 1.479 0 01-1.48-1.482v-3.631a1.48 1.48 0 00-1.481-1.478h-.371a.352.352 0 00-.066 0 .433.433 0 00-.069 0H140a1.479 1.479 0 00-1.48 1.478v13.695a2.034 2.034 0 01-.032.35v.068a1.48 1.48 0 01-1.479 1.483h-1.085a1.478 1.478 0 01-1.464-1.27V17.817a1.482 1.482 0 011.482-1.481h.151a.74.74 0 00.671-.734v-.7a.743.743 0 00-.742-.741h-15.318a.739.739 0 00-.738.741v.7a.737.737 0 00.669.734.016.016 0 01.01 0h.141a1.482 1.482 0 011.481 1.481V28.84a1.479 1.479 0 01-1.481 1.477h-.344a.755.755 0 00-.74.741v.7a.741.741 0 00.74.74h16.6a1.479 1.479 0 011.481 1.477v1.706a1.48 1.48 0 001.305 1.466 2.866 2.866 0 00.581.054 2.972 2.972 0 00.528-.047 1.48 1.48 0 001.39-1.473v-12.49a1.481 1.481 0 011.48-1.48h1.929a.739.739 0 00.737-.74v-.7a.739.739 0 00-.737-.74m-14.855-.817V28.84a1.446 1.446 0 01-.019.235c0 .007 0 .022-.005.032-.016.074-.036.143-.054.214 0 .009-.01.021-.016.036a1.678 1.678 0 01-.091.2s-.006 0-.006.008a2.084 2.084 0 01-.13.191h-.005a1.435 1.435 0 01-.162.169l-.01.013a1.541 1.541 0 01-.648.334 1.607 1.607 0 01-.352.04h-2.052a1.578 1.578 0 01-.269-.03.484.484 0 01-.049-.01c-.032-.007-.065-.014-.1-.025a1.517 1.517 0 01-.5-.253 1.512 1.512 0 01-.182-.17c-.005 0-.008-.011-.014-.015a1.45 1.45 0 01-.145-.192.086.086 0 01-.015-.026 1.122 1.122 0 01-.1-.208c0-.01-.008-.021-.011-.033a1.374 1.374 0 01-.066-.23.058.058 0 00-.005-.022 1.612 1.612 0 01-.025-.261v-11.02a1.491 1.491 0 011.5-1.481h2.037a1.49 1.49 0 011.5 1.481z" fill="#1a1311"/></g></svg>