<svg xmlns="http://www.w3.org/2000/svg" width="170.04" height="38.114"><defs><clipPath id="a"><path data-name="사각형 172" fill="none" d="M0 0h170.04v38.114H0z"/></clipPath></defs><g data-name="그룹 170"><path data-name="패스 596" d="M80.852 35.249l-4.558-9.605-2.616 9.605h-3.174l3.706-13.608h3.358l4.495 9.467 2.7-9.92h3.175l-3.832 14.061z" fill="#003e92" fill-rule="evenodd"/><g data-name="그룹 169"><g data-name="그룹 168" clip-path="url(#a)"><path data-name="패스 597" d="M68.253 30.407c-.065 1.419-1.2 2.6-3.963 2.6h-2.694l1.361-5h.958c2.4 0 4.424.558 4.339 2.4m-3.11 4.837c4.291 0 6.264-1.955 6.687-4.483a3.707 3.707 0 00-2.946-4.203 3.8 3.8 0 002.663-3.314c.273-2.01-1.508-4.319-6.117-4.319h-3.174l-.742 2.718h-13.6l-.617 2.267h5.892l-3.087 11.338h3.171l3.09-11.34h7.706l.726-2.667h.952c1.632 0 2.479 1.2 2.281 2.16a2.735 2.735 0 01-2.9 2.36H60.39l-2.581 9.487z" fill="#003e92"/><path data-name="패스 598" d="M28.432 3.853L25.324.745a2.541 2.541 0 00-3.6 0l-2.662 2.673L16.393.749a2.545 2.545 0 00-1.761-.748 2.519 2.519 0 00-1.826.738L9.682 3.863a2.544 2.544 0 000 3.581l5.609 5.611a5.328 5.328 0 007.536 0l5.607-5.6a2.545 2.545 0 000-3.6" fill="#33a437"/><path data-name="패스 599" d="M13.057 22.823a5.323 5.323 0 000-7.532L7.45 9.685a2.551 2.551 0 00-3.6 0l-3.106 3.11a2.547 2.547 0 000 3.6l2.667 2.663-2.664 2.665a2.539 2.539 0 00-.008 3.587l3.126 3.126a2.544 2.544 0 003.581 0z" fill="#33a437"/><path data-name="패스 600" d="M28.434 30.662l-5.607-5.6a5.333 5.333 0 00-7.534 0L9.684 30.67a2.544 2.544 0 000 3.581l3.126 3.13a2.535 2.535 0 001.781.734 2.561 2.561 0 001.8-.75l2.669-2.671 2.665 2.671a2.556 2.556 0 001.8.75 2.53 2.53 0 001.8-.744l3.11-3.106a2.552 2.552 0 000-3.6" fill="#33a437"/><path data-name="패스 601" d="M34.703 19.059l7.138-7.14a2.534 2.534 0 00.016-3.583l-3.128-3.123a2.542 2.542 0 00-3.581 0L25.06 15.292a5.327 5.327 0 000 7.532L35.138 32.9a2.546 2.546 0 003.6-.006l3.11-3.1a2.543 2.543 0 00-.006-3.6z" fill="#002a69"/><path data-name="패스 602" d="M97.586 35.302v-5.34a2.623 2.623 0 01-.7.336 3.332 3.332 0 01-1.033.14h-2.788a1.543 1.543 0 01-1.114-.394 1.387 1.387 0 01-.41-1.049v-6.742h4.931v1.262H93.72v5.666h2.21a4.577 4.577 0 00.985-.091 3.6 3.6 0 00.671-.2v-7.14h2.1v3.684h1.312v-3.692h2.1v13.56h-2.1V26.67h-1.317v8.632z" fill="#33a437"/><path data-name="패스 603" d="M109.539 35.302v-5.815h-5.092v-1.26h8.434a4.071 4.071 0 00.2-.991c.034-.378.049-.75.049-1.122v-3.047h-7.619v-1.244h9.827v4.226a5.611 5.611 0 01-.148 1.219 2.923 2.923 0 01-.344.96h1.982v1.26h-5.074v5.815z" fill="#33a437"/><path data-name="패스 604" d="M122.15 26.588v5.453h1.1v-5.453h2.129v5.453h4.57v1.246h-12.088v-1.246h2.16v-5.453zm-3.292-4.651h9.779v5.112a11.189 11.189 0 01-.222 2.374 5.32 5.32 0 01-.613 1.654h-1.95a3.878 3.878 0 00.518-1.686c.057-.657.089-1.492.089-2.507v-3.687h-7.6z" fill="#33a437"/><path data-name="패스 605" d="M134.697 25.229v.884h7.419v1.211h-3.834v1.017h5.161v1.244h-12.529v-1.244h5.158v-1.017h-2.064a1.544 1.544 0 01-1.1-.392 1.365 1.365 0 01-.419-1.049v-4.03h9.485v1.229h-7.277V24h7.205v1.229zm4.954 5.658a2.576 2.576 0 011.023 2.056 2.617 2.617 0 01-1.023 2.079 4.057 4.057 0 01-4.972 0 2.6 2.6 0 01-1.036-2.079 2.563 2.563 0 011.033-2.056 4.088 4.088 0 014.972 0m-3.409.892a1.929 1.929 0 00-.382 1.163 1.95 1.95 0 00.382 1.179 1.073 1.073 0 001.844 0 1.923 1.923 0 00.394-1.179 1.9 1.9 0 00-.394-1.163 1.073 1.073 0 00-1.844 0" fill="#33a437"/><path data-name="패스 606" d="M146.702 22.151v1.982h2.489v-1.982h2.212v6.634h-5.372a1.558 1.558 0 01-1.126-.4 1.4 1.4 0 01-.417-1.056v-5.178zm2.489 3.227H146.7v2.162h2.491zm4.633 5.085a2.868 2.868 0 010 4.463 4.081 4.081 0 01-5.158 0 2.872 2.872 0 010-4.463 4.061 4.061 0 015.158 0m-3.6.918a2.112 2.112 0 00-.445 1.318 2.059 2.059 0 00.445 1.3 1.2 1.2 0 002.046 0 2.069 2.069 0 00.443-1.3 2.122 2.122 0 00-.443-1.318 1.19 1.19 0 00-2.046 0m5.011-7.067h2.21v1.255h-2.21v3.87h-2.212v-7.664h2.212z" fill="#33a437"/><path data-name="패스 607" d="M164.813 26.753v1.636h5.225v1.229h-12.676v-1.229h5.241v-1.636zm0-4.98v1.13a2.825 2.825 0 001.573 2.392 6.2 6.2 0 003.26 1l-1.049.965a7.8 7.8 0 01-2.883-.613 3.6 3.6 0 01-2.014-1.565 3.52 3.52 0 01-1.99 1.565 7.814 7.814 0 01-2.908.613l-1.049-.965a6.181 6.181 0 003.268-1 2.821 2.821 0 001.563-2.392v-1.13zm1.343 9.154a2.578 2.578 0 010 4.1 4.012 4.012 0 01-4.92 0 2.566 2.566 0 010-4.1 4.05 4.05 0 014.92 0m-3.365.9a1.959 1.959 0 00-.37 1.147 1.931 1.931 0 00.37 1.161 1.06 1.06 0 001.81 0 1.9 1.9 0 00.376-1.161 1.924 1.924 0 00-.376-1.147 1.043 1.043 0 00-1.81 0" fill="#33a437"/><path data-name="패스 608" d="M56.773 2.642v1.265h-7.3v4.68h7.484v1.26h-3.87v2.9h4.928v1.246H45.931v-1.247h4.946V9.847h-2.081a1.546 1.546 0 01-1.122-.4 1.4 1.4 0 01-.417-1.056V2.642z" fill="#003e92"/><path data-name="패스 609" d="M67.712 5.982V3.906h-7.255V2.64h9.467v4.586h-7.142v1.836h7.4v1.244h-3.829v2.44h4.93v1.244H59.195v-1.244h4.946v-2.44h-2.113a1.5 1.5 0 01-1.08-.362 1.335 1.335 0 01-.373-1.015V5.982z" fill="#003e92"/><path data-name="패스 610" d="M76.753 7.293v5.453h1.1V7.293h2.129v5.453h4.57v1.246h-12.09v-1.246h2.162V7.293zm-3.292-4.651h9.775v5.11a11.332 11.332 0 01-.22 2.374 5.319 5.319 0 01-.615 1.654h-1.946a3.877 3.877 0 00.516-1.686q.089-.985.089-2.507v-3.68h-7.6z" fill="#003e92"/><path data-name="패스 611" d="M89.299 5.934v.884h7.419v1.211h-3.832v1.017h5.16v1.245h-12.53V9.046h5.158V8.029H88.61a1.543 1.543 0 01-1.1-.392 1.365 1.365 0 01-.419-1.049V2.559h9.485v1.229h-7.277v.918h7.205v1.228zm4.954 5.658a2.57 2.57 0 011.023 2.056 2.609 2.609 0 01-1.023 2.079 4.054 4.054 0 01-4.97 0 2.6 2.6 0 01-1.033-2.079 2.563 2.563 0 011.033-2.056 4.085 4.085 0 014.97 0m-3.407.892a1.931 1.931 0 00-.384 1.163 1.952 1.952 0 00.384 1.179 1.073 1.073 0 001.844 0 1.921 1.921 0 00.392-1.179 1.9 1.9 0 00-.392-1.163 1.073 1.073 0 00-1.844 0" fill="#003e92"/><path data-name="패스 612" d="M111.31 9.521H98.781V8.276h4.012V5.295h2.21v2.981h6.307zm-11.039-6.978h9.467v2.715a4.915 4.915 0 01-.18 1.27 2.257 2.257 0 01-.41.908h-1.917a3.344 3.344 0 00.237-.973 11.15 11.15 0 00.057-1.14v-1.52h-7.254zm7.393 8.671a2.814 2.814 0 010 4.424 4.13 4.13 0 01-5.168 0 2.83 2.83 0 010-4.424 4.13 4.13 0 015.168 0m-3.6.91a2.164 2.164 0 00-.417 1.31 2.067 2.067 0 00.417 1.278 1.206 1.206 0 002.032 0 2.08 2.08 0 00.417-1.278 2.177 2.177 0 00-.417-1.31 1.186 1.186 0 00-2.032 0" fill="#003e92"/><path data-name="패스 613" d="M123.036 2.446V5.31h2.21v1.263h-2.21v5.9h-2.21V9.276a5.017 5.017 0 01-1.051.384 5.137 5.137 0 01-1.292.156h-4.57a1.535 1.535 0 01-1.114-.394 1.381 1.381 0 01-.41-1.049V2.887h6.731v1.245h-4.518v4.423h4.012a7.972 7.972 0 001.237-.091 5.379 5.379 0 00.975-.237V2.446zm-6.654 12.3h7.124v1.264h-7.808a1.553 1.553 0 01-1.088-.394 1.377 1.377 0 01-.435-1.08v-3.181h2.207z" fill="#003e92"/></g></g></g></svg>